<svg width="298" height="114" viewBox="0 0 298 114" fill="none" xmlns="http://www.w3.org/2000/svg"><path d="M13.2 9h6.3l-6.06 14.22c-1 2.34-2.32 4.08-3.96 5.22C7.86 29.58 5.74 30.1 3.12 30v-5.58c1.82.14 3.2-.21 4.14-1.05L.3 9h6.3l3.63 7.98L13.2 9zm18.5135 13.35c1.46.66 2.19 1.75 2.19 3.27 0 1.36-.46 2.43-1.38 3.21-.9.78-2.24 1.17-4.02 1.17h-8.7V15h8.25c1.78 0 3.12.39 4.02 1.17.92.76 1.38 1.82 1.38 3.18 0 1.32-.58 2.32-1.74 3zm-4.68-3.48h-1.83v1.86h1.83c.68 0 1.02-.3 1.02-.9 0-.64-.34-.96-1.02-.96zm.27 7.26c.68 0 1.02-.32 1.02-.96 0-.6-.34-.9-1.02-.9h-2.1v1.86h2.1zm16.1817-7.23c1.82 0 3.25.5 4.29 1.5 1.06.98 1.59 2.33 1.59 4.05 0 1.72-.53 3.08-1.59 4.08-1.04.98-2.47 1.47-4.29 1.47h-7.92V15h5.55v3.9h2.37zm6.78-3.9h5.55v15h-5.55V15zm-7.47 10.5c.78 0 1.17-.35 1.17-1.05 0-.7-.39-1.05-1.17-1.05h-1.68v2.1h1.68zm22.6165-1.35l-2.7 10.05h-4.5l.9-10.05h6.3zM82.8305 15h5.55v15h-5.55v-4.86h-3.6V30h-5.55V15h5.55v4.86h3.6V15zm15.3108 15.42c-2.24 0-4.15-.76-5.73-2.28-1.56-1.52-2.34-3.4-2.34-5.64 0-2.24.78-4.12 2.34-5.64 1.56-1.52 3.47-2.28 5.73-2.28 2.2597 0 4.1697.76 5.7297 2.28 1.56 1.52 2.34 3.4 2.34 5.64 0 2.24-.78 4.12-2.34 5.64-1.56 1.52-3.47 2.28-5.7297 2.28zm-1.83-6c.48.48 1.09.72 1.83.72s1.34-.24 1.8-.72c.4797-.5.7197-1.14.7197-1.92s-.24-1.41-.7197-1.89c-.46-.5-1.06-.75-1.8-.75s-1.35.25-1.83.75c-.46.48-.69 1.11-.69 1.89 0 .78.23 1.42.69 1.92zm27.4927-2.1c1.54.74 2.31 1.94 2.31 3.6 0 1.34-.6 2.44-1.8 3.3-1.18.84-2.74 1.26-4.68 1.26-1.6 0-2.96-.27-4.08-.81-1.1-.56-1.98-1.5-2.64-2.82l4.17-2.43c.48 1.08 1.25 1.62 2.31 1.62.28 0 .54-.07.78-.21.24-.14.36-.34.36-.6 0-.54-.34-.81-1.02-.81h-1.5V20.4h1.5c.2 0 .37-.08.51-.24.16-.16.24-.34.24-.54 0-.56-.39-.84-1.17-.84-.92 0-1.54.51-1.86 1.53l-4.17-2.22c.76-1.26 1.66-2.16 2.7-2.7 1.04-.54 2.35-.81 3.93-.81 1.72 0 3.14.43 4.26 1.29 1.14.86 1.71 1.92 1.71 3.18 0 1.48-.62 2.57-1.86 3.27zM137.993 15h5.55v15h-5.55v-1.35c-.96 1.18-2.3 1.77-4.02 1.77-2.02 0-3.67-.75-4.95-2.25-1.28-1.5-1.92-3.39-1.92-5.67s.64-4.17 1.92-5.67c1.28-1.5 2.93-2.25 4.95-2.25 1.72 0 3.06.59 4.02 1.77V15zm-4.62 9.51c.5.54 1.15.81 1.95.81s1.44-.27 1.92-.81c.5-.54.75-1.21.75-2.01 0-.8-.25-1.47-.75-2.01-.48-.54-1.12-.81-1.92-.81-.8 0-1.45.27-1.95.81-.48.54-.72 1.21-.72 2.01 0 .8.24 1.47.72 2.01zM161.256 30h-6.15l-3.6-6v6h-5.55V15h5.55v5.82l3.15-5.82h6.3l-4.56 7.5 4.86 7.5zm10.369-15h5.55v15h-5.55v-1.35c-.96 1.18-2.3 1.77-4.02 1.77-2.02 0-3.67-.75-4.95-2.25-1.28-1.5-1.92-3.39-1.92-5.67s.64-4.17 1.92-5.67c1.28-1.5 2.93-2.25 4.95-2.25 1.72 0 3.06.59 4.02 1.77V15zm-4.62 9.51c.5.54 1.15.81 1.95.81s1.44-.27 1.92-.81c.5-.54.75-1.21.75-2.01 0-.8-.25-1.47-.75-2.01-.48-.54-1.12-.81-1.92-.81-.8 0-1.45.27-1.95.81-.48.54-.72 1.21-.72 2.01 0 .8.24 1.47.72 2.01zm22.424-2.19c1.54.74 2.31 1.94 2.31 3.6 0 1.34-.6 2.44-1.8 3.3-1.18.84-2.74 1.26-4.68 1.26-1.6 0-2.96-.27-4.08-.81-1.1-.56-1.98-1.5-2.64-2.82l4.17-2.43c.48 1.08 1.25 1.62 2.31 1.62.28 0 .54-.07.78-.21.24-.14.36-.34.36-.6 0-.54-.34-.81-1.02-.81h-1.5V20.4h1.5c.2 0 .37-.08.51-.24.16-.16.24-.34.24-.54 0-.56-.39-.84-1.17-.84-.92 0-1.54.51-1.86 1.53l-4.17-2.22c.76-1.26 1.66-2.16 2.7-2.7 1.04-.54 2.35-.81 3.93-.81 1.72 0 3.14.43 4.26 1.29 1.14.86 1.71 1.92 1.71 3.18 0 1.48-.62 2.57-1.86 3.27zM216.733 15v15h-5.4v-6.6l-3 4.65h-.54l-3-4.65V30h-5.4V15h5.4l3.27 5.1 3.27-5.1h5.4zm9.758 15.42c-2.24 0-4.15-.76-5.73-2.28-1.56-1.52-2.34-3.4-2.34-5.64 0-2.24.78-4.12 2.34-5.64 1.56-1.52 3.47-2.28 5.73-2.28 2.26 0 4.17.76 5.73 2.28 1.56 1.52 2.34 3.4 2.34 5.64 0 2.24-.78 4.12-2.34 5.64-1.56 1.52-3.47 2.28-5.73 2.28zm-1.83-6c.48.48 1.09.72 1.83.72s1.34-.24 1.8-.72c.48-.5.72-1.14.72-1.92s-.24-1.41-.72-1.89c-.46-.5-1.06-.75-1.8-.75s-1.35.25-1.83.75c-.46.48-.69 1.11-.69 1.89 0 .78.23 1.42.69 1.92zM257.576 30h-6.06l-3-5.76V30h-5.55v-5.76l-3 5.76h-6.06l4.32-7.5-4.02-7.5h6.06l2.7 5.61V15h5.55v5.61l2.7-5.61h6.06l-4.02 7.5 4.32 7.5zm10.352-15h5.55v15h-5.55v-4.86h-3.6V30h-5.55V15h5.55v4.86h3.6V15zm15.311 15.42c-2.24 0-4.15-.76-5.73-2.28-1.56-1.52-2.34-3.4-2.34-5.64 0-2.24.78-4.12 2.34-5.64 1.56-1.52 3.47-2.28 5.73-2.28 2.26 0 4.17.76 5.73 2.28 1.56 1.52 2.34 3.4 2.34 5.64 0 2.24-.78 4.12-2.34 5.64-1.56 1.52-3.47 2.28-5.73 2.28zm-1.83-6c.48.48 1.09.72 1.83.72s1.34-.24 1.8-.72c.48-.5.72-1.14.72-1.92s-.24-1.41-.72-1.89c-.46-.5-1.06-.75-1.8-.75s-1.35.25-1.83.75c-.46.48-.69 1.11-.69 1.89 0 .78.23 1.42.69 1.92zM8.61 68.42c-2.24 0-4.15-.76-5.73-2.28C1.32 64.62.54 62.74.54 60.5c0-2.24.78-4.12 2.34-5.64 1.56-1.52 3.47-2.28 5.73-2.28 2.26 0 4.17.76 5.73 2.28 1.56 1.52 2.34 3.4 2.34 5.64 0 2.24-.78 4.12-2.34 5.64-1.56 1.52-3.47 2.28-5.73 2.28zm-1.83-6c.48.48 1.09.72 1.83.72s1.34-.24 1.8-.72c.48-.5.72-1.14.72-1.92s-.24-1.41-.72-1.89c-.46-.5-1.06-.75-1.8-.75s-1.35.25-1.83.75c-.46.48-.69 1.11-.69 1.89 0 .78.23 1.42.69 1.92zm31.8066-1.92c0 2.02-.65 3.73-1.95 5.13-1.28 1.4-3.2 2.29-5.76 2.67V74h-5.4v-5.7c-2.56-.38-4.49-1.27-5.79-2.67-1.28-1.4-1.92-3.11-1.92-5.13 0-2 .64-3.69 1.92-5.07 1.3-1.4 3.23-2.29 5.79-2.67V47h5.4v5.76c2.56.38 4.48 1.27 5.76 2.67 1.3 1.38 1.95 3.07 1.95 5.07zm-13.11-2.58c-1.46.4-2.19 1.26-2.19 2.58s.73 2.18 2.19 2.58v-5.16zm5.4 5.16c1.46-.4 2.19-1.26 2.19-2.58s-.73-2.18-2.19-2.58v5.16zm16.874 5.34c-2.24 0-4.15-.76-5.73-2.28-1.56-1.52-2.34-3.4-2.34-5.64 0-2.24.78-4.12 2.34-5.64 1.56-1.52 3.47-2.28 5.73-2.28 2.26 0 4.17.76 5.73 2.28 1.56 1.52 2.34 3.4 2.34 5.64 0 2.24-.78 4.12-2.34 5.64-1.56 1.52-3.47 2.28-5.73 2.28zm-1.83-6c.48.48 1.09.72 1.83.72s1.34-.24 1.8-.72c.48-.5.72-1.14.72-1.92s-.24-1.41-.72-1.89c-.46-.5-1.06-.75-1.8-.75s-1.35.25-1.83.75c-.46.48-.69 1.11-.69 1.89 0 .78.23 1.42.69 1.92zm21.2166-9.84c2.02 0 3.67.75 4.95 2.25 1.28 1.5 1.92 3.39 1.92 5.67s-.64 4.17-1.92 5.67c-1.28 1.5-2.93 2.25-4.95 2.25-1.72 0-3.06-.59-4.02-1.77V74h-5.55V53h5.55v1.35c.96-1.18 2.3-1.77 4.02-1.77zm-3.3 9.93c.5.54 1.15.81 1.95.81s1.44-.27 1.92-.81c.5-.54.75-1.21.75-2.01 0-.8-.25-1.47-.75-2.01-.48-.54-1.12-.81-1.92-.81-.8 0-1.45.27-1.95.81-.48.54-.72 1.21-.72 2.01 0 .8.24 1.47.72 2.01zM93.1005 53v15h-5.4v-6.6l-3 4.65h-.54l-3-4.65V68h-5.4V53h5.4l3.27 5.1 3.27-5.1h5.4zm12.9365 0h4.47v15h-5.4v-6.45L99.9766 68h-4.47V53h5.4004v6.45l5.13-6.45zm19.622 0v5.28h-4.08V68h-5.58v-9.72h-4.14V53h13.8zm9.262 3.9c1.82 0 3.25.5 4.29 1.5 1.06.98 1.59 2.33 1.59 4.05 0 1.72-.53 3.08-1.59 4.08-1.04.98-2.47 1.47-4.29 1.47h-7.92V53h5.55v3.9h2.37zm-.69 6.6c.78 0 1.17-.35 1.17-1.05 0-.7-.39-1.05-1.17-1.05h-1.68v2.1h1.68zM161.05 53v5.28h-4.08V68h-5.58v-9.72h-4.14V53h13.8zm8.458 15.42c-2.24 0-4.15-.76-5.73-2.28-1.56-1.52-2.34-3.4-2.34-5.64 0-2.24.78-4.12 2.34-5.64 1.56-1.52 3.47-2.28 5.73-2.28 2.26 0 4.17.76 5.73 2.28 1.56 1.52 2.34 3.4 2.34 5.64 0 2.24-.78 4.12-2.34 5.64-1.56 1.52-3.47 2.28-5.73 2.28zm-1.83-6c.48.48 1.09.72 1.83.72s1.34-.24 1.8-.72c.48-.5.72-1.14.72-1.92s-.24-1.41-.72-1.89c-.46-.5-1.06-.75-1.8-.75s-1.35.25-1.83.75c-.46.48-.69 1.11-.69 1.89 0 .78.23 1.42.69 1.92zM194.385 53v15h-5.55v-9.72h-2.7v3.51c0 2.44-.61 4.16-1.83 5.16-1.22.98-3.18 1.33-5.88 1.05v-5.1c.74.2 1.28.12 1.62-.24.36-.38.54-1.07.54-2.07V53h13.8zm10.321 3.9c1.82 0 3.25.5 4.29 1.5 1.06.98 1.59 2.33 1.59 4.05 0 1.72-.53 3.08-1.59 4.08-1.04.98-2.47 1.47-4.29 1.47h-7.92V53h5.55v3.9h2.37zm-.69 6.6c.78 0 1.17-.35 1.17-1.05 0-.7-.39-1.05-1.17-1.05h-1.68v2.1h1.68zm23.363 4.5h-6.15l-3.6-6v6h-5.55V53h5.55v5.82l3.15-5.82h6.3l-4.56 7.5 4.86 7.5zm7.549.42c-2.24 0-4.15-.76-5.73-2.28-1.56-1.52-2.34-3.4-2.34-5.64 0-2.24.78-4.12 2.34-5.64 1.56-1.52 3.47-2.28 5.73-2.28 2.26 0 4.17.76 5.73 2.28 1.56 1.52 2.34 3.4 2.34 5.64 0 2.24-.78 4.12-2.34 5.64-1.56 1.52-3.47 2.28-5.73 2.28zm-1.83-6c.48.48 1.09.72 1.83.72s1.34-.24 1.8-.72c.48-.5.72-1.14.72-1.92s-.24-1.41-.72-1.89c-.46-.5-1.06-.75-1.8-.75s-1.35.25-1.83.75c-.46.48-.69 1.11-.69 1.89 0 .78.23 1.42.69 1.92zM9.45 91H15v15H9.45v-3.9c-.92.22-1.82.33-2.7.33-1.82 0-3.3-.5-4.44-1.5C1.17 99.91.6 98.5.6 96.7V91h5.55v4.5c0 1.22.65 1.83 1.95 1.83.48 0 .93-.06 1.35-.18V91zm12.8426 9.39c.48 1 1.5 1.5 3.06 1.5.92 0 1.77-.32 2.55-.96l3.63 3.06c-1.5 1.62-3.62 2.43-6.36 2.43-2.56 0-4.62-.74-6.18-2.22-1.54-1.5-2.31-3.38-2.31-5.64 0-2.28.75-4.18 2.25-5.7 1.52-1.52 3.43-2.28 5.73-2.28 2.28 0 4.15.75 5.61 2.25 1.48 1.48 2.22 3.35 2.22 5.61 0 .66-.08 1.31-.24 1.95h-9.96zm-.09-3.57h5.04c-.34-1.2-1.15-1.8-2.43-1.8-1.3 0-2.17.6-2.61 1.8zm21.4971-6.24c2.02 0 3.67.75 4.95 2.25 1.28 1.5 1.92 3.39 1.92 5.67s-.64 4.17-1.92 5.67c-1.28 1.5-2.93 2.25-4.95 2.25-1.72 0-3.06-.59-4.02-1.77V112h-5.55V91h5.55v1.35c.96-1.18 2.3-1.77 4.02-1.77zm-3.3 9.93c.5.54 1.15.81 1.95.81s1.44-.27 1.92-.81c.5-.54.75-1.21.75-2.01 0-.8-.25-1.47-.75-2.01-.48-.54-1.12-.81-1.92-.81-.8 0-1.45.27-1.95.81-.48.54-.72 1.21-.72 2.01 0 .8.24 1.47.72 2.01zm16.8733-.12c.48 1 1.5 1.5 3.06 1.5.92 0 1.77-.32 2.55-.96l3.63 3.06c-1.5 1.62-3.62 2.43-6.36 2.43-2.56 0-4.62-.74-6.18-2.22-1.54-1.5-2.31-3.38-2.31-5.64 0-2.28.75-4.18 2.25-5.7 1.52-1.52 3.43-2.28 5.73-2.28 2.28 0 4.15.75 5.61 2.25 1.48 1.48 2.22 3.35 2.22 5.61 0 .66-.08 1.31-.24 1.95h-9.96zm-.09-3.57h5.04c-.34-1.2-1.15-1.8-2.43-1.8-1.3 0-2.17.6-2.61 1.8zm21.4742 1.5c1.54.74 2.31 1.94 2.31 3.6 0 1.34-.6 2.44-1.8 3.3-1.18.84-2.74 1.26-4.68 1.26-1.6 0-2.96-.27-4.08-.81-1.1-.56-1.98-1.5-2.64-2.82l4.17-2.43c.48 1.08 1.25 1.62 2.31 1.62.28 0 .54-.07.78-.21.24-.14.36-.34.36-.6 0-.54-.34-.81-1.02-.81h-1.5V96.4h1.5c.2 0 .37-.08.51-.24.16-.16.24-.34.24-.54 0-.56-.39-.84-1.17-.84-.92 0-1.54.51-1.86 1.53l-4.17-2.22c.76-1.26 1.66-2.16 2.7-2.7 1.04-.54 2.35-.81 3.93-.81 1.72 0 3.14.43 4.26 1.29 1.14.86 1.71 1.92 1.71 3.18 0 1.48-.62 2.57-1.86 3.27zM103.922 106h-6.1501l-3.6-6v6h-5.55V91h5.55v5.82l3.15-5.82h6.3001l-4.5601 7.5 4.8601 7.5zm7.549.42c-2.24 0-4.15-.76-5.73-2.28-1.56-1.52-2.34-3.4-2.34-5.64 0-2.24.78-4.12 2.34-5.64 1.56-1.52 3.47-2.28 5.73-2.28 2.26 0 4.17.76 5.73 2.28 1.56 1.52 2.34 3.4 2.34 5.64 0 2.24-.78 4.12-2.34 5.64-1.56 1.52-3.47 2.28-5.73 2.28zm-1.83-6c.48.48 1.09.72 1.83.72s1.34-.24 1.8-.72c.48-.5.72-1.14.72-1.92s-.24-1.41-.72-1.89c-.46-.5-1.06-.75-1.8-.75s-1.35.25-1.83.75c-.46.48-.69 1.11-.69 1.89 0 .78.23 1.42.69 1.92zM130.438 91h5.55v15h-5.55v-4.86h-3.6V106h-5.55V91h5.55v4.86h3.6V91zm20.709 0v5.28h-4.08V106h-5.58v-9.72h-4.14V91h13.8zm11.279 0h5.55v15h-5.55v-1.35c-.96 1.18-2.3 1.77-4.02 1.77-2.02 0-3.67-.75-4.95-2.25-1.28-1.5-1.92-3.39-1.92-5.67s.64-4.17 1.92-5.67c1.28-1.5 2.93-2.25 4.95-2.25 1.72 0 3.06.59 4.02 1.77V91zm-4.62 9.51c.5.54 1.15.81 1.95.81s1.44-.27 1.92-.81c.5-.54.75-1.21.75-2.01 0-.8-.25-1.47-.75-2.01-.48-.54-1.12-.81-1.92-.81-.8 0-1.45.27-1.95.81-.48.54-.72 1.21-.72 2.01 0 .8.24 1.47.72 2.01zm27.883 5.49h-6.15l-3.6-6v6h-5.55V91h5.55v5.82l3.15-5.82h6.3l-4.56 7.5 4.86 7.5zm13.945-15v5.28h-4.08V106h-5.58v-9.72h-4.14V91h13.8zm9.261 3.9c1.82 0 3.25.5 4.29 1.5 1.06.98 1.59 2.33 1.59 4.05 0 1.72-.53 3.08-1.59 4.08-1.04.98-2.47 1.47-4.29 1.47h-7.92V91h5.55v3.9h2.37zm6.78-3.9h5.55v15h-5.55V91zm-7.47 10.5c.78 0 1.17-.35 1.17-1.05 0-.7-.39-1.05-1.17-1.05h-1.68v2.1h1.68z" fill="#fff"/></svg>