<svg width="345" height="375" viewBox="0 0 345 375" fill="none" xmlns="http://www.w3.org/2000/svg"><rect width="345" height="375" rx="25" fill="#fff"/><path d="M24.374 55v-4.352c1.4053.204 2.4593-.0793 3.162-.85.7027-.7707 1.054-2.278 1.054-4.522V31.2h16.184V55h-4.658V35.688h-6.868v9.452c0 2.0627-.2493 3.7967-.748 5.202-.4987 1.4053-1.19 2.448-2.074 3.128-.8613.68-1.7907 1.1333-2.788 1.36-.9747.2267-2.0627.2833-3.264.17zm39.0926-2.108c-1.7454 1.7227-3.876 2.584-6.392 2.584-2.516 0-4.6467-.8613-6.392-2.584-1.7227-1.7453-2.584-3.876-2.584-6.392 0-2.516.8613-4.6353 2.584-6.358 1.7453-1.7453 3.876-2.618 6.392-2.618 2.516 0 4.6466.8727 6.392 2.618 1.7453 1.7227 2.618 3.842 2.618 6.358 0 2.516-.8727 4.6467-2.618 6.392zm-9.69-3.026c.884.884 1.9833 1.326 3.298 1.326 1.3146 0 2.414-.442 3.298-1.326.884-.884 1.326-2.006 1.326-3.366 0-1.36-.442-2.482-1.326-3.366-.884-.884-1.9834-1.326-3.298-1.326-1.3147 0-2.414.442-3.298 1.326-.8614.884-1.292 2.006-1.292 3.366 0 1.36.4306 2.482 1.292 3.366zM80.7981 38v4.216h-7.242V55h-4.386V38h11.628zm16.1704 14.892c-1.7453 1.7227-3.876 2.584-6.392 2.584-2.516 0-4.6467-.8613-6.392-2.584-1.7227-1.7453-2.584-3.876-2.584-6.392 0-2.516.8613-4.6353 2.584-6.358 1.7453-1.7453 3.876-2.618 6.392-2.618 2.516 0 4.6467.8727 6.392 2.618 1.7453 1.7227 2.618 3.842 2.618 6.358 0 2.516-.8727 4.6467-2.618 6.392zm-9.69-3.026c.884.884 1.9833 1.326 3.298 1.326s2.414-.442 3.298-1.326c.884-.884 1.326-2.006 1.326-3.366 0-1.36-.442-2.482-1.326-3.366-.884-.884-1.9833-1.326-3.298-1.326s-2.414.442-3.298 1.326c-.8613.884-1.292 2.006-1.292 3.366 0 1.36.4307 2.482 1.292 3.366zM115.404 38v4.216H110.1V55h-4.386V42.216h-5.372V38h15.062zm14.616 0h3.264v17H129v-9.656L121.01 55h-3.264V38h4.284v9.656L130.02 38zm22.821 0v17h-4.386V42.114h-6.766V55h-4.386V38h15.538zM20.7614 108h1.7613v-5.312h3.1818c3.3878 0 4.9148-2.06 4.9148-4.6312 0-2.571-1.527-4.6023-4.9432-4.6023h-4.9147V108zm1.7613-6.875v-6.108h3.0966c2.3651 0 3.2671 1.2927 3.2671 3.0398 0 1.7472-.902 3.0682-3.2387 3.0682h-3.125zm13.4469 7.131c1.9034 0 2.8978-1.023 3.2387-1.733h.0852V108h1.6761v-7.188c0-3.4654-2.642-3.8631-4.0341-3.8631-1.6477 0-3.5227.5681-4.375 2.5568l1.5909.5683c.3694-.7956 1.2429-1.6479 2.841-1.6479 1.5412 0 2.3011.8168 2.3011 2.2159v.057c0 .81-.8239.739-2.8125.994-2.0242.263-4.233.71-4.233 3.21 0 2.131 1.6478 3.353 3.7216 3.353zm.2557-1.506c-1.3352 0-2.3011-.597-2.3011-1.761 0-1.279 1.1647-1.677 2.4716-1.847.7102-.085 2.6136-.284 2.8977-.625v1.534c0 1.364-1.0796 2.699-3.0682 2.699zm6.6518-1.534c.0568 1.79 1.7685 3.011 4.0909 3.011 2.3864 0 4.1193-1.278 4.1193-3.267 0-1.363-.8167-2.471-2.0454-2.557v-.113c1.0369-.32 1.8182-1.073 1.8182-2.3014 0-1.7258-1.4773-3.0397-3.7784-3.0397-2.2728 0-3.8921 1.25-3.9489 3.0113h1.7614c.0497-.902.9943-1.5341 2.2727-1.5341 1.2713 0 1.9886.6463 1.9886 1.6189 0 .91-.625 1.591-1.9602 1.591h-1.875v1.506h1.875c1.3352 0 2.1875.732 2.1875 1.818 0 1.243-1.1009 1.762-2.4432 1.762-1.3139 0-2.1946-.519-2.2727-1.506h-1.7898zm10.0946 6.875h1.6762v-5.767h.142c.3693.596 1.0796 1.903 3.1818 1.903 2.7273 0 4.6307-2.187 4.6307-5.653 0-3.4376-1.9034-5.6251-4.6591-5.6251-2.1306 0-2.7841 1.3068-3.1534 1.875h-.1988v-1.733h-1.6194v15.0001zm1.6478-9.546c0-2.443 1.0795-4.0905 3.125-4.0905 2.1307 0 3.1818 1.7895 3.1818 4.0905 0 2.33-1.0796 4.177-3.1818 4.177-2.0171 0-3.125-1.705-3.125-4.177zm13.28 5.711c1.9034 0 2.8977-1.023 3.2386-1.733h.0852V108h1.6762v-7.188c0-3.4654-2.6421-3.8631-4.0341-3.8631-1.6477 0-3.5227.5681-4.375 2.5568l1.5909.5683c.3693-.7956 1.2429-1.6479 2.8409-1.6479 1.5412 0 2.3011.8168 2.3011 2.2159v.057c0 .81-.8238.739-2.8125.994-2.0241.263-4.2329.71-4.2329 3.21 0 2.131 1.6477 3.353 3.7216 3.353zm.2557-1.506c-1.3353 0-2.3012-.597-2.3012-1.761 0-1.279 1.1648-1.677 2.4716-1.847.7102-.085 2.6136-.284 2.8977-.625v1.534c0 1.364-1.0795 2.699-3.0681 2.699zM83.5854 93c-.5327.4474-1.3282.4474-2.4432.4403-.3622 0-.76 0-1.1932.0142-3.3239.0853-4.9716 2.6137-4.9716 7.4715v1.165c0 4.034 1.9602 6.136 4.8864 6.136 2.919 0 4.8579-2.116 4.8579-5.539 0-3.438-1.9673-5.2562-4.517-5.2562-1.4986 0-2.8977.625-3.6364 1.9887h-.142c.2273-2.8125 1.2784-4.3182 3.5511-4.4035 2.0171-.0852 3.4659-.0284 4.4602-.9943L83.5854 93zm-3.7216 13.722c-1.9887 0-3.2102-1.591-3.2102-4.034.0355-2.387 1.2357-3.7505 3.1818-3.7505 1.9957 0 3.2102 1.3635 3.2102 3.7505 0 2.457-1.2074 4.034-3.1818 4.034zm11.3837 1.505c2.9545 0 4.9432-2.244 4.9432-5.625 0-3.4088-1.9887-5.6531-4.9432-5.6531-2.9546 0-4.9432 2.2443-4.9432 5.6531 0 3.381 1.9886 5.625 4.9432 5.625zm0-1.505c-2.2443 0-3.2671-1.932-3.2671-4.12 0-2.187 1.0228-4.1475 3.2671-4.1475s3.267 1.9605 3.267 4.1475c0 2.188-1.0227 4.12-3.267 4.12zm5.606-8.0686h3.6075V108h1.677v-9.3466h3.579v-1.5625h-8.8635v1.5625zm13.4825 9.6026c1.903 0 2.898-1.023 3.239-1.733h.085V108h1.676v-7.188c0-3.4654-2.642-3.8631-4.034-3.8631-1.648 0-3.523.5681-4.375 2.5568l1.591.5683c.369-.7956 1.243-1.6479 2.841-1.6479 1.541 0 2.301.8168 2.301 2.2159v.057c0 .81-.824.739-2.813.994-2.024.263-4.233.71-4.233 3.21 0 2.131 1.648 3.353 3.722 3.353zm.256-1.506c-1.336 0-2.302-.597-2.302-1.761 0-1.279 1.165-1.677 2.472-1.847.71-.085 2.614-.284 2.898-.625v1.534c0 1.364-1.08 2.699-3.068 2.699zm11.907 1.477c2.216 0 3.835-1.108 4.347-2.755l-1.62-.455c-.426 1.136-1.413 1.705-2.727 1.705-1.967 0-3.324-1.272-3.402-3.608h7.919v-.711c0-4.0621-2.415-5.4541-4.687-5.4541-2.955 0-4.915 2.3295-4.915 5.6821 0 3.352 1.932 5.596 5.085 5.596zm-3.402-6.562c.114-1.6977 1.314-3.2105 3.232-3.2105 1.818 0 2.983 1.3637 2.983 3.2105h-6.215zm15.965 4.062l-3.75-8.6361h-2.216V108h1.676v-8.5014L134.38 108h1.364l3.607-8.3452V108h1.677V97.0909h-2.159l-3.807 8.6361zM147.815 108h.568c2.415 0 3.111-1.875 3.267-5.455l.171-3.8916h4.005V108h1.676V97.0909h-7.272l-.199 4.8291c-.142 3.665-.512 4.518-1.818 4.518h-.398V108zm16.725.227c2.954 0 4.943-2.244 4.943-5.625 0-3.4088-1.989-5.6531-4.943-5.6531-2.955 0-4.944 2.2443-4.944 5.6531 0 3.381 1.989 5.625 4.944 5.625zm0-1.505c-2.245 0-3.268-1.932-3.268-4.12 0-2.187 1.023-4.1475 3.268-4.1475 2.244 0 3.267 1.9605 3.267 4.1475 0 2.188-1.023 4.12-3.267 4.12zm13.764-9.6311h-6.733V108h1.676v-9.3466h5.057v-1.5625zm5.842 11.1361c2.955 0 4.944-2.244 4.944-5.625 0-3.4088-1.989-5.6531-4.944-5.6531-2.954 0-4.943 2.2443-4.943 5.6531 0 3.381 1.989 5.625 4.943 5.625zm0-1.505c-2.244 0-3.267-1.932-3.267-4.12 0-2.187 1.023-4.1475 3.267-4.1475 2.245 0 3.267 1.9605 3.267 4.1475 0 2.188-1.022 4.12-3.267 4.12zm5.606-8.0686h3.608V108h1.676v-9.3466h3.58v-1.5625h-8.864v1.5625zm12.515 6.8746v-8.4371h-1.676V108h1.96l5.227-8.4375V108h1.677V97.0909h-1.932l-5.256 8.4371zm9.788 2.472h1.676v-9.3466h5.227V108h1.676V97.0909h-8.579V108zm15.16 3.125h1.677V108h8.068v3.125h1.676v-4.687h-1.676v-9.3471h-6.932l-.369 4.3181c-.263 3.054-.654 4.105-1.534 5.029h-.91v4.687zm2.813-4.687c.767-1.009 1.044-2.749 1.278-5.029l.284-2.7556h3.694v7.7846h-5.256zm9.397 1.562h.568c2.415 0 3.111-1.875 3.267-5.455l.17-3.8916h4.006V108h1.676V97.0909h-7.272l-.199 4.8291c-.142 3.665-.512 4.518-1.819 4.518h-.397V108zm18.855 0h1.591V97.0909h-4.489c-2.351 0-3.778 1.2287-3.778 3.2391 0 1.498.753 2.563 2.067 3.011L251.007 108h1.818l2.529-4.432h2.926V108zm0-5.994h-3.097c-1.186 0-1.903-.632-1.903-1.676 0-1.0587.795-1.705 2.102-1.705h2.898v3.381zm9.353 5.994h5.142c2.216 0 3.551-1.25 3.551-2.926 0-1.712-1.3-2.635-2.5-2.813 1.229-.255 2.102-.944 2.102-2.2724 0-1.74-1.491-2.8977-3.835-2.8977h-4.46V108zm1.591-1.534v-3.352h3.551c1.151 0 1.847.689 1.847 1.818 0 .952-.696 1.534-1.847 1.534h-3.551zm0-4.801v-3.04h2.869c1.343 0 2.159.5611 2.159 1.477 0 .973-.816 1.563-2.159 1.563h-2.869zm12.38 6.591c1.903 0 2.897-1.023 3.238-1.733h.086V108h1.676v-7.188c0-3.4654-2.642-3.8631-4.034-3.8631-1.648 0-3.523.5681-4.375 2.5568l1.591.5683c.369-.7956 1.242-1.6479 2.84-1.6479 1.542 0 2.302.8168 2.302 2.2159v.057c0 .81-.824.739-2.813.994-2.024.263-4.233.71-4.233 3.21 0 2.131 1.648 3.353 3.722 3.353zm.255-1.506c-1.335 0-2.301-.597-2.301-1.761 0-1.279 1.165-1.677 2.472-1.847.71-.085 2.613-.284 2.898-.625v1.534c0 1.364-1.08 2.699-3.069 2.699zm11.766 1.477c2.415 0 4.005-1.477 4.29-3.409h-1.677c-.312 1.193-1.306 1.904-2.613 1.904-1.989 0-3.267-1.648-3.267-4.177 0-2.471 1.307-4.0905 3.267-4.0905 1.477 0 2.358.9091 2.613 1.9035h1.677c-.285-2.0455-2.017-3.4091-4.319-3.4091-2.954 0-4.914 2.3295-4.914 5.6531 0 3.267 1.875 5.625 4.943 5.625zm-268.6591 24c2.4148 0 4.0057-1.477 4.2898-3.409h-1.6762c-.3125 1.193-1.3068 1.904-2.6136 1.904-1.9886 0-3.267-1.648-3.267-4.177 0-2.471 1.3068-4.09 3.267-4.09 1.4773 0 2.358.909 2.6136 1.903h1.6762c-.2841-2.046-2.0171-3.409-4.3182-3.409-2.9545 0-4.9148 2.329-4.9148 5.653 0 3.267 1.875 5.625 4.9432 5.625zM31.236 132h5.142c2.2159 0 3.5511-1.25 3.5511-2.926 0-1.712-1.2997-2.635-2.5-2.813 1.2287-.255 2.1023-.944 2.1023-2.272 0-1.74-1.4915-2.898-3.8352-2.898H31.236V132zm1.5909-1.534v-3.352h3.5511c1.1506 0 1.8466.689 1.8466 1.818 0 .952-.696 1.534-1.8466 1.534h-3.5511zm0-4.801v-3.04h2.8693c1.3423 0 2.1591.561 2.1591 1.477 0 .973-.8168 1.563-2.1591 1.563h-2.8693zm13.6014 6.562c2.9545 0 4.9431-2.244 4.9431-5.625 0-3.409-1.9886-5.653-4.9431-5.653-2.9546 0-4.9432 2.244-4.9432 5.653 0 3.381 1.9886 5.625 4.9432 5.625zm0-1.505c-2.2444 0-3.2671-1.932-3.2671-4.12 0-2.187 1.0227-4.147 3.2671-4.147 2.2443 0 3.267 1.96 3.267 4.147 0 2.188-1.0227 4.12-3.267 4.12zm8.7079-1.194v-8.437H53.46V132h1.9603l5.2272-8.438V132h1.6762v-10.909h-1.9319l-5.2556 8.437zm15.7533.199l-3.75-8.636h-2.2159V132h1.6762v-8.501L70.2077 132h1.3636l3.608-8.345V132h1.6761v-10.909h-2.1591l-3.8068 8.636zm10.2403-.199v-8.437h-1.6762V132h1.9603l5.2272-8.438V132h1.6762v-10.909h-1.9319l-5.2556 8.437zm14.9424 6.563h1.6762v-5.767h.142c.3693.596 1.0795 1.903 3.1816 1.903 2.727 0 4.631-2.187 4.631-5.653 0-3.438-1.904-5.625-4.659-5.625-2.1309 0-2.7843 1.307-3.1536 1.875h-.1989v-1.733h-1.6193v15zm1.6477-9.546c0-2.443 1.0796-4.09 3.1251-4.09 2.131 0 3.182 1.789 3.182 4.09 0 2.33-1.08 4.177-3.182 4.177-2.0171 0-3.1251-1.705-3.1251-4.177zm10.7591 9.546c1.512 0 2.578-.803 3.21-2.5l4.645-12.472-1.833-.028-3.011 8.693h-.114l-3.011-8.693h-1.818l4.034 10.966-.313.852c-.61 1.662-1.363 1.818-2.585 1.506l-.426 1.477c.17.085.653.199 1.222.199zm9.602-4.091h1.677v-4.602h1.505l3.58 4.602h2.159l-4.46-5.653 4.403-5.256h-2.159l-3.92 4.744h-1.108v-4.744h-1.677V132zm13.483.256c1.903 0 2.898-1.023 3.238-1.733h.086V132h1.676v-7.188c0-3.465-2.642-3.863-4.034-3.863-1.648 0-3.523.568-4.375 2.557l1.591.568c.369-.796 1.243-1.648 2.841-1.648 1.541 0 2.301.817 2.301 2.216v.057c0 .81-.824.739-2.813.994-2.024.263-4.233.71-4.233 3.21 0 2.131 1.648 3.353 3.722 3.353zm.256-1.506c-1.336 0-2.302-.597-2.302-1.761 0-1.279 1.165-1.677 2.472-1.847.71-.085 2.614-.284 2.898-.625v1.534c0 1.364-1.08 2.699-3.068 2.699zm13.299-1.023l-3.75-8.636h-2.216V132h1.676v-8.501l3.608 8.501h1.364l3.608-8.345V132h1.676v-10.909h-2.159l-3.807 8.636zm10.24-.199v-8.437h-1.676V132h1.96l5.228-8.438V132h1.676v-10.909h-1.932l-5.256 8.437z" fill="#3D3D3D"/><rect x="99" y="304" width="148" height="56" rx="8" fill="#3385FF"/><path d="M152.758 340h-3.498l-5.5-7.216V340h-3.036v-15.4h3.036v6.798l5.28-6.798h3.498l-5.698 7.48 5.918 7.92zm7.173-11h3.036l-4.004 11c-1.114 3.095-3.05 4.561-5.808 4.4v-2.64c.748.015 1.335-.125 1.76-.418.44-.293.792-.785 1.056-1.474L151.527 329h3.014l2.948 7.392 2.442-7.392zm13.761 0v11h-2.838v-8.338h-4.378V340h-2.838v-11h10.054zm9.862 0h2.112v11h-2.772v-6.248l-5.17 6.248h-2.112v-11h2.772v6.248l5.17-6.248zm12.701 0v2.728h-3.432V340h-2.838v-8.272h-3.476V329h9.746zm5.807 3.52c1.247 0 2.252.345 3.014 1.034.763.675 1.144 1.577 1.144 2.706s-.381 2.039-1.144 2.728c-.762.675-1.767 1.012-3.014 1.012h-4.972v-11h2.838v3.52h2.134zm.022 4.972c.396 0 .719-.11.968-.33.264-.235.396-.535.396-.902s-.132-.667-.396-.902c-.249-.235-.572-.352-.968-.352h-2.156v2.486h2.156z" fill="#fff"/><path d="M108.268 235.054c12.17 0 19.815-6.366 19.764-16.517.051-9.665-7.338-16.901-19.764-16.901H87.8131v24.546h-7.4403v8.872h7.4403v3.375h-7.4403v8.872h7.4403V254h10.9943v-6.699h11.4286v-8.872H98.8074v-3.375h9.4606zm-9.4606-8.872v-15.546h9.4606c5.855 0 8.718 3.529 8.693 8.029.025 4.602-2.787 7.517-9 7.517h-9.1536zm53.3006-25.262c-11.711-.051-19.611 7.62-19.56 18.154.026 9.767 6.801 16.849 16.082 16.849 5.753 0 10.867-2.787 13.194-7.389h.358c-.026 10.381-3.631 16.696-10.458 16.696-4.014 0-6.903-2.199-7.747-6.008h-10.918c1.023 8.821 8.182 15.494 18.665 15.494 12.963 0 21.324-10.483 21.298-28.253-.025-18.972-10.15-25.491-20.914-25.543zm.076 8.694c5.088 0 8.847 4.142 8.898 9.127.026 5.012-3.937 9.154-9 9.154-5.114 0-8.77-3.989-8.795-9.128-.051-5.114 3.758-9.153 8.897-9.153zm45.675-8.694c-11.71-.051-19.611 7.62-19.56 18.154.026 9.767 6.801 16.849 16.083 16.849 5.753 0 10.866-2.787 13.193-7.389h.358c-.026 10.381-3.631 16.696-10.458 16.696-4.014 0-6.903-2.199-7.747-6.008h-10.917c1.022 8.821 8.181 15.494 18.664 15.494 12.963 0 21.324-10.483 21.299-28.253-.026-18.972-10.151-25.491-20.915-25.543zm.077 8.694c5.088 0 8.846 4.142 8.897 9.127.026 5.012-3.937 9.154-9 9.154-5.113 0-8.77-3.989-8.795-9.128-.051-5.114 3.758-9.153 8.898-9.153zm45.674-8.694c-11.71-.051-19.611 7.62-19.559 18.154.025 9.767 6.801 16.849 16.082 16.849 5.753 0 10.866-2.787 13.193-7.389h.358c-.026 10.381-3.631 16.696-10.457 16.696-4.015 0-6.904-2.199-7.747-6.008h-10.918c1.023 8.821 8.182 15.494 18.665 15.494 12.963 0 21.324-10.483 21.298-28.253-.026-18.972-10.151-25.491-20.915-25.543zm.077 8.694c5.088 0 8.846 4.142 8.898 9.127.025 5.012-3.938 9.154-9 9.154-5.114 0-8.77-3.989-8.796-9.128-.051-5.114 3.759-9.153 8.898-9.153z" fill="#3D3D3D"/></svg>