<svg width="345" height="375" viewBox="0 0 345 375" fill="none" xmlns="http://www.w3.org/2000/svg"><rect width="345" height="375" rx="25" fill="#fff"/><path d="M41.51 55l-1.428-4.284h-9.486L29.168 55h-5.066l8.33-23.8h5.814L46.61 55h-5.1zm-9.418-8.67h6.528l-3.264-9.724-3.264 9.724zm19.4809-10.506v-3.808h9.86v3.808h-9.86zM60.9909 38h3.264v17h-4.284v-9.656L51.9809 55h-3.264V38h4.284v9.656l7.99-9.656zm22.5827 12.886h2.244v8.67h-4.284V55h-10.54v4.556h-4.284v-8.67h2.074c.9746-1.4507 1.462-3.4567 1.462-6.018V38h13.328v12.886zm-10.098 0h5.814v-8.942h-4.76v2.924c0 2.4027-.3514 4.4087-1.054 6.018zm18.1602-2.584c.5894 2.1307 2.1874 3.196 4.794 3.196 1.6774 0 2.9467-.5667 3.8082-1.7l3.536 2.04c-1.678 2.4253-4.1482 3.638-7.4122 3.638-2.8106 0-5.066-.85-6.766-2.55-1.7-1.7-2.55-3.842-2.55-6.426 0-2.5613.8387-4.692 2.516-6.392 1.6774-1.7227 3.8307-2.584 6.46-2.584 2.4934 0 4.5442.8613 6.1542 2.584 1.632 1.7227 2.448 3.8533 2.448 6.392 0 .5667-.057 1.1673-.17 1.802H91.6358zm-.068-3.4h8.6702c-.2495-1.156-.7708-2.0173-1.5642-2.584-.7706-.5667-1.6546-.85-2.652-.85-1.1786 0-2.1533.306-2.924.918-.7706.5893-1.2806 1.428-1.53 2.516zM118.838 38h4.386v17h-4.386v-6.46h-6.766V55h-4.386V38h4.386v6.426h6.766V38zm21.8 0v4.216h-5.304V55h-4.386V42.216h-5.372V38h15.062zm14.617 0h3.264v17h-4.284v-9.656L146.245 55h-3.264V38h4.284v9.656l7.99-9.656zm22.956 17h-5.1l-6.188-7.718V55h-4.386V38h4.386v7.48l5.848-7.48h5.236l-6.834 8.398L178.211 55zm13.881-17h4.386v17h-4.386v-2.006c-1.315 1.6547-3.162 2.482-5.542 2.482-2.267 0-4.216-.8613-5.848-2.584-1.609-1.7453-2.414-3.876-2.414-6.392 0-2.516.805-4.6353 2.414-6.358 1.632-1.7453 3.581-2.618 5.848-2.618 2.38 0 4.227.8273 5.542 2.482V38zM184 49.968c.884.884 2.006 1.326 3.366 1.326 1.36 0 2.482-.442 3.366-1.326.907-.9067 1.36-2.0627 1.36-3.468s-.453-2.55-1.36-3.434c-.884-.9067-2.006-1.36-3.366-1.36-1.36 0-2.482.4533-3.366 1.36-.884.884-1.326 2.0287-1.326 3.434s.442 2.5613 1.326 3.468zM20.7614 108h1.7613v-5.312h3.1818c3.3878 0 4.9148-2.06 4.9148-4.6312 0-2.571-1.527-4.6023-4.9432-4.6023h-4.9147V108zm1.7613-6.875v-6.108h3.0966c2.3651 0 3.2671 1.2927 3.2671 3.0398 0 1.7472-.902 3.0682-3.2387 3.0682h-3.125zm13.4469 7.131c1.9034 0 2.8978-1.023 3.2387-1.733h.0852V108h1.6761v-7.188c0-3.4654-2.642-3.8631-4.0341-3.8631-1.6477 0-3.5227.5681-4.375 2.5568l1.5909.5683c.3694-.7956 1.2429-1.6479 2.841-1.6479 1.5412 0 2.3011.8168 2.3011 2.2159v.057c0 .81-.8239.739-2.8125.994-2.0242.263-4.233.71-4.233 3.21 0 2.131 1.6478 3.353 3.7216 3.353zm.2557-1.506c-1.3352 0-2.3011-.597-2.3011-1.761 0-1.279 1.1647-1.677 2.4716-1.847.7102-.085 2.6136-.284 2.8977-.625v1.534c0 1.364-1.0796 2.699-3.0682 2.699zm6.6518-1.534c.0568 1.79 1.7685 3.011 4.0909 3.011 2.3864 0 4.1193-1.278 4.1193-3.267 0-1.363-.8167-2.471-2.0454-2.557v-.113c1.0369-.32 1.8182-1.073 1.8182-2.3014 0-1.7258-1.4773-3.0397-3.7784-3.0397-2.2728 0-3.8921 1.25-3.9489 3.0113h1.7614c.0497-.902.9943-1.5341 2.2727-1.5341 1.2713 0 1.9886.6463 1.9886 1.6189 0 .91-.625 1.591-1.9602 1.591h-1.875v1.506h1.875c1.3352 0 2.1875.732 2.1875 1.818 0 1.243-1.1009 1.762-2.4432 1.762-1.3139 0-2.1946-.519-2.2727-1.506h-1.7898zm10.0946 6.875h1.6762v-5.767h.142c.3693.596 1.0796 1.903 3.1818 1.903 2.7273 0 4.6307-2.187 4.6307-5.653 0-3.4376-1.9034-5.6251-4.6591-5.6251-2.1306 0-2.7841 1.3068-3.1534 1.875h-.1988v-1.733h-1.6194v15.0001zm1.6478-9.546c0-2.443 1.0795-4.0905 3.125-4.0905 2.1307 0 3.1818 1.7895 3.1818 4.0905 0 2.33-1.0796 4.177-3.1818 4.177-2.0171 0-3.125-1.705-3.125-4.177zm13.28 5.711c1.9034 0 2.8977-1.023 3.2386-1.733h.0852V108h1.6762v-7.188c0-3.4654-2.6421-3.8631-4.0341-3.8631-1.6477 0-3.5227.5681-4.375 2.5568l1.5909.5683c.3693-.7956 1.2429-1.6479 2.8409-1.6479 1.5412 0 2.3011.8168 2.3011 2.2159v.057c0 .81-.8238.739-2.8125.994-2.0241.263-4.2329.71-4.2329 3.21 0 2.131 1.6477 3.353 3.7216 3.353zm.2557-1.506c-1.3353 0-2.3012-.597-2.3012-1.761 0-1.279 1.1648-1.677 2.4716-1.847.7102-.085 2.6136-.284 2.8977-.625v1.534c0 1.364-1.0795 2.699-3.0681 2.699zM83.5854 93c-.5327.4474-1.3282.4474-2.4432.4403-.3622 0-.76 0-1.1932.0142-3.3239.0853-4.9716 2.6137-4.9716 7.4715v1.165c0 4.034 1.9602 6.136 4.8864 6.136 2.919 0 4.8579-2.116 4.8579-5.539 0-3.438-1.9673-5.2562-4.517-5.2562-1.4986 0-2.8977.625-3.6364 1.9887h-.142c.2273-2.8125 1.2784-4.3182 3.5511-4.4035 2.0171-.0852 3.4659-.0284 4.4602-.9943L83.5854 93zm-3.7216 13.722c-1.9887 0-3.2102-1.591-3.2102-4.034.0355-2.387 1.2357-3.7505 3.1818-3.7505 1.9957 0 3.2102 1.3635 3.2102 3.7505 0 2.457-1.2074 4.034-3.1818 4.034zm11.3837 1.505c2.9545 0 4.9432-2.244 4.9432-5.625 0-3.4088-1.9887-5.6531-4.9432-5.6531-2.9546 0-4.9432 2.2443-4.9432 5.6531 0 3.381 1.9886 5.625 4.9432 5.625zm0-1.505c-2.2443 0-3.2671-1.932-3.2671-4.12 0-2.187 1.0228-4.1475 3.2671-4.1475s3.267 1.9605 3.267 4.1475c0 2.188-1.0227 4.12-3.267 4.12zm5.606-8.0686h3.6075V108h1.677v-9.3466h3.579v-1.5625h-8.8635v1.5625zM107.692 108h1.676v-4.602h1.506l3.579 4.602h2.16l-4.461-5.653 4.404-5.2561h-2.159l-3.921 4.7441h-1.108v-4.7441h-1.676V108zm13.482.256c1.904 0 2.898-1.023 3.239-1.733h.085V108h1.676v-7.188c0-3.4654-2.642-3.8631-4.034-3.8631-1.647 0-3.522.5681-4.375 2.5568l1.591.5683c.37-.7956 1.243-1.6479 2.841-1.6479 1.541 0 2.301.8168 2.301 2.2159v.057c0 .81-.824.739-2.812.994-2.024.263-4.233.71-4.233 3.21 0 2.131 1.648 3.353 3.721 3.353zm.256-1.506c-1.335 0-2.301-.597-2.301-1.761 0-1.279 1.165-1.677 2.472-1.847.71-.085 2.613-.284 2.897-.625v1.534c0 1.364-1.079 2.699-3.068 2.699zm15.699 1.506c1.903 0 2.898-1.023 3.239-1.733h.085V108h1.676v-7.188c0-3.4654-2.642-3.8631-4.034-3.8631-1.648 0-3.523.5681-4.375 2.5568l1.591.5683c.369-.7956 1.243-1.6479 2.841-1.6479 1.541 0 2.301.8168 2.301 2.2159v.057c0 .81-.824.739-2.813.994-2.024.263-4.233.71-4.233 3.21 0 2.131 1.648 3.353 3.722 3.353zm.256-1.506c-1.336 0-2.301-.597-2.301-1.761 0-1.279 1.164-1.677 2.471-1.847.71-.085 2.614-.284 2.898-.625v1.534c0 1.364-1.08 2.699-3.068 2.699zm9.009-1.222v-8.4371h-1.676V108h1.961l5.227-8.4375V108h1.676V97.0909h-1.932l-5.256 8.4371zm4.148-12.0735c0 .7387-.398 1.3921-1.392 1.3921-.994 0-1.364-.6534-1.364-1.3921h-1.562c0 1.5341 1.136 2.6137 2.926 2.6137 1.818 0 2.955-1.0796 2.955-2.6137h-1.563zm4.475 17.6705h1.676V108h8.068v3.125h1.677v-4.687h-1.677v-9.3471h-6.931l-.37 4.3181c-.262 3.054-.653 4.105-1.534 5.029h-.909v4.687zm2.813-4.687c.767-1.009 1.044-2.749 1.278-5.029l.284-2.7556h3.693v7.7846h-5.255zm14.936 1.789c2.216 0 3.835-1.108 4.347-2.755l-1.619-.455c-.427 1.136-1.414 1.705-2.728 1.705-1.967 0-3.324-1.272-3.402-3.608h7.919v-.711c0-4.0621-2.414-5.4541-4.687-5.4541-2.955 0-4.915 2.3295-4.915 5.6821 0 3.352 1.932 5.596 5.085 5.596zm-3.402-6.562c.114-1.6977 1.314-3.2105 3.232-3.2105 1.818 0 2.983 1.3637 2.983 3.2105h-6.215zm11.675-4.5741h-1.676V108h1.676v-4.659h5.227V108h1.677V97.0909h-1.677v4.6871h-5.227v-4.6871zm8.01 1.5625h3.608V108h1.676v-9.3466h3.58v-1.5625h-8.864v1.5625zm12.515 6.8746v-8.4371h-1.676V108h1.96l5.227-8.4375V108h1.676V97.0909h-1.931l-5.256 8.4371zm9.787 2.472h1.677v-4.602h1.505l3.58 4.602h2.159l-4.46-5.653 4.403-5.2561h-2.159l-3.92 4.7441h-1.108v-4.7441h-1.677V108zm11.949-2.472v-8.4371h-1.676V108h1.96l5.227-8.4375V108h1.676V97.0909h-1.932l-5.255 8.4371zm13.777 5.597h1.677V108h8.068v3.125h1.676v-4.687h-1.676v-9.3471h-6.932l-.369 4.3181c-.263 3.054-.654 4.105-1.534 5.029h-.91v4.687zm2.813-4.687c.767-1.009 1.044-2.749 1.278-5.029l.284-2.7556h3.694v7.7846h-5.256zm9.397 1.562h.568c2.415 0 3.111-1.875 3.267-5.455l.17-3.8916h4.006V108h1.676V97.0909h-7.272l-.199 4.8291c-.142 3.665-.512 4.518-1.818 4.518h-.398V108zm18.855 0h1.591V97.0909h-4.489c-2.351 0-3.778 1.2287-3.778 3.2391 0 1.498.753 2.563 2.067 3.011L260.869 108h1.819l2.528-4.432h2.926V108zm0-5.994h-3.097c-1.186 0-1.903-.632-1.903-1.676 0-1.0587.796-1.705 2.102-1.705h2.898v3.381zM20.5341 132h5.142c2.2159 0 3.5512-1.25 3.5512-2.926 0-1.712-1.2997-2.635-2.5-2.813 1.2287-.255 2.1022-.944 2.1022-2.272 0-1.74-1.4914-2.898-3.8352-2.898h-4.4602V132zm1.5909-1.534v-3.352h3.5511c1.1506 0 1.8466.689 1.8466 1.818 0 .952-.696 1.534-1.8466 1.534H22.125zm0-4.801v-3.04h2.8693c1.3423 0 2.1591.561 2.1591 1.477 0 .973-.8168 1.563-2.1591 1.563H22.125zm12.3798 6.591c1.9034 0 2.8977-1.023 3.2386-1.733h.0853V132h1.6761v-7.188c0-3.465-2.6421-3.863-4.0341-3.863-1.6477 0-3.5227.568-4.375 2.557l1.5909.568c.3693-.796 1.2429-1.648 2.8409-1.648 1.5412 0 2.3012.817 2.3012 2.216v.057c0 .81-.8239.739-2.8125.994-2.0242.263-4.233.71-4.233 3.21 0 2.131 1.6477 3.353 3.7216 3.353zm.2557-1.506c-1.3353 0-2.3012-.597-2.3012-1.761 0-1.279 1.1648-1.677 2.4716-1.847.7103-.085 2.6137-.284 2.8978-.625v1.534c0 1.364-1.0796 2.699-3.0682 2.699zm7.3336-9.659V132h13.267v-10.909H53.685v9.347h-4.1193v-9.347h-1.6762v9.347h-4.1193v-9.347h-1.6761zm20.432 11.136c2.2159 0 3.8352-1.108 4.3466-2.755l-1.6193-.455c-.4262 1.136-1.4134 1.705-2.7273 1.705-1.9673 0-3.3239-1.272-3.402-3.608h7.919v-.711c0-4.062-2.4147-5.454-4.6875-5.454-2.9545 0-4.9147 2.329-4.9147 5.682 0 3.352 1.9318 5.596 5.0852 5.596zm-3.402-6.562c.1136-1.698 1.3139-3.21 3.2315-3.21 1.8182 0 2.983 1.363 2.983 3.21h-6.2145zm16.7317-4.574h-6.733V132h1.6762v-9.347h5.0568v-1.562zm5.8421 11.136c2.9546 0 4.9432-2.244 4.9432-5.625 0-3.409-1.9886-5.653-4.9432-5.653-2.9545 0-4.9431 2.244-4.9431 5.653 0 3.381 1.9886 5.625 4.9431 5.625zm0-1.505c-2.2443 0-3.267-1.932-3.267-4.12 0-2.187 1.0227-4.147 3.267-4.147 2.2444 0 3.2671 1.96 3.2671 4.147 0 2.188-1.0227 4.12-3.2671 4.12zM101.981 117c-.532.447-1.328.447-2.4429.44-.3622 0-.7599 0-1.1932.015-3.3238.085-4.9715 2.613-4.9715 7.471v1.165c0 4.034 1.9602 6.136 4.8863 6.136 2.9193 0 4.8583-2.116 4.8583-5.539 0-3.438-1.968-5.256-4.5174-5.256-1.4986 0-2.8977.625-3.6363 1.988h-.1421c.2273-2.812 1.2784-4.318 3.5512-4.403 2.0166-.085 3.4656-.028 4.4606-.994l-.853-1.023zm-3.7213 13.722c-1.9886 0-3.2102-1.591-3.2102-4.034.0355-2.387 1.2358-3.75 3.1818-3.75 1.9957 0 3.2107 1.363 3.2107 3.75 0 2.457-1.208 4.034-3.1823 4.034zm8.6283-1.194v-8.437h-1.676V132h1.96l5.227-8.438V132h1.676v-10.909h-1.932l-5.255 8.437zm9.105-.312c.057 1.79 1.769 3.011 4.091 3.011 2.387 0 4.12-1.278 4.12-3.267 0-1.363-.817-2.471-2.046-2.557v-.113c1.037-.32 1.818-1.073 1.818-2.301 0-1.726-1.477-3.04-3.778-3.04-2.273 0-3.892 1.25-3.949 3.011h1.761c.05-.902.995-1.534 2.273-1.534 1.271 0 1.989.646 1.989 1.619 0 .91-.625 1.591-1.96 1.591h-1.875v1.506h1.875c1.335 0 2.187.732 2.187 1.818 0 1.243-1.101 1.762-2.443 1.762-1.314 0-2.195-.519-2.273-1.506h-1.79zm11.771-8.125h-1.676V132h1.676v-4.659h5.227V132h1.677v-10.909h-1.677v4.687h-5.227v-4.687zm14.068 11.136c2.216 0 3.836-1.108 4.347-2.755l-1.619-.455c-.426 1.136-1.414 1.705-2.728 1.705-1.967 0-3.323-1.272-3.402-3.608h7.92v-.711c0-4.062-2.415-5.454-4.688-5.454-2.955 0-4.915 2.329-4.915 5.682 0 3.352 1.932 5.596 5.085 5.596zm-3.402-6.562c.114-1.698 1.314-3.21 3.232-3.21 1.818 0 2.983 1.363 2.983 3.21h-6.215zm14.431 6.562c2.415 0 4.006-1.477 4.29-3.409h-1.676c-.313 1.193-1.307 1.904-2.614 1.904-1.989 0-3.267-1.648-3.267-4.177 0-2.471 1.307-4.09 3.267-4.09 1.477 0 2.358.909 2.614 1.903h1.676c-.284-2.046-2.017-3.409-4.318-3.409-2.955 0-4.915 2.329-4.915 5.653 0 3.267 1.875 5.625 4.943 5.625zm9.48.029c1.904 0 2.898-1.023 3.239-1.733h.085V132h1.676v-7.188c0-3.465-2.642-3.863-4.034-3.863-1.647 0-3.522.568-4.375 2.557l1.591.568c.369-.796 1.243-1.648 2.841-1.648 1.541 0 2.301.817 2.301 2.216v.057c0 .81-.824.739-2.812.994-2.024.263-4.233.71-4.233 3.21 0 2.131 1.647 3.353 3.721 3.353zm.256-1.506c-1.335 0-2.301-.597-2.301-1.761 0-1.279 1.165-1.677 2.471-1.847.711-.085 2.614-.284 2.898-.625v1.534c0 1.364-1.079 2.699-3.068 2.699z" fill="#3D3D3D"/><rect x="99" y="304" width="148" height="56" rx="8" fill="#3385FF"/><path d="M152.758 340h-3.498l-5.5-7.216V340h-3.036v-15.4h3.036v6.798l5.28-6.798h3.498l-5.698 7.48 5.918 7.92zm7.173-11h3.036l-4.004 11c-1.114 3.095-3.05 4.561-5.808 4.4v-2.64c.748.015 1.335-.125 1.76-.418.44-.293.792-.785 1.056-1.474L151.527 329h3.014l2.948 7.392 2.442-7.392zm13.761 0v11h-2.838v-8.338h-4.378V340h-2.838v-11h10.054zm9.862 0h2.112v11h-2.772v-6.248l-5.17 6.248h-2.112v-11h2.772v6.248l5.17-6.248zm12.701 0v2.728h-3.432V340h-2.838v-8.272h-3.476V329h9.746zm5.807 3.52c1.247 0 2.252.345 3.014 1.034.763.675 1.144 1.577 1.144 2.706s-.381 2.039-1.144 2.728c-.762.675-1.767 1.012-3.014 1.012h-4.972v-11h2.838v3.52h2.134zm.022 4.972c.396 0 .719-.11.968-.33.264-.235.396-.535.396-.902s-.132-.667-.396-.902c-.249-.235-.572-.352-.968-.352h-2.156v2.486h2.156z" fill="#fff"/><path d="M92.6342 235.054c12.1708 0 19.8158-6.366 19.7638-16.517.052-9.665-7.338-16.901-19.7638-16.901H72.1797v24.546h-7.4404v8.872h7.4404v3.375h-7.4404v8.872h7.4404V254H83.174v-6.699h11.429v-8.872H83.174v-3.375h9.4602zm-9.4602-8.872v-15.546h9.4602c5.8551 0 8.7188 3.529 8.6928 8.029.026 4.602-2.7865 7.517-8.9996 7.517H83.174zm57.135-24.546h-10.406l-12.963 8.208v9.818l11.992-7.517h.306V254h11.071v-52.364zM150.975 254h37.329v-9.051h-21.988v-.358l7.645-7.492c10.764-9.818 13.653-14.727 13.653-20.684 0-9.077-7.415-15.495-18.639-15.495-10.995 0-18.537 6.571-18.512 16.85h10.509c-.026-5.011 3.145-8.08 7.926-8.08 4.602 0 8.028 2.864 8.028 7.466 0 4.168-2.556 7.032-7.312 11.608l-18.639 17.259V254zm62.517-53.08c-11.71-.051-19.61 7.62-19.559 18.154.025 9.767 6.801 16.849 16.082 16.849 5.753 0 10.867-2.787 13.193-7.389h.358c-.025 10.381-3.63 16.696-10.457 16.696-4.014 0-6.904-2.199-7.747-6.008h-10.918c1.023 8.821 8.182 15.494 18.665 15.494 12.963 0 21.324-10.483 21.298-28.253-.025-18.972-10.15-25.491-20.915-25.543zm.077 8.694c5.088 0 8.847 4.142 8.898 9.127.025 5.012-3.938 9.154-9 9.154-5.114 0-8.77-3.989-8.796-9.128-.051-5.114 3.759-9.153 8.898-9.153zm45.675-8.694c-11.711-.051-19.611 7.62-19.56 18.154.026 9.767 6.801 16.849 16.082 16.849 5.753 0 10.867-2.787 13.194-7.389h.357c-.025 10.381-3.63 16.696-10.457 16.696-4.014 0-6.903-2.199-7.747-6.008h-10.918c1.023 8.821 8.182 15.494 18.665 15.494 12.963 0 21.324-10.483 21.298-28.253-.025-18.972-10.15-25.491-20.914-25.543zm.076 8.694c5.088 0 8.847 4.142 8.898 9.127.026 5.012-3.937 9.154-9 9.154-5.114 0-8.77-3.989-8.795-9.128-.052-5.114 3.758-9.153 8.897-9.153z" fill="#3D3D3D"/></svg>