<svg width="345" height="375" viewBox="0 0 345 375" fill="none" xmlns="http://www.w3.org/2000/svg"><rect width="345" height="375" rx="25" fill="#fff"/><path d="M41.51 55l-1.428-4.284h-9.486L29.168 55h-5.066l8.33-23.8h5.814L46.61 55h-5.1zm-9.418-8.67h6.528l-3.264-9.724-3.264 9.724zM48.9209 31.2h4.692V55h-4.692V31.2zM64.6826 55v-4.352c1.4053.204 2.4593-.0793 3.162-.85.7027-.7707 1.054-2.278 1.054-4.522V31.2h16.184V55h-4.658V35.688h-6.868v9.452c0 2.0627-.2493 3.7967-.748 5.202-.4987 1.4053-1.19 2.448-2.074 3.128-.8613.68-1.7907 1.1333-2.788 1.36-.9747.2267-2.0627.2833-3.264.17zm39.0924-2.108c-1.745 1.7227-3.8758 2.584-6.3918 2.584s-4.6467-.8613-6.392-2.584c-1.7227-1.7453-2.584-3.876-2.584-6.392 0-2.516.8613-4.6353 2.584-6.358 1.7453-1.7453 3.876-2.618 6.392-2.618 2.516 0 4.6468.8727 6.3918 2.618 1.745 1.7227 2.618 3.842 2.618 6.358 0 2.516-.873 4.6467-2.618 6.392zm-9.6898-3.026c.884.884 1.9833 1.326 3.298 1.326 1.3146 0 2.414-.442 3.2978-1.326.884-.884 1.326-2.006 1.326-3.366 0-1.36-.442-2.482-1.326-3.366-.8838-.884-1.9832-1.326-3.2978-1.326-1.3147 0-2.414.442-3.298 1.326-.8614.884-1.292 2.006-1.292 3.366 0 1.36.4306 2.482 1.292 3.366zM121.107 38v4.216h-7.242V55h-4.386V38h11.628zm16.17 14.892c-1.745 1.7227-3.876 2.584-6.392 2.584-2.516 0-4.647-.8613-6.392-2.584-1.723-1.7453-2.584-3.876-2.584-6.392 0-2.516.861-4.6353 2.584-6.358 1.745-1.7453 3.876-2.618 6.392-2.618 2.516 0 4.647.8727 6.392 2.618 1.745 1.7227 2.618 3.842 2.618 6.358 0 2.516-.873 4.6467-2.618 6.392zm-9.69-3.026c.884.884 1.983 1.326 3.298 1.326s2.414-.442 3.298-1.326c.884-.884 1.326-2.006 1.326-3.366 0-1.36-.442-2.482-1.326-3.366-.884-.884-1.983-1.326-3.298-1.326s-2.414.442-3.298 1.326c-.861.884-1.292 2.006-1.292 3.366 0 1.36.431 2.482 1.292 3.366zM155.713 38v4.216h-5.304V55h-4.386V42.216h-5.372V38h15.062zm14.616 0h3.264v17h-4.284v-9.656L161.319 55h-3.264V38h4.284v9.656l7.99-9.656zm22.82 0v17h-4.386V42.114h-6.766V55h-4.386V38h15.538z" fill="#3D3D3D"/><path d="M293 30c0-5.5228 4.477-10 10-10h14c5.523 0 10 4.4772 10 10v15c0 5.5228-4.477 10-10 10h-14c-5.523 0-10-4.4772-10-10V30z" fill="url(#paint0_linear)"/><path d="M311.596 43l-.672-2.016h-4.464L305.788 43h-2.384l3.92-11.2h2.736l3.936 11.2h-2.4zm-4.432-4.08h3.072l-1.536-4.576-1.536 4.576zm7.239-7.12h2.208V43h-2.208V31.8z" fill="#fff"/><path d="M20.7614 108h1.7613v-6.506h7.7557V108h1.7614V93.4545h-1.7614v6.4773h-7.7557v-6.4773h-1.7613V108zm18.6812.227c2.216 0 3.8353-1.108 4.3466-2.755l-1.6193-.455c-.4261 1.136-1.4133 1.705-2.7273 1.705-1.9673 0-3.3238-1.272-3.4019-3.608h7.919v-.711c0-4.0621-2.4148-5.4541-4.6875-5.4541-2.9546 0-4.9148 2.3295-4.9148 5.6821 0 3.352 1.9318 5.596 5.0852 5.596zm-3.4019-6.562c.1136-1.6977 1.3139-3.2105 3.2315-3.2105 1.8182 0 2.9829 1.3637 2.9829 3.2105h-6.2144zm11.6748 3.863v-8.4371h-1.6761V108h1.9602l5.2273-8.4375V108h1.6761V97.0909h-1.9318l-5.2557 8.4371zm4.1478-12.0735c0 .7387-.3978 1.3921-1.3921 1.3921s-1.3636-.6534-1.3636-1.3921h-1.5625c0 1.5341 1.1363 2.6137 2.9261 2.6137 1.8182 0 2.9546-1.0796 2.9546-2.6137h-1.5625zm5.6397 18.6365h1.6761v-5.767h.1421c.3693.596 1.0795 1.903 3.1818 1.903 2.7273 0 4.6307-2.187 4.6307-5.653 0-3.4376-1.9034-5.6251-4.6591-5.6251-2.1307 0-2.7841 1.3068-3.1534 1.875h-.1989v-1.733H57.503v15.0001zm1.6477-9.546c0-2.443 1.0796-4.0905 3.125-4.0905 2.1307 0 3.1818 1.7895 3.1818 4.0905 0 2.33-1.0795 4.177-3.1818 4.177-2.017 0-3.125-1.705-3.125-4.177zm14.5016 5.682c2.9546 0 4.9432-2.244 4.9432-5.625 0-3.4088-1.9886-5.6531-4.9432-5.6531-2.9545 0-4.9432 2.2443-4.9432 5.6531 0 3.381 1.9887 5.625 4.9432 5.625zm0-1.505c-2.2443 0-3.267-1.932-3.267-4.12 0-2.187 1.0227-4.1475 3.267-4.1475s3.2671 1.9605 3.2671 4.1475c0 2.188-1.0228 4.12-3.2671 4.12zm11.4636 1.505c2.4148 0 4.0057-1.477 4.2898-3.409h-1.6762c-.3125 1.193-1.3068 1.904-2.6136 1.904-1.9886 0-3.267-1.648-3.267-4.177 0-2.471 1.3068-4.0905 3.267-4.0905 1.4773 0 2.358.9091 2.6136 1.9035h1.6762c-.2841-2.0455-2.0171-3.4091-4.3182-3.4091-2.9545 0-4.9148 2.3295-4.9148 5.6531 0 3.267 1.875 5.625 4.9432 5.625zm10.8439 0c2.2159 0 3.8353-1.108 4.3462-2.755l-1.6189-.455c-.4261 1.136-1.4133 1.705-2.7273 1.705-1.9673 0-3.3238-1.272-3.402-3.608h7.9192v-.711c0-4.0621-2.4149-5.4541-4.6876-5.4541-2.9546 0-4.9148 2.3295-4.9148 5.6821 0 3.352 1.9318 5.596 5.0852 5.596zm-3.402-6.562c.1137-1.6977 1.314-3.2105 3.2316-3.2105 1.8182 0 2.9829 1.3637 2.9829 3.2105h-6.2145zm8.9832-3.0116h3.608V108h1.676v-9.3466h3.58v-1.5625h-8.864v1.5625zm12.515 2.3866v-3.9491h-1.676V108h4.573c2.557 0 3.949-1.562 3.949-3.523 0-1.988-1.392-3.437-3.949-3.437h-2.897zm0 1.562h2.897c1.329 0 2.273.81 2.273 1.96 0 1.101-.944 1.876-2.273 1.876h-2.897v-3.836zM128.139 108h1.676v-4.602h1.506L134.9 108h2.159l-4.46-5.653 4.403-5.2561h-2.159l-3.92 4.7441h-1.108v-4.7441h-1.676V108zm14.255.227c2.954 0 4.943-2.244 4.943-5.625 0-3.4088-1.989-5.6531-4.943-5.6531-2.955 0-4.944 2.2443-4.944 5.6531 0 3.381 1.989 5.625 4.944 5.625zm0-1.505c-2.245 0-3.267-1.932-3.267-4.12 0-2.187 1.022-4.1475 3.267-4.1475 2.244 0 3.267 1.9605 3.267 4.1475 0 2.188-1.023 4.12-3.267 4.12zM148 98.6534h3.608V108h1.676v-9.3466h3.579v-1.5625H148v1.5625zm14.704 9.5736c2.954 0 4.943-2.244 4.943-5.625 0-3.4088-1.989-5.6531-4.943-5.6531-2.955 0-4.944 2.2443-4.944 5.6531 0 3.381 1.989 5.625 4.944 5.625zm0-1.505c-2.245 0-3.267-1.932-3.267-4.12 0-2.187 1.022-4.1475 3.267-4.1475 2.244 0 3.267 1.9605 3.267 4.1475 0 2.188-1.023 4.12-3.267 4.12zm7.031 5.369h1.676v-5.767h.143c.369.596 1.079 1.903 3.181 1.903 2.728 0 4.631-2.187 4.631-5.653 0-3.4376-1.903-5.6251-4.659-5.6251-2.131 0-2.784 1.3068-3.153 1.875h-.199v-1.733h-1.62v15.0001zm1.648-9.546c0-2.443 1.08-4.0905 3.125-4.0905 2.131 0 3.182 1.7895 3.182 4.0905 0 2.33-1.08 4.177-3.182 4.177-2.017 0-3.125-1.705-3.125-4.177zm13.28 5.711c1.903 0 2.898-1.023 3.239-1.733h.085V108h1.676v-7.188c0-3.4654-2.642-3.8631-4.034-3.8631-1.648 0-3.523.5681-4.375 2.5568l1.591.5683c.369-.7956 1.243-1.6479 2.841-1.6479 1.541 0 2.301.8168 2.301 2.2159v.057c0 .81-.824.739-2.813.994-2.024.263-4.233.71-4.233 3.21 0 2.131 1.648 3.353 3.722 3.353zm.256-1.506c-1.335 0-2.301-.597-2.301-1.761 0-1.279 1.164-1.677 2.471-1.847.71-.085 2.614-.284 2.898-.625v1.534c0 1.364-1.08 2.699-3.068 2.699zm13.896 1.25h1.591V97.0909h-4.489c-2.351 0-3.778 1.2287-3.778 3.2391 0 1.498.753 2.563 2.066 3.011L191.542 108h1.818l2.529-4.432h2.926V108zm0-5.994h-3.097c-1.186 0-1.903-.632-1.903-1.676 0-1.0587.795-1.705 2.102-1.705h2.898v3.381zm16.086-4.9151h-6.733V108h1.676v-9.3466h5.057v-1.5625zm5.984 11.1361c2.216 0 3.835-1.108 4.347-2.755l-1.62-.455c-.426 1.136-1.413 1.705-2.727 1.705-1.967 0-3.324-1.272-3.402-3.608h7.919v-.711c0-4.0621-2.415-5.4541-4.687-5.4541-2.955 0-4.915 2.3295-4.915 5.6821 0 3.352 1.932 5.596 5.085 5.596zm-3.402-6.562c.114-1.6977 1.314-3.2105 3.232-3.2105 1.818 0 2.982 1.3637 2.982 3.2105h-6.214zm11.675-4.5741h-1.676V108h1.676v-4.659h5.227V108h1.676V97.0909h-1.676v4.6871h-5.227v-4.6871zm14.068 11.1361c2.216 0 3.835-1.108 4.347-2.755l-1.619-.455c-.427 1.136-1.414 1.705-2.728 1.705-1.967 0-3.324-1.272-3.402-3.608h7.919v-.711c0-4.0621-2.414-5.4541-4.687-5.4541-2.955 0-4.915 2.3295-4.915 5.6821 0 3.352 1.932 5.596 5.085 5.596zm-3.402-6.562c.114-1.6977 1.314-3.2105 3.232-3.2105 1.818 0 2.983 1.3637 2.983 3.2105h-6.215zm9.999 10.426h1.676v-5.767h.142c.37.596 1.08 1.903 3.182 1.903 2.727 0 4.631-2.187 4.631-5.653 0-3.4376-1.904-5.6251-4.659-5.6251-2.131 0-2.784 1.3068-3.154 1.875h-.199v-1.733h-1.619v15.0001zm1.648-9.546c0-2.443 1.079-4.0905 3.125-4.0905 2.13 0 3.182 1.7895 3.182 4.0905 0 2.33-1.08 4.177-3.182 4.177-2.017 0-3.125-1.705-3.125-4.177zm11.746 2.983v-8.4371h-1.677V108h1.961l5.227-8.4375V108h1.676V97.0909h-1.932l-5.255 8.4371zm9.787 6.563h1.676v-5.767h.142c.37.596 1.08 1.903 3.182 1.903 2.727 0 4.631-2.187 4.631-5.653 0-3.4376-1.904-5.6251-4.659-5.6251-2.131 0-2.784 1.3068-3.154 1.875h-.199v-1.733h-1.619v15.0001zm1.648-9.546c0-2.443 1.079-4.0905 3.125-4.0905 2.131 0 3.182 1.7895 3.182 4.0905 0 2.33-1.08 4.177-3.182 4.177-2.017 0-3.125-1.705-3.125-4.177zm10.759 9.546c1.512 0 2.578-.803 3.21-2.5l4.645-12.4717-1.833-.0284-3.011 8.6931h-.114l-3.011-8.6931h-1.818l4.034 10.9661-.313.852c-.611 1.662-1.363 1.818-2.585 1.506l-.426 1.477c.17.085.653.199 1.222.199zm13.786-3.864c2.215 0 3.835-1.108 4.346-2.755l-1.619-.455c-.426 1.136-1.414 1.705-2.727 1.705-1.968 0-3.324-1.272-3.402-3.608h7.919v-.711c0-4.0621-2.415-5.4541-4.688-5.4541-2.954 0-4.915 2.3295-4.915 5.6821 0 3.352 1.932 5.596 5.086 5.596zm-3.402-6.562c.113-1.6977 1.313-3.2105 3.231-3.2105 1.818 0 2.983 1.3637 2.983 3.2105h-6.214zm8.983-3.0116h3.608V108h1.676v-9.3466h3.579v-1.5625h-8.863v1.5625zM28.6307 117c-.5327.447-1.3281.447-2.4432.44-.3622 0-.7599 0-1.1932.015-3.3238.085-4.9716 2.613-4.9716 7.471v1.165c0 4.034 1.9603 6.136 4.8864 6.136 2.919 0 4.8579-2.116 4.8579-5.539 0-3.438-1.9673-5.256-4.517-5.256-1.4986 0-2.8977.625-3.6364 1.988h-.142c.2273-2.812 1.2784-4.318 3.5511-4.403 2.0171-.085 3.4659-.028 4.4603-.994L28.6307 117zm-3.7216 13.722c-1.9886 0-3.2102-1.591-3.2102-4.034.0355-2.387 1.2358-3.75 3.1818-3.75 1.9957 0 3.2102 1.363 3.2102 3.75 0 2.457-1.2074 4.034-3.1818 4.034zm11.5257 1.505c2.2159 0 3.8353-1.108 4.3466-2.755l-1.6193-.455c-.4261 1.136-1.4134 1.705-2.7273 1.705-1.9673 0-3.3238-1.272-3.402-3.608h7.9191v-.711c0-4.062-2.4148-5.454-4.6875-5.454-2.9546 0-4.9148 2.329-4.9148 5.682 0 3.352 1.9318 5.596 5.0852 5.596zm-3.402-6.562c.1137-1.698 1.314-3.21 3.2316-3.21 1.8182 0 2.9829 1.363 2.9829 3.21h-6.2145zM43.0316 132h1.6761v-4.602h1.5057L49.793 132h2.159l-4.4602-5.653 4.4034-5.256h-2.1591l-3.9204 4.744h-1.108v-4.744h-1.6761V132zm14.2548.227c2.4148 0 4.0057-1.477 4.2898-3.409H59.9c-.3125 1.193-1.3068 1.904-2.6136 1.904-1.9887 0-3.2671-1.648-3.2671-4.177 0-2.471 1.3069-4.09 3.2671-4.09 1.4773 0 2.3579.909 2.6136 1.903h1.6762c-.2841-2.046-2.0171-3.409-4.3182-3.409-2.9546 0-4.9148 2.329-4.9148 5.653 0 3.267 1.875 5.625 4.9432 5.625zm10.7019 0c2.9545 0 4.9431-2.244 4.9431-5.625 0-3.409-1.9886-5.653-4.9431-5.653-2.9546 0-4.9432 2.244-4.9432 5.653 0 3.381 1.9886 5.625 4.9432 5.625zm0-1.505c-2.2444 0-3.2671-1.932-3.2671-4.12 0-2.187 1.0227-4.147 3.2671-4.147 2.2443 0 3.267 1.96 3.267 4.147 0 2.188-1.0227 4.12-3.267 4.12zm8.7079-9.631H75.02V132h1.6762v-4.659h5.2272V132h1.6762v-10.909h-1.6762v4.687h-5.2272v-4.687zm14.0683 11.136c2.2159 0 3.8352-1.108 4.3466-2.755l-1.6193-.455c-.4261 1.136-1.4134 1.705-2.7273 1.705-1.9673 0-3.3238-1.272-3.402-3.608h7.9191v-.711c0-4.062-2.4148-5.454-4.6875-5.454-2.9546 0-4.9148 2.329-4.9148 5.682 0 3.352 1.9318 5.596 5.0852 5.596zm-3.402-6.562c.1137-1.698 1.3139-3.21 3.2316-3.21 1.8181 0 2.9829 1.363 2.9829 3.21h-6.2145zm18.4075-4.574h-1.676v5.533c-.809.234-1.64.376-2.642.376-1.363 0-2.4146-.767-2.4146-2.443v-3.495h-1.6761v3.495c0 2.67 1.6193 4.005 4.0907 4.005 1.03 0 1.854-.134 2.642-.369V132h1.676v-10.909zm4.282 0h-1.676V132h1.676v-4.659h5.227V132h1.676v-10.909h-1.676v4.687h-5.227v-4.687zm13.926 11.136c2.955 0 4.943-2.244 4.943-5.625 0-3.409-1.988-5.653-4.943-5.653-2.954 0-4.943 2.244-4.943 5.653 0 3.381 1.989 5.625 4.943 5.625zm0-1.505c-2.244 0-3.267-1.932-3.267-4.12 0-2.187 1.023-4.147 3.267-4.147 2.244 0 3.267 1.96 3.267 4.147 0 2.188-1.023 4.12-3.267 4.12zm11.606 1.505c2.216 0 3.835-1.108 4.346-2.755l-1.619-.455c-.426 1.136-1.413 1.705-2.727 1.705-1.968 0-3.324-1.272-3.402-3.608h7.919v-.711c0-4.062-2.415-5.454-4.688-5.454-2.954 0-4.914 2.329-4.914 5.682 0 3.352 1.931 5.596 5.085 5.596zm-3.402-6.562c.113-1.698 1.314-3.21 3.231-3.21 1.818 0 2.983 1.363 2.983 3.21h-6.214zM147.335 132h1.677v-4.602h1.505l3.58 4.602h2.159l-4.46-5.653 4.403-5.256h-2.159l-3.92 4.744h-1.108v-4.744h-1.677V132zm14.255.227c2.955 0 4.943-2.244 4.943-5.625 0-3.409-1.988-5.653-4.943-5.653-2.954 0-4.943 2.244-4.943 5.653 0 3.381 1.989 5.625 4.943 5.625zm0-1.505c-2.244 0-3.267-1.932-3.267-4.12 0-2.187 1.023-4.147 3.267-4.147 2.245 0 3.267 1.96 3.267 4.147 0 2.188-1.022 4.12-3.267 4.12zm6.066 1.278h.568c2.415 0 3.111-1.875 3.267-5.455l.171-3.892h4.006V132h1.676v-10.909h-7.273l-.199 4.829c-.142 3.665-.511 4.518-1.818 4.518h-.398V132zm13.969-2.472v-8.437h-1.676V132h1.96l5.227-8.438V132h1.677v-10.909h-1.932l-5.256 8.437zm18.197-8.437h-1.677v5.533c-.809.234-1.64.376-2.642.376-1.363 0-2.414-.767-2.414-2.443v-3.495h-1.676v3.495c0 2.67 1.619 4.005 4.09 4.005 1.03 0 1.854-.134 2.642-.369V132h1.677v-10.909zm7.179 11.136c2.216 0 3.835-1.108 4.346-2.755l-1.619-.455c-.426 1.136-1.413 1.705-2.727 1.705-1.968 0-3.324-1.272-3.402-3.608h7.919v-.711c0-4.062-2.415-5.454-4.688-5.454-2.954 0-4.914 2.329-4.914 5.682 0 3.352 1.931 5.596 5.085 5.596zm-3.402-6.562c.113-1.698 1.314-3.21 3.231-3.21 1.818 0 2.983 1.363 2.983 3.21h-6.214zm14.43 6.562c2.415 0 4.006-1.477 4.29-3.409h-1.676c-.313 1.193-1.307 1.904-2.614 1.904-1.988 0-3.267-1.648-3.267-4.177 0-2.471 1.307-4.09 3.267-4.09 1.478 0 2.358.909 2.614 1.903h1.676c-.284-2.046-2.017-3.409-4.318-3.409-2.955 0-4.915 2.329-4.915 5.653 0 3.267 1.875 5.625 4.943 5.625zm5.411-9.574h3.608V132h1.676v-9.347h3.58v-1.562h-8.864v1.562zM234.279 132h5.142c2.216 0 3.551-1.25 3.551-2.926 0-1.712-1.3-2.635-2.5-2.813 1.229-.255 2.102-.944 2.102-2.272 0-1.74-1.491-2.898-3.835-2.898h-4.46V132zm1.591-1.534v-3.352h3.551c1.15 0 1.846.689 1.846 1.818 0 .952-.696 1.534-1.846 1.534h-3.551zm0-4.801v-3.04h2.869c1.342 0 2.159.561 2.159 1.477 0 .973-.817 1.563-2.159 1.563h-2.869zm13.601 6.562c2.954 0 4.943-2.244 4.943-5.625 0-3.409-1.989-5.653-4.943-5.653-2.955 0-4.943 2.244-4.943 5.653 0 3.381 1.988 5.625 4.943 5.625zm0-1.505c-2.244 0-3.267-1.932-3.267-4.12 0-2.187 1.023-4.147 3.267-4.147 2.244 0 3.267 1.96 3.267 4.147 0 2.188-1.023 4.12-3.267 4.12zM20.5341 157h5.142c2.2159 0 3.5512-1.25 3.5512-2.926 0-1.712-1.2997-2.635-2.5-2.813 1.2287-.255 2.1022-.944 2.1022-2.272 0-1.74-1.4914-2.898-3.8352-2.898h-4.4602V157zm1.5909-1.534v-3.352h3.5511c1.1506 0 1.8466.689 1.8466 1.818 0 .952-.696 1.534-1.8466 1.534H22.125zm0-4.801v-3.04h2.8693c1.3423 0 2.1591.561 2.1591 1.477 0 .973-.8168 1.563-2.1591 1.563H22.125zm12.3798 6.591c1.9034 0 2.8977-1.023 3.2386-1.733h.0853V157h1.6761v-7.188c0-3.465-2.6421-3.863-4.0341-3.863-1.6477 0-3.5227.568-4.375 2.557l1.5909.568c.3693-.796 1.2429-1.648 2.8409-1.648 1.5412 0 2.3012.817 2.3012 2.216v.057c0 .81-.8239.739-2.8125.994-2.0242.263-4.233.71-4.233 3.21 0 2.131 1.6477 3.353 3.7216 3.353zm.2557-1.506c-1.3353 0-2.3012-.597-2.3012-1.761 0-1.279 1.1648-1.677 2.4716-1.847.7103-.085 2.6137-.284 2.8978-.625v1.534c0 1.364-1.0796 2.699-3.0682 2.699zm7.3336 5.341h1.6761v-5.767h.1421c.3693.596 1.0795 1.903 3.1818 1.903 2.7273 0 4.6307-2.187 4.6307-5.653 0-3.438-1.9034-5.625-4.6591-5.625-2.1307 0-2.7841 1.307-3.1534 1.875h-.1989v-1.733h-1.6193v15zm1.6477-9.546c0-2.443 1.0796-4.09 3.125-4.09 2.1307 0 3.1818 1.789 3.1818 4.09 0 2.33-1.0795 4.177-3.1818 4.177-2.017 0-3.125-1.705-3.125-4.177zm11.7459 2.983v-8.437h-1.6761V157h1.9602l5.2273-8.438V157h1.6761v-10.909h-1.9318l-5.2557 8.437zm12.9977 2.728c1.9034 0 2.8977-1.023 3.2386-1.733h.0853V157h1.6761v-7.188c0-3.465-2.642-3.863-4.0341-3.863-1.6477 0-3.5227.568-4.375 2.557l1.5909.568c.3693-.796 1.2429-1.648 2.8409-1.648 1.5412 0 2.3012.817 2.3012 2.216v.057c0 .81-.8239.739-2.8125.994-2.0242.263-4.233.71-4.233 3.21 0 2.131 1.6477 3.353 3.7216 3.353zm.2557-1.506c-1.3352 0-2.3011-.597-2.3011-1.761 0-1.279 1.1647-1.677 2.4715-1.847.7103-.085 2.6137-.284 2.8978-.625v1.534c0 1.364-1.0796 2.699-3.0682 2.699zm9.0098-9.659h-1.6762V157h1.6762v-4.659h5.2272V157h1.6762v-10.909h-1.6762v4.687h-5.2272v-4.687zm8.0101 1.562h3.6079V157h1.6762v-9.347h3.5795v-1.562H85.761v1.562zm14.704 9.574c2.955 0 4.943-2.244 4.943-5.625 0-3.409-1.988-5.653-4.943-5.653-2.9546 0-4.9432 2.244-4.9432 5.653 0 3.381 1.9886 5.625 4.9432 5.625zm0-1.505c-2.2443 0-3.2671-1.932-3.2671-4.12 0-2.187 1.0228-4.147 3.2671-4.147 2.244 0 3.267 1.96 3.267 4.147 0 2.188-1.023 4.12-3.267 4.12zm7.032 1.278h5.142c2.216 0 3.551-1.25 3.551-2.926 0-1.712-1.3-2.635-2.5-2.813 1.229-.255 2.102-.944 2.102-2.272 0-1.74-1.491-2.898-3.835-2.898h-4.46V157zm1.591-1.534v-3.352h3.551c1.15 0 1.846.689 1.846 1.818 0 .952-.696 1.534-1.846 1.534h-3.551zm0-4.801v-3.04h2.869c1.342 0 2.159.561 2.159 1.477 0 .973-.817 1.563-2.159 1.563h-2.869zM122.446 157h.568c2.415 0 3.111-1.875 3.268-5.455l.17-3.892h4.006V157h1.676v-10.909h-7.273l-.199 4.829c-.142 3.665-.511 4.518-1.818 4.518h-.398V157zm16.725.227c2.954 0 4.943-2.244 4.943-5.625 0-3.409-1.989-5.653-4.943-5.653-2.955 0-4.943 2.244-4.943 5.653 0 3.381 1.988 5.625 4.943 5.625zm0-1.505c-2.244 0-3.267-1.932-3.267-4.12 0-2.187 1.023-4.147 3.267-4.147 2.244 0 3.267 1.96 3.267 4.147 0 2.188-1.023 4.12-3.267 4.12zm13.765-9.631h-6.733V157h1.676v-9.347h5.057v-1.562zm5.842 11.136c2.954 0 4.943-2.244 4.943-5.625 0-3.409-1.989-5.653-4.943-5.653-2.955 0-4.943 2.244-4.943 5.653 0 3.381 1.988 5.625 4.943 5.625zm0-1.505c-2.245 0-3.267-1.932-3.267-4.12 0-2.187 1.022-4.147 3.267-4.147 2.244 0 3.267 1.96 3.267 4.147 0 2.188-1.023 4.12-3.267 4.12zm5.606-8.069h3.608V157h1.676v-9.347h3.579v-1.562h-8.863v1.562zm12.515 6.875v-8.437h-1.677V157h1.961l5.227-8.438V157h1.676v-10.909h-1.932l-5.255 8.437zm9.787 2.472h1.676v-9.347h5.227V157h1.677v-10.909h-8.58V157zm15.602.227c2.955 0 4.944-2.244 4.944-5.625 0-3.409-1.989-5.653-4.944-5.653-2.954 0-4.943 2.244-4.943 5.653 0 3.381 1.989 5.625 4.943 5.625zm0-1.505c-2.244 0-3.267-1.932-3.267-4.12 0-2.187 1.023-4.147 3.267-4.147 2.245 0 3.267 1.96 3.267 4.147 0 2.188-1.022 4.12-3.267 4.12zM209.32 157h5.142c2.216 0 3.551-1.25 3.551-2.926 0-1.712-1.299-2.635-2.5-2.813 1.229-.255 2.103-.944 2.103-2.272 0-1.74-1.492-2.898-3.836-2.898h-4.46V157zm1.591-1.534v-3.352h3.551c1.151 0 1.847.689 1.847 1.818 0 .952-.696 1.534-1.847 1.534h-3.551zm0-4.801v-3.04h2.869c1.343 0 2.159.561 2.159 1.477 0 .973-.816 1.563-2.159 1.563h-2.869z" fill="#3D3D3D"/><rect x="99" y="304" width="148" height="56" rx="8" fill="#3385FF"/><path d="M152.758 340h-3.498l-5.5-7.216V340h-3.036v-15.4h3.036v6.798l5.28-6.798h3.498l-5.698 7.48 5.918 7.92zm7.173-11h3.036l-4.004 11c-1.114 3.095-3.05 4.561-5.808 4.4v-2.64c.748.015 1.335-.125 1.76-.418.44-.293.792-.785 1.056-1.474L151.527 329h3.014l2.948 7.392 2.442-7.392zm13.761 0v11h-2.838v-8.338h-4.378V340h-2.838v-11h10.054zm9.862 0h2.112v11h-2.772v-6.248l-5.17 6.248h-2.112v-11h2.772v6.248l5.17-6.248zm12.701 0v2.728h-3.432V340h-2.838v-8.272h-3.476V329h9.746zm5.807 3.52c1.247 0 2.252.345 3.014 1.034.763.675 1.144 1.577 1.144 2.706s-.381 2.039-1.144 2.728c-.762.675-1.767 1.012-3.014 1.012h-4.972v-11h2.838v3.52h2.134zm.022 4.972c.396 0 .719-.11.968-.33.264-.235.396-.535.396-.902s-.132-.667-.396-.902c-.249-.235-.572-.352-.968-.352h-2.156v2.486h2.156z" fill="#fff"/><path d="M107.635 235.054c12.17 0 19.815-6.366 19.764-16.517.051-9.665-7.338-16.901-19.764-16.901H87.1803v24.546H79.74v8.872h7.4403v3.375H79.74v8.872h7.4403V254h10.9943v-6.699h11.4294v-8.872H98.1746v-3.375h9.4604zm-9.4604-8.872v-15.546h9.4604c5.855 0 8.719 3.529 8.693 8.029.026 4.602-2.787 7.517-9 7.517h-9.1534zm33.5614 18.613h25.134V254h10.585v-9.205h6.494v-8.872h-6.494v-34.287h-13.858l-21.861 34.441v8.718zm25.338-8.872h-14.19v-.409l13.781-21.809h.409v22.218zm41.418-35.003c-11.71-.051-19.611 7.62-19.56 18.154.026 9.767 6.801 16.849 16.082 16.849 5.753 0 10.867-2.787 13.194-7.389h.358c-.026 10.381-3.631 16.696-10.458 16.696-4.014 0-6.903-2.199-7.747-6.008h-10.918c1.023 8.821 8.182 15.494 18.665 15.494 12.963 0 21.324-10.483 21.299-28.253-.026-18.972-10.151-25.491-20.915-25.543zm.076 8.694c5.089 0 8.847 4.142 8.898 9.127.026 5.012-3.937 9.154-9 9.154-5.113 0-8.77-3.989-8.795-9.128-.051-5.114 3.758-9.153 8.897-9.153zm45.675-8.694c-11.71-.051-19.611 7.62-19.56 18.154.026 9.767 6.801 16.849 16.083 16.849 5.753 0 10.866-2.787 13.193-7.389h.358c-.026 10.381-3.631 16.696-10.458 16.696-4.014 0-6.903-2.199-7.747-6.008h-10.917c1.022 8.821 8.182 15.494 18.664 15.494 12.964 0 21.324-10.483 21.299-28.253-.026-18.972-10.151-25.491-20.915-25.543zm.077 8.694c5.088 0 8.846 4.142 8.897 9.127.026 5.012-3.937 9.154-9 9.154-5.113 0-8.769-3.989-8.795-9.128-.051-5.114 3.758-9.153 8.898-9.153z" fill="#3D3D3D"/><defs><linearGradient id="paint0_linear" x1="327" y1="20" x2="291.536" y2="21.5522" gradientUnits="userSpaceOnUse"><stop stop-color="#F6895E"/><stop offset="1" stop-color="#F9AB81"/></linearGradient></defs></svg>