<svg width="345" height="375" viewBox="0 0 345 375" fill="none" xmlns="http://www.w3.org/2000/svg"><rect width="345" height="375" rx="25" fill="#fff"/><path d="M43.5 28.8V47h-3.562V35.196l-5.122 8.45H34.4l-5.122-8.424V47H25.69V28.8h3.692l5.226 8.606 5.2-8.606H43.5zM55.2112 34h3.588l-4.732 13c-1.3174 3.6573-3.6054 5.3907-6.864 5.2v-3.12c.884.0173 1.5773-.1473 2.08-.494.52-.3467.936-.9273 1.248-1.742L45.2792 34h3.562l3.484 8.736L55.2112 34zm12.5228 6.37c1.3174.6413 1.976 1.6727 1.976 3.094 0 1.1093-.4593 2.0367-1.378 2.782-.9186.7453-2.21 1.118-3.874 1.118-2.6346 0-4.4286-1.04-5.382-3.12l2.73-1.612c.416 1.1787 1.3087 1.768 2.678 1.768.624 0 1.1007-.1213 1.43-.364.3467-.2427.52-.572.52-.988 0-.7973-.5113-1.196-1.534-1.196h-1.846v-2.86h1.404c1.0054 0 1.508-.3987 1.508-1.196 0-.3813-.1473-.6847-.442-.91-.2946-.2253-.6846-.338-1.17-.338-1.1266 0-1.9326.546-2.418 1.638l-2.704-1.56c.988-1.9933 2.678-2.99 5.07-2.99 1.4907 0 2.6694.3813 3.536 1.144.884.7453 1.326 1.6553 1.326 2.73 0 1.2653-.4766 2.2187-1.43 2.86zm9.9631-2.21c1.4733 0 2.6607.4073 3.562 1.222.9013.7973 1.352 1.8633 1.352 3.198s-.4507 2.4093-1.352 3.224c-.9013.7973-2.0887 1.196-3.562 1.196h-5.876V34h3.354v4.16h2.522zm6.344-4.16h3.354v13h-3.354V34zm-6.318 10.036c.468 0 .8493-.13 1.144-.39.312-.2773.468-.6327.468-1.066s-.156-.7887-.468-1.066c-.2947-.2773-.676-.416-1.144-.416h-2.548v2.938h2.548zM102.444 47h-3.9002l-4.732-5.902V47h-3.354V34h3.354v5.72l4.472-5.72h4.0042l-5.2262 6.422L102.444 47zm10.615-13h3.354v13h-3.354v-1.534c-1.006 1.2653-2.418 1.898-4.238 1.898-1.734 0-3.224-.6587-4.472-1.976-1.231-1.3347-1.846-2.964-1.846-4.888s.615-3.5447 1.846-4.862c1.248-1.3347 2.738-2.002 4.472-2.002 1.82 0 3.232.6327 4.238 1.898V34zm-6.188 9.152c.676.676 1.534 1.014 2.574 1.014 1.04 0 1.898-.338 2.574-1.014.693-.6933 1.04-1.5773 1.04-2.652 0-1.0747-.347-1.95-1.04-2.626-.676-.6933-1.534-1.04-2.574-1.04-1.04 0-1.898.3467-2.574 1.04-.676.676-1.014 1.5513-1.014 2.626s.338 1.9587 1.014 2.652zM130.608 34v13h-3.354v-9.776h-3.588v4.342c0 4.0213-1.829 5.8327-5.486 5.434v-3.146c.693.1733 1.222.0607 1.586-.338.364-.416.546-1.1267.546-2.132V34h10.296zm8.915 4.16c1.474 0 2.661.4073 3.562 1.222.902.7973 1.352 1.8633 1.352 3.198s-.45 2.4093-1.352 3.224c-.901.7973-2.088 1.196-3.562 1.196h-5.876V34h3.354v4.16h2.522zm.026 5.876c.468 0 .85-.13 1.144-.39.312-.2773.468-.6327.468-1.066s-.156-.7887-.468-1.066c-.294-.2773-.676-.416-1.144-.416h-2.548v2.938h2.548zM155.074 34h3.354v13h-3.354v-4.94H149.9V47h-3.354V34h3.354v4.914h5.174V34zm16.307 0h3.354v13h-3.354v-1.534c-1.006 1.2653-2.418 1.898-4.238 1.898-1.734 0-3.224-.6587-4.472-1.976-1.231-1.3347-1.846-2.964-1.846-4.888s.615-3.5447 1.846-4.862c1.248-1.3347 2.738-2.002 4.472-2.002 1.82 0 3.232.6327 4.238 1.898V34zm-6.188 9.152c.676.676 1.534 1.014 2.574 1.014 1.04 0 1.898-.338 2.574-1.014.693-.6933 1.04-1.5773 1.04-2.652 0-1.0747-.347-1.95-1.04-2.626-.676-.6933-1.534-1.04-2.574-1.04-1.04 0-1.898.3467-2.574 1.04-.676.676-1.014 1.5513-1.014 2.626s.338 1.9587 1.014 2.652zM188.202 34v13h-3.276v-4.056h-1.17L180.766 47h-3.874l3.25-4.446c-.832-.3467-1.499-.8927-2.002-1.638-.485-.7627-.728-1.5773-.728-2.444 0-1.2133.434-2.262 1.3-3.146.867-.884 2.002-1.326 3.406-1.326h6.084zm-5.824 2.99c-.485 0-.892.1473-1.222.442-.312.2773-.468.6587-.468 1.144 0 .468.156.8407.468 1.118.33.2773.737.416 1.222.416h2.548v-3.12h-2.548zm26.457 8.398c-1.335 1.3173-2.964 1.976-4.888 1.976s-3.554-.6587-4.888-1.976c-1.318-1.3347-1.976-2.964-1.976-4.888s.658-3.5447 1.976-4.862c1.334-1.3347 2.964-2.002 4.888-2.002s3.553.6673 4.888 2.002c1.334 1.3173 2.002 2.938 2.002 4.862s-.668 3.5533-2.002 4.888zm-7.41-2.314c.676.676 1.516 1.014 2.522 1.014 1.005 0 1.846-.338 2.522-1.014.676-.676 1.014-1.534 1.014-2.574 0-1.04-.338-1.898-1.014-2.574-.676-.676-1.517-1.014-2.522-1.014-1.006 0-1.846.338-2.522 1.014-.659.676-.988 1.534-.988 2.574 0 1.04.329 1.898.988 2.574zm17.933 4.29c-2.045 0-3.701-.6587-4.966-1.976-1.248-1.3173-1.872-2.99-1.872-5.018 0-2.2187.329-3.926.988-5.122.659-1.2133 1.985-2.314 3.978-3.302.295-.1387.711-.3293 1.248-.572.537-.26.901-.442 1.092-.546.208-.104.485-.26.832-.468.347-.208.589-.39.728-.546.156-.1733.321-.39.494-.65s.312-.546.416-.858l2.756 1.586c-.225 1.0573-.737 1.8807-1.534 2.47-.78.572-1.959 1.1613-3.536 1.768-1.109.4333-1.915.8667-2.418 1.3-.503.4333-.867.9533-1.092 1.56.971-.988 2.271-1.482 3.9-1.482 1.439 0 2.721.5287 3.848 1.586 1.127 1.04 1.69 2.4267 1.69 4.16 0 1.7853-.607 3.25-1.82 4.394-1.196 1.144-2.773 1.716-4.732 1.716zm-2.392-3.952c.641.5893 1.43.884 2.366.884.936 0 1.707-.286 2.314-.858.607-.572.91-1.3.91-2.184 0-.884-.303-1.612-.91-2.184-.607-.5893-1.387-.884-2.34-.884-.849 0-1.612.2687-2.288.806-.659.5373-.988 1.2567-.988 2.158 0 .9187.312 1.6727.936 2.262zM238.772 34v13h-3.354v-9.776h-3.588v4.342c0 4.0213-1.829 5.8327-5.486 5.434v-3.146c.693.1733 1.222.0607 1.586-.338.364-.416.546-1.1267.546-2.132V34h10.296zm14.115 11.388c-1.334 1.3173-2.964 1.976-4.888 1.976s-3.553-.6587-4.888-1.976c-1.317-1.3347-1.976-2.964-1.976-4.888s.659-3.5447 1.976-4.862c1.335-1.3347 2.964-2.002 4.888-2.002s3.554.6673 4.888 2.002c1.335 1.3173 2.002 2.938 2.002 4.862s-.667 3.5533-2.002 4.888zm-7.41-2.314c.676.676 1.517 1.014 2.522 1.014 1.006 0 1.846-.338 2.522-1.014.676-.676 1.014-1.534 1.014-2.574 0-1.04-.338-1.898-1.014-2.574-.676-.676-1.516-1.014-2.522-1.014-1.005 0-1.846.338-2.522 1.014-.658.676-.988 1.534-.988 2.574 0 1.04.33 1.898.988 2.574zM273.758 47h-3.77l-3.978-5.824V47h-3.276v-5.824L258.756 47h-3.744l4.68-6.578-4.42-6.422h3.744l3.718 5.642V34h3.276v5.642L269.728 34h3.77l-4.446 6.422L273.758 47zm13.834 0h-3.9l-4.732-5.902V47h-3.354V34h3.354v5.72l4.472-5.72h4.004l-5.226 6.422L287.592 47zm10.615-13h3.354v13h-3.354v-1.534c-1.005 1.2653-2.418 1.898-4.238 1.898-1.733 0-3.224-.6587-4.472-1.976-1.231-1.3347-1.846-2.964-1.846-4.888s.615-3.5447 1.846-4.862c1.248-1.3347 2.739-2.002 4.472-2.002 1.82 0 3.233.6327 4.238 1.898V34zm-6.188 9.152c.676.676 1.534 1.014 2.574 1.014 1.04 0 1.898-.338 2.574-1.014.693-.6933 1.04-1.5773 1.04-2.652 0-1.0747-.347-1.95-1.04-2.626-.676-.6933-1.534-1.04-2.574-1.04-1.04 0-1.898.3467-2.574 1.04-.676.676-1.014 1.5513-1.014 2.626s.338 1.9587 1.014 2.652zM20.7614 96h1.7613v-5.3125h3.1818c3.3878 0 4.9148-2.0597 4.9148-4.6307s-1.527-4.6023-4.9432-4.6023h-4.9147V96zm1.7613-6.875v-6.108h3.0966c2.3651 0 3.2671 1.2927 3.2671 3.0398 0 1.7472-.902 3.0682-3.2387 3.0682h-3.125zm13.4469 7.1307c1.9034 0 2.8978-1.0227 3.2387-1.733h.0852V96h1.6761v-7.1875c0-3.4659-2.642-3.8636-4.0341-3.8636-1.6477 0-3.5227.5681-4.375 2.5568l1.5909.5682c.3694-.7955 1.2429-1.6478 2.841-1.6478 1.5412 0 2.3011.8168 2.3011 2.2159v.0569c0 .8096-.8239.7386-2.8125.9943-2.0242.2628-4.233.7102-4.233 3.2102 0 2.1307 1.6478 3.3523 3.7216 3.3523zm.2557-1.5057c-1.3352 0-2.3011-.5966-2.3011-1.7614 0-1.2784 1.1647-1.6761 2.4716-1.8466.7102-.0852 2.6136-.284 2.8977-.625v1.5341c0 1.3637-1.0796 2.6989-3.0682 2.6989zm6.6518-1.5341c.0568 1.7898 1.7685 3.0114 4.0909 3.0114 2.3864 0 4.1193-1.2784 4.1193-3.2671 0-1.3636-.8167-2.4716-2.0454-2.5568v-.1136c1.0369-.3196 1.8182-1.0725 1.8182-2.3012 0-1.7258-1.4773-3.0397-3.7784-3.0397-2.2728 0-3.8921 1.25-3.9489 3.0113h1.7614c.0497-.902.9943-1.5341 2.2727-1.5341 1.2713 0 1.9886.6463 1.9886 1.6194 0 .909-.625 1.5909-1.9602 1.5909h-1.875v1.5056h1.875c1.3352 0 2.1875.7316 2.1875 1.8182 0 1.2429-1.1009 1.7614-2.4432 1.7614-1.3139 0-2.1946-.5185-2.2727-1.5057h-1.7898zm10.0946 6.8751h1.6762v-5.7671h.142c.3693.5966 1.0796 1.9034 3.1818 1.9034 2.7273 0 4.6307-2.1875 4.6307-5.6534 0-3.4375-1.9034-5.625-4.6591-5.625-2.1306 0-2.7841 1.3068-3.1534 1.875h-.1988v-1.733h-1.6194v15.0001zm1.6478-9.5455c0-2.4432 1.0795-4.091 3.125-4.091 2.1307 0 3.1818 1.7898 3.1818 4.091 0 2.3295-1.0796 4.1761-3.1818 4.1761-2.0171 0-3.125-1.7046-3.125-4.1761zm13.28 5.7102c1.9034 0 2.8977-1.0227 3.2386-1.733h.0852V96h1.6762v-7.1875c0-3.4659-2.6421-3.8636-4.0341-3.8636-1.6477 0-3.5227.5681-4.375 2.5568l1.5909.5682c.3693-.7955 1.2429-1.6478 2.8409-1.6478 1.5412 0 2.3011.8168 2.3011 2.2159v.0569c0 .8096-.8238.7386-2.8125.9943-2.0241.2628-4.2329.7102-4.2329 3.2102 0 2.1307 1.6477 3.3523 3.7216 3.3523zm.2557-1.5057c-1.3353 0-2.3012-.5966-2.3012-1.7614 0-1.2784 1.1648-1.6761 2.4716-1.8466.7102-.0852 2.6136-.284 2.8977-.625v1.5341c0 1.3637-1.0795 2.6989-3.0681 2.6989zM83.5854 81c-.5327.4474-1.3282.4474-2.4432.4403-.3622 0-.76 0-1.1932.0142-3.3239.0853-4.9716 2.6137-4.9716 7.4716v1.1648c0 4.0341 1.9602 6.1364 4.8864 6.1364 2.919 0 4.8579-2.1165 4.8579-5.5398 0-3.4375-1.9673-5.2557-4.517-5.2557-1.4986 0-2.8977.625-3.6364 1.9887h-.142c.2273-2.8125 1.2784-4.3182 3.5511-4.4035 2.0171-.0852 3.4659-.0284 4.4602-.9943L83.5854 81zm-3.7216 13.7216c-1.9887 0-3.2102-1.5909-3.2102-4.0341.0355-2.3864 1.2357-3.75 3.1818-3.75 1.9957 0 3.2102 1.3636 3.2102 3.75 0 2.4574-1.2074 4.0341-3.1818 4.0341zm11.3837 1.5057c2.9545 0 4.9432-2.2443 4.9432-5.625 0-3.4091-1.9887-5.6534-4.9432-5.6534-2.9546 0-4.9432 2.2443-4.9432 5.6534 0 3.3807 1.9886 5.625 4.9432 5.625zm0-1.5057c-2.2443 0-3.2671-1.9318-3.2671-4.1193s1.0228-4.1478 3.2671-4.1478 3.267 1.9603 3.267 4.1478-1.0227 4.1193-3.267 4.1193zm5.606-8.0682h3.6075V96h1.677v-9.3466h3.579v-1.5625h-8.8635v1.5625zM107.692 96h1.676v-4.6023h1.506L114.453 96h2.16l-4.461-5.6534 4.404-5.2557h-2.159l-3.921 4.7443h-1.108v-4.7443h-1.676V96zm13.482.2557c1.904 0 2.898-1.0227 3.239-1.733h.085V96h1.676v-7.1875c0-3.4659-2.642-3.8636-4.034-3.8636-1.647 0-3.522.5681-4.375 2.5568l1.591.5682c.37-.7955 1.243-1.6478 2.841-1.6478 1.541 0 2.301.8168 2.301 2.2159v.0569c0 .8096-.824.7386-2.812.9943-2.024.2628-4.233.7102-4.233 3.2102 0 2.1307 1.648 3.3523 3.721 3.3523zm.256-1.5057c-1.335 0-2.301-.5966-2.301-1.7614 0-1.2784 1.165-1.6761 2.472-1.8466.71-.0852 2.613-.284 2.897-.625v1.5341c0 1.3637-1.079 2.6989-3.068 2.6989zm16.921 1.4773c2.954 0 4.943-2.2443 4.943-5.625 0-3.4091-1.989-5.6534-4.943-5.6534-2.955 0-4.944 2.2443-4.944 5.6534 0 3.3807 1.989 5.625 4.944 5.625zm0-1.5057c-2.245 0-3.267-1.9318-3.267-4.1193s1.022-4.1478 3.267-4.1478c2.244 0 3.267 1.9603 3.267 4.1478s-1.023 4.1193-3.267 4.1193zM153.479 81c-.533.4474-1.328.4474-2.443.4403-.362 0-.76 0-1.193.0142-3.324.0853-4.972 2.6137-4.972 7.4716v1.1648c0 4.0341 1.96 6.1364 4.886 6.1364 2.919 0 4.858-2.1165 4.858-5.5398 0-3.4375-1.967-5.2557-4.517-5.2557-1.498 0-2.897.625-3.636 1.9887h-.142c.227-2.8125 1.278-4.3182 3.551-4.4035 2.017-.0852 3.466-.0284 4.46-.9943L153.479 81zm-3.722 13.7216c-1.988 0-3.21-1.5909-3.21-4.0341.036-2.3864 1.236-3.75 3.182-3.75 1.996 0 3.21 1.3636 3.21 3.75 0 2.4574-1.207 4.0341-3.182 4.0341zM155.743 96h.569c2.414 0 3.11-1.875 3.267-5.4545l.17-3.8921h4.006V96h1.676V85.0909h-7.273l-.199 4.8296c-.142 3.6647-.511 4.517-1.818 4.517h-.398V96zm16.725.2273c2.954 0 4.943-2.2443 4.943-5.625 0-3.4091-1.989-5.6534-4.943-5.6534-2.955 0-4.943 2.2443-4.943 5.6534 0 3.3807 1.988 5.625 4.943 5.625zm0-1.5057c-2.244 0-3.267-1.9318-3.267-4.1193s1.023-4.1478 3.267-4.1478c2.244 0 3.267 1.9603 3.267 4.1478s-1.023 4.1193-3.267 4.1193zM178.369 96h2.017l3.721-4.6875h.853V96h1.676v-4.6875h.852L191.181 96h2.017l-4.403-5.5398 4.346-5.3693h-1.988l-3.637 4.6591h-.88v-4.6591h-1.676V89.75h-.91l-3.636-4.6591h-1.989l4.375 5.3693L178.369 96zm16.754 0h1.677v-4.6023h1.505L201.885 96h2.159l-4.46-5.6534 4.403-5.2557h-2.159l-3.92 4.7443H196.8v-4.7443h-1.677V96zm11.949-2.4716v-8.4375h-1.676V96h1.96l5.227-8.4375V96h1.676V85.0909h-1.932l-5.255 8.4375zm13.777 5.5966h1.677V96h8.068v3.125h1.676v-4.6875h-1.676v-9.3466h-6.932l-.369 4.3182c-.263 3.054-.654 4.1051-1.534 5.0284h-.91v4.6875zm2.813-4.6875c.767-1.0085 1.044-2.7486 1.278-5.0284l.284-2.7557h3.694v7.7841h-5.256zM233.059 96h.568c2.415 0 3.111-1.875 3.267-5.4545l.17-3.8921h4.006V96h1.676V85.0909h-7.272l-.199 4.8296c-.142 3.6647-.512 4.517-1.818 4.517h-.398V96zm18.855 0h1.591V85.0909h-4.489c-2.35 0-3.778 1.2287-3.778 3.2386 0 1.4986.753 2.564 2.067 3.0114L244.641 96h1.819l2.528-4.4318h2.926V96zm0-5.9943h-3.096c-1.187 0-1.904-.6321-1.904-1.6762 0-1.0582.796-1.7045 2.102-1.7045h2.898v3.3807zM261.267 96h5.142c2.216 0 3.551-1.25 3.551-2.9261 0-1.7117-1.299-2.635-2.5-2.8125 1.229-.2557 2.103-.9446 2.103-2.2728 0-1.74-1.492-2.8977-3.836-2.8977h-4.46V96zm1.591-1.5341v-3.3523h3.551c1.151 0 1.847.689 1.847 1.8182 0 .9517-.696 1.5341-1.847 1.5341h-3.551zm0-4.8011V86.625h2.869c1.343 0 2.159.5611 2.159 1.4773 0 .973-.816 1.5625-2.159 1.5625h-2.869zm12.38 6.5909c1.903 0 2.897-1.0227 3.238-1.733h.086V96h1.676v-7.1875c0-3.4659-2.642-3.8636-4.034-3.8636-1.648 0-3.523.5681-4.375 2.5568l1.591.5682c.369-.7955 1.242-1.6478 2.84-1.6478 1.542 0 2.302.8168 2.302 2.2159v.0569c0 .8096-.824.7386-2.813.9943-2.024.2628-4.233.7102-4.233 3.2102 0 2.1307 1.648 3.3523 3.722 3.3523zm.255-1.5057c-1.335 0-2.301-.5966-2.301-1.7614 0-1.2784 1.165-1.6761 2.472-1.8466.71-.0852 2.614-.284 2.898-.625v1.5341c0 1.3637-1.08 2.6989-3.069 2.6989zm7.334-9.6591V96h13.267V85.0909h-1.676v9.3466h-4.119v-9.3466h-1.676v9.3466h-4.12v-9.3466h-1.676zm20.432 11.1364c2.216 0 3.835-1.108 4.347-2.7557l-1.62-.4546c-.426 1.1364-1.413 1.7046-2.727 1.7046-1.967 0-3.324-1.2713-3.402-3.608h7.919v-.7102c0-4.0625-2.415-5.4545-4.687-5.4545-2.955 0-4.915 2.3295-4.915 5.6818s1.932 5.5966 5.085 5.5966zm-3.402-6.5625c.114-1.6975 1.314-3.2103 3.232-3.2103 1.818 0 2.983 1.3637 2.983 3.2103h-6.215zm16.732-4.5739h-6.733V96h1.676v-9.3466h5.057v-1.5625zm5.842 11.1364c2.954 0 4.943-2.2443 4.943-5.625 0-3.4091-1.989-5.6534-4.943-5.6534-2.955 0-4.943 2.2443-4.943 5.6534 0 3.3807 1.988 5.625 4.943 5.625zm0-1.5057c-2.244 0-3.267-1.9318-3.267-4.1193s1.023-4.1478 3.267-4.1478c2.244 0 3.267 1.9603 3.267 4.1478s-1.023 4.1193-3.267 4.1193zM19.9091 110.653h3.6079V120h1.6762v-9.347h3.5795v-1.562h-8.8636v1.562zm10.8386 13.438h1.6761v-5.767h.1421c.3693.596 1.0795 1.903 3.1818 1.903 2.7273 0 4.6307-2.187 4.6307-5.653 0-3.438-1.9034-5.625-4.6591-5.625-2.1307 0-2.7841 1.307-3.1534 1.875h-.1989v-1.733h-1.6193v15zm1.6477-9.546c0-2.443 1.0796-4.09 3.125-4.09 2.1307 0 3.1818 1.789 3.1818 4.09 0 2.33-1.0795 4.177-3.1818 4.177-2.017 0-3.125-1.705-3.125-4.177zm14.6436 5.682c2.216 0 3.8353-1.108 4.3466-2.755l-1.6193-.455c-.4261 1.136-1.4133 1.705-2.7273 1.705-1.9673 0-3.3238-1.272-3.4019-3.608h7.919v-.711c0-4.062-2.4148-5.454-4.6875-5.454-2.9546 0-4.9148 2.329-4.9148 5.682 0 3.352 1.9318 5.596 5.0852 5.596zm-3.4019-6.562c.1136-1.698 1.3139-3.21 3.2315-3.21 1.8182 0 2.9829 1.363 2.9829 3.21h-6.2144zM53.6358 120h1.6761v-4.602h1.5057L60.3972 120h2.1591l-4.4603-5.653 4.4034-5.256h-2.159l-3.9205 4.744h-1.108v-4.744h-1.6761V120zm13.4824.256c1.9034 0 2.8978-1.023 3.2387-1.733h.0852V120h1.6761v-7.188c0-3.465-2.642-3.863-4.0341-3.863-1.6477 0-3.5227.568-4.375 2.557l1.5909.568c.3694-.796 1.2429-1.648 2.841-1.648 1.5411 0 2.3011.817 2.3011 2.216v.057c0 .81-.8239.739-2.8125.994-2.0242.263-4.233.71-4.233 3.21 0 2.131 1.6478 3.353 3.7216 3.353zm.2557-1.506c-1.3352 0-2.3011-.597-2.3011-1.761 0-1.279 1.1647-1.677 2.4716-1.847.7102-.085 2.6136-.284 2.8977-.625v1.534c0 1.364-1.0796 2.699-3.0682 2.699zm12.4757-13.977h-1.5341l-4.6875 17.415h1.5341l4.6875-17.415zm4.7271 15.483c1.9034 0 2.8977-1.023 3.2386-1.733h.0852V120h1.6762v-7.188c0-3.465-2.6421-3.863-4.0341-3.863-1.6478 0-3.5228.568-4.375 2.557l1.5909.568c.3693-.796 1.2429-1.648 2.8409-1.648 1.5412 0 2.3011.817 2.3011 2.216v.057c0 .81-.8238.739-2.8125.994-2.0241.263-4.2329.71-4.2329 3.21 0 2.131 1.6477 3.353 3.7216 3.353zm.2556-1.506c-1.3352 0-2.3011-.597-2.3011-1.761 0-1.279 1.1648-1.677 2.4716-1.847.7102-.085 2.6136-.284 2.8977-.625v1.534c0 1.364-1.0795 2.699-3.0682 2.699zm6.3678 1.25h.5681c2.4148 0 3.1108-1.875 3.2671-5.455l.1704-3.892h4.0057V120h1.6766v-10.909h-7.2732l-.1988 4.829c-.1421 3.665-.5114 4.518-1.8182 4.518h-.3977V120zm13.9689-6.96v-3.949h-1.676V120h4.574c2.557 0 3.949-1.562 3.949-3.523 0-1.988-1.392-3.437-3.949-3.437h-2.898zm0 1.562h2.898c1.328 0 2.272.81 2.272 1.96 0 1.101-.944 1.876-2.272 1.876h-2.898v-3.836zM122.194 105c-.533.447-1.328.447-2.444.44-.362 0-.759 0-1.193.015-3.324.085-4.971 2.613-4.971 7.471v1.165c0 4.034 1.96 6.136 4.886 6.136 2.919 0 4.858-2.116 4.858-5.539 0-3.438-1.967-5.256-4.517-5.256-1.499 0-2.898.625-3.636 1.988h-.142c.227-2.812 1.278-4.318 3.551-4.403 2.017-.085 3.466-.028 4.46-.994l-.852-1.023zm-3.722 13.722c-1.989 0-3.21-1.591-3.21-4.034.035-2.387 1.236-3.75 3.182-3.75 1.995 0 3.21 1.363 3.21 3.75 0 2.457-1.208 4.034-3.182 4.034zm11.384 1.505c2.954 0 4.943-2.244 4.943-5.625 0-3.409-1.989-5.653-4.943-5.653-2.955 0-4.943 2.244-4.943 5.653 0 3.381 1.988 5.625 4.943 5.625zm0-1.505c-2.245 0-3.267-1.932-3.267-4.12 0-2.187 1.022-4.147 3.267-4.147 2.244 0 3.267 1.96 3.267 4.147 0 2.188-1.023 4.12-3.267 4.12zm12.997-.995l-3.75-8.636h-2.215V120h1.676v-8.501l3.608 8.501h1.363l3.608-8.345V120h1.676v-10.909h-2.159l-3.807 8.636zm11.775 2.529c1.903 0 2.897-1.023 3.238-1.733h.086V120h1.676v-7.188c0-3.465-2.642-3.863-4.034-3.863-1.648 0-3.523.568-4.375 2.557l1.591.568c.369-.796 1.242-1.648 2.84-1.648 1.542 0 2.302.817 2.302 2.216v.057c0 .81-.824.739-2.813.994-2.024.263-4.233.71-4.233 3.21 0 2.131 1.648 3.353 3.722 3.353zm.255-1.506c-1.335 0-2.301-.597-2.301-1.761 0-1.279 1.165-1.677 2.472-1.847.71-.085 2.614-.284 2.898-.625v1.534c0 1.364-1.08 2.699-3.069 2.699z" fill="#3D3D3D"/><rect x="99" y="304" width="148" height="56" rx="8" fill="#3385FF"/><path d="M152.758 340h-3.498l-5.5-7.216V340h-3.036v-15.4h3.036v6.798l5.28-6.798h3.498l-5.698 7.48 5.918 7.92zm7.173-11h3.036l-4.004 11c-1.114 3.095-3.05 4.561-5.808 4.4v-2.64c.748.015 1.335-.125 1.76-.418.44-.293.792-.785 1.056-1.474L151.527 329h3.014l2.948 7.392 2.442-7.392zm13.761 0v11h-2.838v-8.338h-4.378V340h-2.838v-11h10.054zm9.862 0h2.112v11h-2.772v-6.248l-5.17 6.248h-2.112v-11h2.772v6.248l5.17-6.248zm12.701 0v2.728h-3.432V340h-2.838v-8.272h-3.476V329h9.746zm5.807 3.52c1.247 0 2.252.345 3.014 1.034.763.675 1.144 1.577 1.144 2.706s-.381 2.039-1.144 2.728c-.762.675-1.767 1.012-3.014 1.012h-4.972v-11h2.838v3.52h2.134zm.022 4.972c.396 0 .719-.11.968-.33.264-.235.396-.535.396-.902s-.132-.667-.396-.902c-.249-.235-.572-.352-.968-.352h-2.156v2.486h2.156z" fill="#fff"/><path d="M108.303 228.054c12.17 0 19.815-6.366 19.764-16.517.051-9.665-7.338-16.901-19.764-16.901H87.8483v24.546h-7.4404v8.872h7.4404v3.375h-7.4404v8.872h7.4404V247h10.9943v-6.699h11.4294v-8.872H98.8426v-3.375h9.4604zm-9.4604-8.872v-15.546h9.4604c5.855 0 8.719 3.529 8.693 8.029.026 4.602-2.787 7.517-9 7.517h-9.1534zm53.7094 28.534c11.761 0 20.173-6.469 20.148-15.418.025-6.52-4.117-11.173-11.813-12.145v-.409c5.855-1.048 9.895-5.19 9.869-11.071.026-8.258-7.21-14.753-18.051-14.753-10.738 0-18.818 6.29-18.971 15.341h10.611c.127-3.988 3.784-6.571 8.309-6.571 4.475 0 7.466 2.711 7.441 6.648.025 4.117-3.478 6.903-8.515 6.903h-4.883v8.131h4.883c5.932 0 9.64 2.966 9.614 7.185.026 4.167-3.554 7.031-8.617 7.031-4.883 0-8.539-2.557-8.744-6.392h-11.148c.179 9.153 8.361 15.52 19.867 15.52zm45.272-53.796c-11.71-.051-19.611 7.62-19.56 18.154.026 9.767 6.801 16.849 16.083 16.849 5.752 0 10.866-2.787 13.193-7.389h.358c-.026 10.381-3.631 16.696-10.458 16.696-4.014 0-6.903-2.199-7.747-6.008h-10.918c1.023 8.821 8.182 15.494 18.665 15.494 12.963 0 21.324-10.483 21.299-28.253-.026-18.972-10.151-25.491-20.915-25.543zm.076 8.694c5.089 0 8.847 4.142 8.898 9.127.026 5.012-3.937 9.154-9 9.154-5.113 0-8.77-3.989-8.795-9.128-.051-5.114 3.758-9.153 8.897-9.153zm45.675-8.694c-11.71-.051-19.611 7.62-19.56 18.154.026 9.767 6.802 16.849 16.083 16.849 5.753 0 10.866-2.787 13.193-7.389h.358c-.026 10.381-3.631 16.696-10.457 16.696-4.015 0-6.904-2.199-7.748-6.008h-10.917c1.022 8.821 8.182 15.494 18.665 15.494 12.963 0 21.323-10.483 21.298-28.253-.026-18.972-10.151-25.491-20.915-25.543zm.077 8.694c5.088 0 8.846 4.142 8.897 9.127.026 5.012-3.937 9.154-9 9.154-5.113 0-8.769-3.989-8.795-9.128-.051-5.114 3.759-9.153 8.898-9.153z" fill="#3D3D3D"/></svg>