<svg width="909" height="130" viewBox="0 0 909 130" fill="none" xmlns="http://www.w3.org/2000/svg"><path d="M27 8.8V34h-4.932V17.656l-7.092 11.7H14.4L7.308 17.692V34H2.34V8.8h5.112l7.236 11.916 7.2-11.916H27zm12.6155 12.96c2.04 0 3.684.564 4.932 1.692 1.248 1.104 1.872 2.58 1.872 4.428 0 1.848-.624 3.336-1.872 4.464-1.248 1.104-2.892 1.656-4.932 1.656h-8.136V16h4.644v5.76h3.492zm8.784-5.76h4.644v18h-4.644V16zm-8.748 13.896c.648 0 1.176-.18 1.584-.54.432-.384.648-.876.648-1.476s-.216-1.092-.648-1.476c-.408-.384-.936-.576-1.584-.576h-3.528v4.068h3.528zM79.2802 16h3.456v18h-4.536V23.776L69.7402 34h-3.456V16h4.536v10.224L79.2802 16zm16.279 18.504c-2.712 0-4.98-.912-6.804-2.736-1.8-1.824-2.7-4.08-2.7-6.768 0-2.688.9-4.944 2.7-6.768 1.824-1.824 4.092-2.736 6.804-2.736 1.752 0 3.348.42 4.7878 1.26 1.44.84 2.532 1.968 3.276 3.384l-3.9958 2.34c-.36-.744-.912-1.332-1.656-1.764-.72-.432-1.536-.648-2.448-.648-1.392 0-2.544.468-3.456 1.404-.912.912-1.368 2.088-1.368 3.528 0 1.416.456 2.592 1.368 3.528.912.912 2.064 1.368 3.456 1.368.936 0 1.764-.204 2.484-.612.744-.432 1.296-1.02 1.656-1.764l4.0318 2.304c-.792 1.416-1.908 2.556-3.348 3.42-1.4398.84-3.0358 1.26-4.7878 1.26zM122.744 16v18H118.1V20.356h-7.164V34h-4.644V16h16.452zm19.591 15.768c-1.848 1.824-4.104 2.736-6.768 2.736-2.664 0-4.92-.912-6.768-2.736-1.824-1.848-2.736-4.104-2.736-6.768 0-2.664.912-4.908 2.736-6.732 1.848-1.848 4.104-2.772 6.768-2.772 2.664 0 4.92.924 6.768 2.772 1.848 1.824 2.772 4.068 2.772 6.732 0 2.664-.924 4.92-2.772 6.768zm-10.26-3.204c.936.936 2.1 1.404 3.492 1.404s2.556-.468 3.492-1.404c.936-.936 1.404-2.124 1.404-3.564s-.468-2.628-1.404-3.564c-.936-.936-2.1-1.404-3.492-1.404s-2.556.468-3.492 1.404c-.912.936-1.368 2.124-1.368 3.564s.456 2.628 1.368 3.564zM163.361 16v18h-4.644V20.464h-4.968v6.012c0 5.568-2.532 8.076-7.596 7.524v-4.356c.96.24 1.692.084 2.196-.468.504-.576.756-1.56.756-2.952V16h14.256zm12.344 5.76c2.04 0 3.684.564 4.932 1.692 1.248 1.104 1.872 2.58 1.872 4.428 0 1.848-.624 3.336-1.872 4.464-1.248 1.104-2.892 1.656-4.932 1.656h-8.136V16h4.644v5.76h3.492zm.036 8.136c.648 0 1.176-.18 1.584-.54.432-.384.648-.876.648-1.476s-.216-1.092-.648-1.476c-.408-.384-.936-.576-1.584-.576h-3.528v4.068h3.528zm19.849-5.076c1.824.888 2.736 2.316 2.736 4.284 0 1.536-.636 2.82-1.908 3.852-1.272 1.032-3.06 1.548-5.364 1.548-3.648 0-6.132-1.44-7.452-4.32l3.78-2.232c.576 1.632 1.812 2.448 3.708 2.448.864 0 1.524-.168 1.98-.504.48-.336.72-.792.72-1.368 0-1.104-.708-1.656-2.124-1.656h-2.556v-3.96h1.944c1.392 0 2.088-.552 2.088-1.656 0-.528-.204-.948-.612-1.26-.408-.312-.948-.468-1.62-.468-1.56 0-2.676.756-3.348 2.268l-3.744-2.16c1.368-2.76 3.708-4.14 7.02-4.14 2.064 0 3.696.528 4.896 1.584 1.224 1.032 1.836 2.292 1.836 3.78 0 1.752-.66 3.072-1.98 3.96zM212.282 16h4.968l-6.552 18c-1.824 5.064-4.992 7.464-9.504 7.2v-4.32c1.224.024 2.184-.204 2.88-.684.72-.48 1.296-1.284 1.728-2.412L198.53 16h4.932l4.824 12.096L212.282 16zm10.399 10.908c.624 2.256 2.316 3.384 5.076 3.384 1.776 0 3.12-.6 4.032-1.8l3.744 2.16c-1.776 2.568-4.392 3.852-7.848 3.852-2.976 0-5.364-.9-7.164-2.7-1.8-1.8-2.7-4.068-2.7-6.804 0-2.712.888-4.968 2.664-6.768 1.776-1.824 4.056-2.736 6.84-2.736 2.64 0 4.812.912 6.516 2.736 1.728 1.824 2.592 4.08 2.592 6.768 0 .6-.06 1.236-.18 1.908h-13.572zm-.072-3.6h9.18c-.264-1.224-.816-2.136-1.656-2.736-.816-.6-1.752-.9-2.808-.9-1.248 0-2.28.324-3.096.972-.816.624-1.356 1.512-1.62 2.664zM258.395 16v18h-4.5V23.488l-4.572 7.2h-.576l-4.608-7.272V34h-4.464V16h4.572l4.788 7.56 4.788-7.56h4.572zm29.833 18h-5.4l-6.552-8.172V34h-4.644V16h4.644v7.92l6.192-7.92h5.544l-7.236 8.892L288.228 34zm13.878-18h4.968l-6.552 18c-1.824 5.064-4.992 7.464-9.504 7.2v-4.32c1.224.024 2.184-.204 2.88-.684.72-.48 1.296-1.284 1.728-2.412L288.354 16h4.932l4.824 12.096L302.106 16zm23.774 18h-5.4l-6.552-8.172V34h-4.644V16h4.644v7.92L320.12 16h5.544l-7.236 8.892L325.88 34zm15.314-18h3.456v18h-4.536V23.776L331.654 34h-3.456V16h4.536v10.224L341.194 16zm28.519 0h4.644v18h-4.644v-6.84h-7.164V34h-4.644V16h4.644v6.804h7.164V16zm22.579 0h4.644v18h-4.644v-2.124c-1.392 1.752-3.348 2.628-5.868 2.628-2.4 0-4.464-.912-6.192-2.736-1.704-1.848-2.556-4.104-2.556-6.768 0-2.664.852-4.908 2.556-6.732 1.728-1.848 3.792-2.772 6.192-2.772 2.52 0 4.476.876 5.868 2.628V16zm-8.568 12.672c.936.936 2.124 1.404 3.564 1.404s2.628-.468 3.564-1.404c.96-.96 1.44-2.184 1.44-3.672s-.48-2.7-1.44-3.636c-.936-.96-2.124-1.44-3.564-1.44s-2.628.48-3.564 1.44c-.936.936-1.404 2.148-1.404 3.636s.468 2.712 1.404 3.672zm39.383-3.888c1.68.816 2.52 2.184 2.52 4.104 0 1.512-.528 2.748-1.584 3.708-1.032.936-2.508 1.404-4.428 1.404h-9.468V16h8.748c1.896 0 3.36.468 4.392 1.404 1.056.936 1.584 2.16 1.584 3.672 0 1.584-.588 2.82-1.764 3.708zm-4.644-4.968h-3.96v3.24h3.96c1.32 0 1.98-.54 1.98-1.62s-.66-1.62-1.98-1.62zm.612 10.26c1.344 0 2.016-.576 2.016-1.728 0-.504-.18-.9-.54-1.188-.36-.288-.852-.432-1.476-.432h-4.572v3.348h4.572zm18.027 4.428c-2.712 0-4.98-.912-6.804-2.736-1.8-1.824-2.7-4.08-2.7-6.768 0-2.688.9-4.944 2.7-6.768 1.824-1.824 4.092-2.736 6.804-2.736 1.752 0 3.348.42 4.788 1.26 1.44.84 2.532 1.968 3.276 3.384l-3.996 2.34c-.36-.744-.912-1.332-1.656-1.764-.72-.432-1.536-.648-2.448-.648-1.392 0-2.544.468-3.456 1.404-.912.912-1.368 2.088-1.368 3.528 0 1.416.456 2.592 1.368 3.528.912.912 2.064 1.368 3.456 1.368.936 0 1.764-.204 2.484-.612.744-.432 1.296-1.02 1.656-1.764l4.032 2.304c-.792 1.416-1.908 2.556-3.348 3.42-1.44.84-3.036 1.26-4.788 1.26zm14.235-7.596c.624 2.256 2.316 3.384 5.076 3.384 1.776 0 3.12-.6 4.032-1.8l3.744 2.16c-1.776 2.568-4.392 3.852-7.848 3.852-2.976 0-5.364-.9-7.164-2.7-1.8-1.8-2.7-4.068-2.7-6.804 0-2.712.888-4.968 2.664-6.768 1.776-1.824 4.056-2.736 6.84-2.736 2.64 0 4.812.912 6.516 2.736 1.728 1.824 2.592 4.08 2.592 6.768 0 .6-.06 1.236-.18 1.908h-13.572zm-.072-3.6h9.18c-.264-1.224-.816-2.136-1.656-2.736-.816-.6-1.752-.9-2.808-.9-1.248 0-2.28.324-3.096.972-.816.624-1.356 1.512-1.62 2.664zM483.908 34h-5.364l-3.888-5.472L470.732 34h-5.364l6.588-9.18-6.3-8.82h5.364l3.636 5.076L478.292 16h5.328l-6.3 8.784L483.908 34zm19.886.504c-2.712 0-4.98-.912-6.804-2.736-1.8-1.824-2.7-4.08-2.7-6.768 0-2.688.9-4.944 2.7-6.768 1.824-1.824 4.092-2.736 6.804-2.736 1.752 0 3.348.42 4.788 1.26 1.44.84 2.532 1.968 3.276 3.384l-3.996 2.34c-.36-.744-.912-1.332-1.656-1.764-.72-.432-1.536-.648-2.448-.648-1.392 0-2.544.468-3.456 1.404-.912.912-1.368 2.088-1.368 3.528 0 1.416.456 2.592 1.368 3.528.912.912 2.064 1.368 3.456 1.368.936 0 1.764-.204 2.484-.612.744-.432 1.296-1.02 1.656-1.764l4.032 2.304c-.792 1.416-1.908 2.556-3.348 3.42-1.44.84-3.036 1.26-4.788 1.26zm23.692-9.72c1.68.816 2.52 2.184 2.52 4.104 0 1.512-.528 2.748-1.584 3.708-1.032.936-2.508 1.404-4.428 1.404h-9.468V16h8.748c1.896 0 3.36.468 4.392 1.404 1.056.936 1.584 2.16 1.584 3.672 0 1.584-.588 2.82-1.764 3.708zm-4.644-4.968h-3.96v3.24h3.96c1.32 0 1.98-.54 1.98-1.62s-.66-1.62-1.98-1.62zm.612 10.26c1.344 0 2.016-.576 2.016-1.728 0-.504-.18-.9-.54-1.188-.36-.288-.852-.432-1.476-.432h-4.572v3.348h4.572zm24.795 1.692c-1.848 1.824-4.104 2.736-6.768 2.736-2.664 0-4.92-.912-6.768-2.736-1.824-1.848-2.736-4.104-2.736-6.768 0-2.664.912-4.908 2.736-6.732 1.848-1.848 4.104-2.772 6.768-2.772 2.664 0 4.92.924 6.768 2.772 1.848 1.824 2.772 4.068 2.772 6.732 0 2.664-.924 4.92-2.772 6.768zm-10.26-3.204c.936.936 2.1 1.404 3.492 1.404s2.556-.468 3.492-1.404c.936-.936 1.404-2.124 1.404-3.564s-.468-2.628-1.404-3.564c-.936-.936-2.1-1.404-3.492-1.404s-2.556.468-3.492 1.404c-.912.936-1.368 2.124-1.368 3.564s.456 2.628 1.368 3.564zM567.284 16h3.456v18h-4.536V23.776L557.744 34h-3.456V16h4.536v10.224L567.284 16zm24.307 18h-5.364l-3.888-5.472L578.415 34h-5.364l6.588-9.18-6.3-8.82h5.364l3.636 5.076L585.975 16h5.328l-6.3 8.784L591.591 34zm19.886.504c-2.712 0-4.98-.912-6.804-2.736-1.8-1.824-2.7-4.08-2.7-6.768 0-2.688.9-4.944 2.7-6.768 1.824-1.824 4.092-2.736 6.804-2.736 1.752 0 3.348.42 4.788 1.26 1.44.84 2.532 1.968 3.276 3.384l-3.996 2.34c-.36-.744-.912-1.332-1.656-1.764-.72-.432-1.536-.648-2.448-.648-1.392 0-2.544.468-3.456 1.404-.912.912-1.368 2.088-1.368 3.528 0 1.416.456 2.592 1.368 3.528.912.912 2.064 1.368 3.456 1.368.936 0 1.764-.204 2.484-.612.744-.432 1.296-1.02 1.656-1.764l4.032 2.304c-.792 1.416-1.908 2.556-3.348 3.42-1.44.84-3.036 1.26-4.788 1.26zM635.468 16h4.644v18h-4.644v-2.124c-1.392 1.752-3.348 2.628-5.868 2.628-2.4 0-4.464-.912-6.192-2.736-1.704-1.848-2.556-4.104-2.556-6.768 0-2.664.852-4.908 2.556-6.732 1.728-1.848 3.792-2.772 6.192-2.772 2.52 0 4.476.876 5.868 2.628V16zM626.9 28.672c.936.936 2.124 1.404 3.564 1.404s2.628-.468 3.564-1.404c.96-.96 1.44-2.184 1.44-3.672s-.48-2.7-1.44-3.636c-.936-.96-2.124-1.44-3.564-1.44s-2.628.48-3.564 1.44c-.936.936-1.404 2.148-1.404 3.636s.468 2.712 1.404 3.672zm20.447-14.976V9.664h10.44v4.032h-10.44zM657.319 16h3.456v18h-4.536V23.776L647.779 34h-3.456V16h4.536v10.224L657.319 16zm21.895 0v4.464h-5.616V34h-4.644V20.464h-5.688V16h15.948zm15.457 0h4.644v18h-4.644v-2.124c-1.392 1.752-3.348 2.628-5.868 2.628-2.4 0-4.464-.912-6.192-2.736-1.704-1.848-2.556-4.104-2.556-6.768 0-2.664.852-4.908 2.556-6.732 1.728-1.848 3.792-2.772 6.192-2.772 2.52 0 4.476.876 5.868 2.628V16zm-8.568 12.672c.936.936 2.124 1.404 3.564 1.404s2.628-.468 3.564-1.404c.96-.96 1.44-2.184 1.44-3.672s-.48-2.7-1.44-3.636c-.936-.96-2.124-1.44-3.564-1.44s-2.628.48-3.564 1.44c-.936.936-1.404 2.148-1.404 3.636s.468 2.712 1.404 3.672zM720.122 34h-5.364l-3.888-5.472L706.946 34h-5.364l6.588-9.18-6.3-8.82h5.364l3.636 5.076L714.506 16h5.328l-6.3 8.784L720.122 34zm8.438-4.968l-2.7 10.008h-3.78l1.44-10.008h5.04zm25.86-4.248c1.68.816 2.52 2.184 2.52 4.104 0 1.512-.528 2.748-1.584 3.708-1.032.936-2.508 1.404-4.428 1.404h-9.468V16h8.748c1.896 0 3.36.468 4.392 1.404 1.056.936 1.584 2.16 1.584 3.672 0 1.584-.588 2.82-1.764 3.708zm-4.644-4.968h-3.96v3.24h3.96c1.32 0 1.98-.54 1.98-1.62s-.66-1.62-1.98-1.62zm.612 10.26c1.344 0 2.016-.576 2.016-1.728 0-.504-.18-.9-.54-1.188-.36-.288-.852-.432-1.476-.432h-4.572v3.348h4.572zM776.443 34h-5.4l-6.552-8.172V34h-4.644V16h4.644v7.92l6.192-7.92h5.544l-7.236 8.892L776.443 34zm17.762-18v18h-4.644V20.464h-4.968v6.012c0 5.568-2.532 8.076-7.596 7.524v-4.356c.96.24 1.692.084 2.196-.468.504-.576.756-1.56.756-2.952V16h14.256zm20.588-.504c2.664 0 4.92.924 6.768 2.772 1.848 1.824 2.772 4.068 2.772 6.732 0 2.664-.924 4.92-2.772 6.768-1.848 1.824-4.104 2.736-6.768 2.736-2.256 0-4.224-.684-5.904-2.052-1.68-1.368-2.76-3.132-3.24-5.292h-2.592V34h-4.644V16h4.644v6.804h2.628c.48-2.136 1.56-3.888 3.24-5.256 1.68-1.368 3.636-2.052 5.868-2.052zm-3.492 13.068c.936.936 2.1 1.404 3.492 1.404s2.556-.468 3.492-1.404c.936-.936 1.404-2.124 1.404-3.564s-.468-2.628-1.404-3.564c-.936-.936-2.1-1.404-3.492-1.404s-2.556.468-3.492 1.404c-.912.936-1.368 2.124-1.368 3.564s.456 2.628 1.368 3.564zM837.826 16h4.644v18h-4.644v-5.724c-1.344.432-2.772.648-4.284.648-2.184 0-3.936-.552-5.256-1.656-1.296-1.104-1.944-2.712-1.944-4.824V16h4.644v5.904c0 1.8 1.116 2.7 3.348 2.7 1.296 0 2.46-.228 3.492-.684V16zm22.537 0h4.644v18h-4.644v-2.124c-1.392 1.752-3.348 2.628-5.868 2.628-2.4 0-4.464-.912-6.192-2.736-1.704-1.848-2.556-4.104-2.556-6.768 0-2.664.852-4.908 2.556-6.732 1.728-1.848 3.792-2.772 6.192-2.772 2.52 0 4.476.876 5.868 2.628V16zm-8.568 12.672c.936.936 2.124 1.404 3.564 1.404s2.628-.468 3.564-1.404c.96-.96 1.44-2.184 1.44-3.672s-.48-2.7-1.44-3.636c-.936-.96-2.124-1.44-3.564-1.44s-2.628.48-3.564 1.44c-.936.936-1.404 2.148-1.404 3.636s.468 2.712 1.404 3.672zM883.654 16v18h-4.536v-5.616h-1.62L873.358 34h-5.364l4.5-6.156c-1.152-.48-2.076-1.236-2.772-2.268-.672-1.056-1.008-2.184-1.008-3.384 0-1.68.6-3.132 1.8-4.356 1.2-1.224 2.772-1.836 4.716-1.836h8.424zm-8.064 4.14c-.672 0-1.236.204-1.692.612-.432.384-.648.912-.648 1.584 0 .648.216 1.164.648 1.548.456.384 1.02.576 1.692.576h3.528v-4.32h-3.528zM8.748 59.496c2.736 0 4.98.888 6.732 2.664 1.776 1.752 2.664 4.032 2.664 6.84s-.888 5.1-2.664 6.876c-1.752 1.752-4.008 2.628-6.768 2.628-1.848 0-3.504-.42-4.968-1.26-1.464-.864-2.556-2.004-3.276-3.42l3.924-2.268c.312.744.852 1.344 1.62 1.8.768.456 1.692.684 2.772.684 1.008 0 1.896-.264 2.664-.792.792-.552 1.368-1.272 1.728-2.16h-6.12v-4.176h6.12c-.36-.888-.936-1.596-1.728-2.124-.768-.552-1.656-.828-2.664-.828-2.112 0-3.564.816-4.356 2.448L.504 64.14c.768-1.416 1.872-2.544 3.312-3.384 1.464-.84 3.108-1.26 4.932-1.26zM34.9408 60v4.464h-5.616V78h-4.644V64.464h-5.688V60h15.948zm17.113 15.768c-1.848 1.824-4.104 2.736-6.768 2.736-2.664 0-4.92-.912-6.768-2.736-1.824-1.848-2.7361-4.104-2.7361-6.768 0-2.664.9121-4.908 2.7361-6.732 1.848-1.848 4.104-2.772 6.768-2.772 2.664 0 4.92.924 6.768 2.772 1.848 1.824 2.772 4.068 2.772 6.732 0 2.664-.924 4.92-2.772 6.768zm-10.26-3.204c.936.936 2.1 1.404 3.492 1.404s2.556-.468 3.492-1.404c.936-.936 1.404-2.124 1.404-3.564s-.468-2.628-1.404-3.564c-.936-.936-2.1-1.404-3.492-1.404s-2.556.468-3.492 1.404c-.912.936-1.368 2.124-1.368 3.564s.456 2.628 1.368 3.564zM71.5736 60v4.464h-5.616V78h-4.644V64.464h-5.688V60h15.948zm6.0337 13.032l-2.7 10.008h-3.78l1.44-10.008h5.04zM106.959 60v18h-4.644V64.356h-7.1642V78h-4.644V60h16.4522zm19.591 15.768c-1.848 1.824-4.104 2.736-6.768 2.736-2.664 0-4.92-.912-6.768-2.736-1.824-1.848-2.736-4.104-2.736-6.768 0-2.664.912-4.908 2.736-6.732 1.848-1.848 4.104-2.772 6.768-2.772 2.664 0 4.92.924 6.768 2.772 1.848 1.824 2.772 4.068 2.772 6.732 0 2.664-.924 4.92-2.772 6.768zm-10.26-3.204c.936.936 2.1 1.404 3.492 1.404s2.556-.468 3.492-1.404c.936-.936 1.404-2.124 1.404-3.564s-.468-2.628-1.404-3.564c-.936-.936-2.1-1.404-3.492-1.404s-2.556.468-3.492 1.404c-.912.936-1.368 2.124-1.368 3.564s.456 2.628 1.368 3.564zM146.07 60v4.464h-5.616V78h-4.644V64.464h-5.688V60h15.948zm17.113 15.768c-1.848 1.824-4.104 2.736-6.768 2.736-2.664 0-4.92-.912-6.768-2.736-1.824-1.848-2.736-4.104-2.736-6.768 0-2.664.912-4.908 2.736-6.732 1.848-1.848 4.104-2.772 6.768-2.772 2.664 0 4.92.924 6.768 2.772 1.848 1.824 2.772 4.068 2.772 6.732 0 2.664-.924 4.92-2.772 6.768zm-10.26-3.204c.936.936 2.1 1.404 3.492 1.404s2.556-.468 3.492-1.404c.936-.936 1.404-2.124 1.404-3.564s-.468-2.628-1.404-3.564c-.936-.936-2.1-1.404-3.492-1.404s-2.556.468-3.492 1.404c-.912.936-1.368 2.124-1.368 3.564s.456 2.628 1.368 3.564zM187.942 60v18h-4.5V67.488l-4.572 7.2h-.576l-4.608-7.272V78h-4.464V60h4.572l4.788 7.56L183.37 60h4.572zm15.973 0h4.968l-6.552 18c-1.824 5.064-4.992 7.464-9.504 7.2v-4.32c1.224.024 2.184-.204 2.88-.684.72-.48 1.296-1.284 1.728-2.412L190.163 60h4.932l4.824 12.096L203.915 60zm26.798 0h4.644v18h-4.644v-5.724c-1.344.432-2.772.648-4.284.648-2.184 0-3.936-.552-5.256-1.656-1.296-1.104-1.944-2.712-1.944-4.824V60h4.644v5.904c0 1.8 1.116 2.7 3.348 2.7 1.296 0 2.46-.228 3.492-.684V60zm23.04 0v4.464h-5.616V78h-4.644V64.464h-5.688V60h15.948zm17.113 15.768c-1.848 1.824-4.104 2.736-6.768 2.736-2.664 0-4.92-.912-6.768-2.736-1.824-1.848-2.736-4.104-2.736-6.768 0-2.664.912-4.908 2.736-6.732 1.848-1.848 4.104-2.772 6.768-2.772 2.664 0 4.92.924 6.768 2.772 1.848 1.824 2.772 4.068 2.772 6.732 0 2.664-.924 4.92-2.772 6.768zm-10.26-3.204c.936.936 2.1 1.404 3.492 1.404s2.556-.468 3.492-1.404c.936-.936 1.404-2.124 1.404-3.564s-.468-2.628-1.404-3.564c-.936-.936-2.1-1.404-3.492-1.404s-2.556.468-3.492 1.404c-.912.936-1.368 2.124-1.368 3.564s.456 2.628 1.368 3.564zm33.831 5.94c-2.832 0-5.124-.912-6.876-2.736-1.728-1.824-2.592-4.14-2.592-6.948 0-3.072.456-5.436 1.368-7.092.912-1.68 2.748-3.204 5.508-4.572.408-.192.984-.456 1.728-.792.744-.36 1.248-.612 1.512-.756.288-.144.672-.36 1.152-.648.48-.288.816-.54 1.008-.756.216-.24.444-.54.684-.9.24-.36.432-.756.576-1.188l3.816 2.196c-.312 1.464-1.02 2.604-2.124 3.42-1.08.792-2.712 1.608-4.896 2.448-1.536.6-2.652 1.2-3.348 1.8-.696.6-1.2 1.32-1.512 2.16 1.344-1.368 3.144-2.052 5.4-2.052 1.992 0 3.768.732 5.328 2.196 1.56 1.44 2.34 3.36 2.34 5.76 0 2.472-.84 4.5-2.52 6.084-1.656 1.584-3.84 2.376-6.552 2.376zm-3.312-5.472c.888.816 1.98 1.224 3.276 1.224 1.296 0 2.364-.396 3.204-1.188.84-.792 1.26-1.8 1.26-3.024s-.42-2.232-1.26-3.024c-.84-.816-1.92-1.224-3.24-1.224-1.176 0-2.232.372-3.168 1.116-.912.744-1.368 1.74-1.368 2.988 0 1.272.432 2.316 1.296 3.132zm19.13-2.124c.624 2.256 2.316 3.384 5.076 3.384 1.776 0 3.12-.6 4.032-1.8l3.744 2.16c-1.776 2.568-4.392 3.852-7.848 3.852-2.976 0-5.364-.9-7.164-2.7-1.8-1.8-2.7-4.068-2.7-6.804 0-2.712.888-4.968 2.664-6.768 1.776-1.824 4.056-2.736 6.84-2.736 2.64 0 4.812.912 6.516 2.736 1.728 1.824 2.592 4.08 2.592 6.768 0 .6-.06 1.236-.18 1.908h-13.572zm-.072-3.6h9.18c-.264-1.224-.816-2.136-1.656-2.736-.816-.6-1.752-.9-2.808-.9-1.248 0-2.28.324-3.096.972-.816.624-1.356 1.512-1.62 2.664zm27.227 1.512c1.824.888 2.736 2.316 2.736 4.284 0 1.536-.636 2.82-1.908 3.852-1.272 1.032-3.06 1.548-5.364 1.548-3.648 0-6.132-1.44-7.452-4.32l3.78-2.232c.576 1.632 1.812 2.448 3.708 2.448.864 0 1.524-.168 1.98-.504.48-.336.72-.792.72-1.368 0-1.104-.708-1.656-2.124-1.656h-2.556v-3.96h1.944c1.392 0 2.088-.552 2.088-1.656 0-.528-.204-.948-.612-1.26-.408-.312-.948-.468-1.62-.468-1.56 0-2.676.756-3.348 2.268l-3.744-2.16c1.368-2.76 3.708-4.14 7.02-4.14 2.064 0 3.696.528 4.896 1.584 1.224 1.032 1.836 2.292 1.836 3.78 0 1.752-.66 3.072-1.98 3.96zM368.665 78h-5.4l-6.552-8.172V78h-4.644V60h4.644v7.92l6.192-7.92h5.544l-7.236 8.892L368.665 78zm13.879-18h4.968l-6.552 18c-1.824 5.064-4.992 7.464-9.504 7.2v-4.32c1.224.024 2.184-.204 2.88-.684.72-.48 1.296-1.284 1.728-2.412L368.792 60h4.932l4.824 12.096L382.544 60zm23.774 18h-5.4l-6.552-8.172V78h-4.644V60h4.644v7.92l6.192-7.92h5.544l-7.236 8.892L406.318 78zm24.278-9.216c1.68.816 2.52 2.184 2.52 4.104 0 1.512-.528 2.748-1.584 3.708-1.032.936-2.508 1.404-4.428 1.404h-9.468V60h8.748c1.896 0 3.36.468 4.392 1.404 1.056.936 1.584 2.16 1.584 3.672 0 1.584-.588 2.82-1.764 3.708zm-4.644-4.968h-3.96v3.24h3.96c1.32 0 1.98-.54 1.98-1.62s-.66-1.62-1.98-1.62zm.612 10.26c1.344 0 2.016-.576 2.016-1.728 0-.504-.18-.9-.54-1.188-.36-.288-.852-.432-1.476-.432h-4.572v3.348h4.572zm24.794 1.692c-1.848 1.824-4.104 2.736-6.768 2.736-2.664 0-4.92-.912-6.768-2.736-1.824-1.848-2.736-4.104-2.736-6.768 0-2.664.912-4.908 2.736-6.732 1.848-1.848 4.104-2.772 6.768-2.772 2.664 0 4.92.924 6.768 2.772 1.848 1.824 2.772 4.068 2.772 6.732 0 2.664-.924 4.92-2.772 6.768zm-10.26-3.204c.936.936 2.1 1.404 3.492 1.404s2.556-.468 3.492-1.404c.936-.936 1.404-2.124 1.404-3.564s-.468-2.628-1.404-3.564c-.936-.936-2.1-1.404-3.492-1.404s-2.556.468-3.492 1.404c-.912.936-1.368 2.124-1.368 3.564s.456 2.628 1.368 3.564zm31.635 3.204c-1.848 1.824-4.104 2.736-6.768 2.736-2.664 0-4.92-.912-6.768-2.736-1.824-1.848-2.736-4.104-2.736-6.768 0-2.664.912-4.908 2.736-6.732 1.848-1.848 4.104-2.772 6.768-2.772 2.664 0 4.92.924 6.768 2.772 1.848 1.824 2.772 4.068 2.772 6.732 0 2.664-.924 4.92-2.772 6.768zm-10.26-3.204c.936.936 2.1 1.404 3.492 1.404s2.556-.468 3.492-1.404c.936-.936 1.404-2.124 1.404-3.564s-.468-2.628-1.404-3.564c-.936-.936-2.1-1.404-3.492-1.404s-2.556.468-3.492 1.404c-.912.936-1.368 2.124-1.368 3.564s.456 2.628 1.368 3.564zm24.831 5.94c-2.832 0-5.124-.912-6.876-2.736-1.728-1.824-2.592-4.14-2.592-6.948 0-3.072.456-5.436 1.368-7.092.912-1.68 2.748-3.204 5.508-4.572.408-.192.984-.456 1.728-.792.744-.36 1.248-.612 1.512-.756.288-.144.672-.36 1.152-.648.48-.288.816-.54 1.008-.756.216-.24.444-.54.684-.9.24-.36.432-.756.576-1.188l3.816 2.196c-.312 1.464-1.02 2.604-2.124 3.42-1.08.792-2.712 1.608-4.896 2.448-1.536.6-2.652 1.2-3.348 1.8-.696.6-1.2 1.32-1.512 2.16 1.344-1.368 3.144-2.052 5.4-2.052 1.992 0 3.768.732 5.328 2.196 1.56 1.44 2.34 3.36 2.34 5.76 0 2.472-.84 4.5-2.52 6.084-1.656 1.584-3.84 2.376-6.552 2.376zm-3.312-5.472c.888.816 1.98 1.224 3.276 1.224 1.296 0 2.364-.396 3.204-1.188.84-.792 1.26-1.8 1.26-3.024s-.42-2.232-1.26-3.024c-.84-.816-1.92-1.224-3.24-1.224-1.176 0-2.232.372-3.168 1.116-.912.744-1.368 1.74-1.368 2.988 0 1.272.432 2.316 1.296 3.132zm40.406.612h2.376v9.18h-4.536V78h-23.04V60h4.644v13.644h5.616V60h4.644v13.644h5.652V60h4.644v13.644zm8.537-2.736c.624 2.256 2.316 3.384 5.076 3.384 1.776 0 3.12-.6 4.032-1.8l3.744 2.16c-1.776 2.568-4.392 3.852-7.848 3.852-2.976 0-5.364-.9-7.164-2.7-1.8-1.8-2.7-4.068-2.7-6.804 0-2.712.888-4.968 2.664-6.768 1.776-1.824 4.056-2.736 6.84-2.736 2.64 0 4.812.912 6.516 2.736 1.728 1.824 2.592 4.08 2.592 6.768 0 .6-.06 1.236-.18 1.908h-13.572zm-.072-3.6h9.18c-.264-1.224-.816-2.136-1.656-2.736-.816-.6-1.752-.9-2.808-.9-1.248 0-2.28.324-3.096.972-.816.624-1.356 1.512-1.62 2.664zm39.026 1.476c1.68.816 2.52 2.184 2.52 4.104 0 1.512-.528 2.748-1.584 3.708-1.032.936-2.508 1.404-4.428 1.404h-9.468V60h8.748c1.896 0 3.36.468 4.392 1.404 1.056.936 1.584 2.16 1.584 3.672 0 1.584-.588 2.82-1.764 3.708zm-4.644-4.968h-3.96v3.24h3.96c1.32 0 1.98-.54 1.98-1.62s-.66-1.62-1.98-1.62zm.612 10.26c1.344 0 2.016-.576 2.016-1.728 0-.504-.18-.9-.54-1.188-.36-.288-.852-.432-1.476-.432h-4.572v3.348h4.572zm13.382-3.168c.624 2.256 2.316 3.384 5.076 3.384 1.776 0 3.12-.6 4.032-1.8l3.744 2.16c-1.776 2.568-4.392 3.852-7.848 3.852-2.976 0-5.364-.9-7.164-2.7-1.8-1.8-2.7-4.068-2.7-6.804 0-2.712.888-4.968 2.664-6.768 1.776-1.824 4.056-2.736 6.84-2.736 2.64 0 4.812.912 6.516 2.736 1.728 1.824 2.592 4.08 2.592 6.768 0 .6-.06 1.236-.18 1.908h-13.572zm-.072-3.6h9.18c-.264-1.224-.816-2.136-1.656-2.736-.816-.6-1.752-.9-2.808-.9-1.248 0-2.28.324-3.096.972-.816.624-1.356 1.512-1.62 2.664zm25.494 11.196c-2.712 0-4.98-.912-6.804-2.736-1.8-1.824-2.7-4.08-2.7-6.768 0-2.688.9-4.944 2.7-6.768 1.824-1.824 4.092-2.736 6.804-2.736 1.752 0 3.348.42 4.788 1.26 1.44.84 2.532 1.968 3.276 3.384l-3.996 2.34c-.36-.744-.912-1.332-1.656-1.764-.72-.432-1.536-.648-2.448-.648-1.392 0-2.544.468-3.456 1.404-.912.912-1.368 2.088-1.368 3.528 0 1.416.456 2.592 1.368 3.528.912.912 2.064 1.368 3.456 1.368.936 0 1.764-.204 2.484-.612.744-.432 1.296-1.02 1.656-1.764l4.032 2.304c-.792 1.416-1.908 2.556-3.348 3.42-1.44.84-3.036 1.26-4.788 1.26zM625.53 65.76c2.04 0 3.684.564 4.932 1.692 1.248 1.104 1.872 2.58 1.872 4.428 0 1.848-.624 3.336-1.872 4.464C629.214 77.448 627.57 78 625.53 78h-8.136V60h4.644v5.76h3.492zm.036 8.136c.648 0 1.176-.18 1.584-.54.432-.384.648-.876.648-1.476s-.216-1.092-.648-1.476c-.408-.384-.936-.576-1.584-.576h-3.528v4.068h3.528zM657.249 60h3.456v18h-4.536V67.776L647.709 78h-3.456V60h4.536v10.224L657.249 60zm19.519 0h4.644v18h-4.644v-6.84h-7.164V78h-4.644V60h4.644v6.804h7.164V60zm23.083 0v4.464h-5.616V78h-4.644V64.464h-5.688V60h15.948zm5.701 10.908c.624 2.256 2.316 3.384 5.076 3.384 1.776 0 3.12-.6 4.032-1.8l3.744 2.16c-1.776 2.568-4.392 3.852-7.848 3.852-2.976 0-5.364-.9-7.164-2.7-1.8-1.8-2.7-4.068-2.7-6.804 0-2.712.888-4.968 2.664-6.768 1.776-1.824 4.056-2.736 6.84-2.736 2.64 0 4.812.912 6.516 2.736 1.728 1.824 2.592 4.08 2.592 6.768 0 .6-.06 1.236-.18 1.908h-13.572zm-.072-3.6h9.18c-.264-1.224-.816-2.136-1.656-2.736-.816-.6-1.752-.9-2.808-.9-1.248 0-2.28.324-3.096.972-.816.624-1.356 1.512-1.62 2.664zm27.542-7.812c2.424 0 4.488.924 6.192 2.772 1.728 1.824 2.592 4.068 2.592 6.732 0 2.664-.864 4.92-2.592 6.768-1.704 1.824-3.768 2.736-6.192 2.736-2.52 0-4.464-.876-5.832-2.628V85.2h-4.644V60h4.644v2.124c1.368-1.752 3.312-2.628 5.832-2.628zm-4.428 13.176c.936.936 2.124 1.404 3.564 1.404s2.628-.468 3.564-1.404c.96-.96 1.44-2.184 1.44-3.672s-.48-2.7-1.44-3.636c-.936-.96-2.124-1.44-3.564-1.44s-2.628.48-3.564 1.44c-.936.936-1.404 2.148-1.404 3.636s.468 2.712 1.404 3.672zM756.889 60h4.644v18h-4.644v-6.84h-7.164V78h-4.644V60h4.644v6.804h7.164V60zm12.823 10.908c.624 2.256 2.316 3.384 5.076 3.384 1.776 0 3.12-.6 4.032-1.8l3.744 2.16c-1.776 2.568-4.392 3.852-7.848 3.852-2.976 0-5.364-.9-7.164-2.7-1.8-1.8-2.7-4.068-2.7-6.804 0-2.712.888-4.968 2.664-6.768 1.776-1.824 4.056-2.736 6.84-2.736 2.64 0 4.812.912 6.516 2.736 1.728 1.824 2.592 4.08 2.592 6.768 0 .6-.06 1.236-.18 1.908h-13.572zm-.072-3.6h9.18c-.264-1.224-.816-2.136-1.656-2.736-.816-.6-1.752-.9-2.808-.9-1.248 0-2.28.324-3.096.972-.816.624-1.356 1.512-1.62 2.664zM800.187 60v4.464h-5.616V78h-4.644V64.464h-5.688V60h15.948zM12.6 103.496c2.424 0 4.488.924 6.192 2.772 1.728 1.824 2.592 4.068 2.592 6.732 0 2.664-.864 4.92-2.592 6.768-1.704 1.824-3.768 2.736-6.192 2.736-2.52 0-4.464-.876-5.832-2.628v9.324H2.124V104h4.644v2.124c1.368-1.752 3.312-2.628 5.832-2.628zm-4.428 13.176c.936.936 2.124 1.404 3.564 1.404s2.628-.468 3.564-1.404c.96-.96 1.44-2.184 1.44-3.672s-.48-2.7-1.44-3.636c-.936-.96-2.124-1.44-3.564-1.44s-2.628.48-3.564 1.44c-.936.936-1.404 2.148-1.404 3.636s.468 2.712 1.404 3.672zM38.3392 104h4.644v18h-4.644v-2.124c-1.392 1.752-3.348 2.628-5.868 2.628-2.4 0-4.464-.912-6.192-2.736-1.704-1.848-2.556-4.104-2.556-6.768 0-2.664.852-4.908 2.556-6.732 1.728-1.848 3.792-2.772 6.192-2.772 2.52 0 4.476.876 5.868 2.628V104zm-8.568 12.672c.936.936 2.124 1.404 3.564 1.404s2.628-.468 3.564-1.404c.96-.96 1.44-2.184 1.44-3.672s-.48-2.7-1.44-3.636c-.936-.96-2.124-1.44-3.564-1.44s-2.628.48-3.564 1.44c-.936.936-1.404 2.148-1.404 3.636s.468 2.712 1.404 3.672zm25.9551 5.832c-2.832 0-5.124-.912-6.876-2.736-1.728-1.824-2.592-4.14-2.592-6.948 0-3.072.456-5.436 1.368-7.092.912-1.68 2.748-3.204 5.508-4.572.408-.192.984-.456 1.728-.792.744-.36 1.248-.612 1.512-.756.288-.144.672-.36 1.152-.648.48-.288.816-.54 1.008-.756.216-.24.444-.54.684-.9.24-.36.432-.756.576-1.188l3.816 2.196c-.312 1.464-1.02 2.604-2.124 3.42-1.08.792-2.712 1.608-4.896 2.448-1.536.6-2.652 1.2-3.348 1.8-.696.6-1.2 1.32-1.512 2.16 1.344-1.368 3.144-2.052 5.4-2.052 1.992 0 3.768.732 5.328 2.196 1.56 1.44 2.34 3.36 2.34 5.76 0 2.472-.84 4.5-2.52 6.084-1.656 1.584-3.84 2.376-6.552 2.376zm-3.312-5.472c.888.816 1.98 1.224 3.276 1.224 1.296 0 2.364-.396 3.204-1.188.84-.792 1.26-1.8 1.26-3.024s-.42-2.232-1.26-3.024c-.84-.816-1.92-1.224-3.24-1.224-1.176 0-2.232.372-3.168 1.116-.912.744-1.368 1.74-1.368 2.988 0 1.272.432 2.316 1.296 3.132zm30.5418 2.736c-1.848 1.824-4.104 2.736-6.768 2.736-2.664 0-4.92-.912-6.768-2.736-1.824-1.848-2.736-4.104-2.736-6.768 0-2.664.912-4.908 2.736-6.732 1.848-1.848 4.104-2.772 6.768-2.772 2.664 0 4.92.924 6.768 2.772 1.848 1.824 2.772 4.068 2.772 6.732 0 2.664-.924 4.92-2.772 6.768zm-10.26-3.204c.936.936 2.1 1.404 3.492 1.404s2.556-.468 3.492-1.404c.936-.936 1.404-2.124 1.404-3.564s-.468-2.628-1.404-3.564c-.936-.936-2.1-1.404-3.492-1.404s-2.556.468-3.492 1.404c-.912.936-1.368 2.124-1.368 3.564s.456 2.628 1.368 3.564zM102.476 104v4.464H96.86V122h-4.644v-13.536h-5.688V104h15.948zm15.457 0h4.644v18h-4.644v-2.124c-1.392 1.752-3.348 2.628-5.868 2.628-2.4 0-4.464-.912-6.192-2.736-1.704-1.848-2.556-4.104-2.556-6.768 0-2.664.852-4.908 2.556-6.732 1.728-1.848 3.792-2.772 6.192-2.772 2.52 0 4.476.876 5.868 2.628V104zm-8.568 12.672c.936.936 2.124 1.404 3.564 1.404s2.628-.468 3.564-1.404c.96-.96 1.44-2.184 1.44-3.672s-.48-2.7-1.44-3.636c-.936-.96-2.124-1.44-3.564-1.44s-2.628.48-3.564 1.44c-.936.936-1.404 2.148-1.404 3.636s.468 2.712 1.404 3.672zM142.232 104v18h-4.644v-13.536h-4.968v6.012c0 5.568-2.532 8.076-7.596 7.524v-4.356c.96.24 1.692.084 2.196-.468.504-.576.756-1.56.756-2.952V104h14.256zm21.74 18.504c-2.832 0-5.124-.912-6.876-2.736-1.728-1.824-2.592-4.14-2.592-6.948 0-3.072.456-5.436 1.368-7.092.912-1.68 2.748-3.204 5.508-4.572.408-.192.984-.456 1.728-.792.744-.36 1.248-.612 1.512-.756.288-.144.672-.36 1.152-.648.48-.288.816-.54 1.008-.756.216-.24.444-.54.684-.9.24-.36.432-.756.576-1.188l3.816 2.196c-.312 1.464-1.02 2.604-2.124 3.42-1.08.792-2.712 1.608-4.896 2.448-1.536.6-2.652 1.2-3.348 1.8-.696.6-1.2 1.32-1.512 2.16 1.344-1.368 3.144-2.052 5.4-2.052 1.992 0 3.768.732 5.328 2.196 1.56 1.44 2.34 3.36 2.34 5.76 0 2.472-.84 4.5-2.52 6.084-1.656 1.584-3.84 2.376-6.552 2.376zm-3.312-5.472c.888.816 1.98 1.224 3.276 1.224 1.296 0 2.364-.396 3.204-1.188.84-.792 1.26-1.8 1.26-3.024s-.42-2.232-1.26-3.024c-.84-.816-1.92-1.224-3.24-1.224-1.176 0-2.232.372-3.168 1.116-.912.744-1.368 1.74-1.368 2.988 0 1.272.432 2.316 1.296 3.132zm23.342-7.272c2.04 0 3.684.564 4.932 1.692 1.248 1.104 1.872 2.58 1.872 4.428 0 1.848-.624 3.336-1.872 4.464-1.248 1.104-2.892 1.656-4.932 1.656h-8.136v-18h4.644v5.76h3.492zm8.784-5.76h4.644v18h-4.644v-18zm-8.748 13.896c.648 0 1.176-.18 1.584-.54.432-.384.648-.876.648-1.476s-.216-1.092-.648-1.476c-.408-.384-.936-.576-1.584-.576h-3.528v4.068h3.528zM221.291 104h4.644v18h-4.644v-5.724c-1.344.432-2.772.648-4.284.648-2.184 0-3.936-.552-5.256-1.656-1.296-1.104-1.944-2.712-1.944-4.824V104h4.644v5.904c0 1.8 1.116 2.7 3.348 2.7 1.296 0 2.46-.228 3.492-.684V104zm12.78 10.908c.624 2.256 2.316 3.384 5.076 3.384 1.776 0 3.12-.6 4.032-1.8l3.744 2.16c-1.776 2.568-4.392 3.852-7.848 3.852-2.976 0-5.364-.9-7.164-2.7-1.8-1.8-2.7-4.068-2.7-6.804 0-2.712.888-4.968 2.664-6.768 1.776-1.824 4.056-2.736 6.84-2.736 2.64 0 4.812.912 6.516 2.736 1.728 1.824 2.592 4.08 2.592 6.768 0 .6-.06 1.236-.18 1.908h-13.572zm-.072-3.6h9.18c-.264-1.224-.816-2.136-1.656-2.736-.816-.6-1.752-.9-2.808-.9-1.248 0-2.28.324-3.096.972-.816.624-1.356 1.512-1.62 2.664zm27.542-7.812c2.424 0 4.488.924 6.192 2.772 1.728 1.824 2.592 4.068 2.592 6.732 0 2.664-.864 4.92-2.592 6.768-1.704 1.824-3.768 2.736-6.192 2.736-2.52 0-4.464-.876-5.832-2.628v9.324h-4.644V104h4.644v2.124c1.368-1.752 3.312-2.628 5.832-2.628zm-4.428 13.176c.936.936 2.124 1.404 3.564 1.404s2.628-.468 3.564-1.404c.96-.96 1.44-2.184 1.44-3.672s-.48-2.7-1.44-3.636c-.936-.96-2.124-1.44-3.564-1.44s-2.628.48-3.564 1.44c-.936.936-1.404 2.148-1.404 3.636s.468 2.712 1.404 3.672zm20.412-1.764c.624 2.256 2.316 3.384 5.076 3.384 1.776 0 3.12-.6 4.032-1.8l3.744 2.16c-1.776 2.568-4.392 3.852-7.848 3.852-2.976 0-5.364-.9-7.164-2.7-1.8-1.8-2.7-4.068-2.7-6.804 0-2.712.888-4.968 2.664-6.768 1.776-1.824 4.056-2.736 6.84-2.736 2.64 0 4.812.912 6.516 2.736 1.728 1.824 2.592 4.08 2.592 6.768 0 .6-.06 1.236-.18 1.908h-13.572zm-.072-3.6h9.18c-.264-1.224-.816-2.136-1.656-2.736-.816-.6-1.752-.9-2.808-.9-1.248 0-2.28.324-3.096.972-.816.624-1.356 1.512-1.62 2.664zm27.227 1.512c1.824.888 2.736 2.316 2.736 4.284 0 1.536-.636 2.82-1.908 3.852-1.272 1.032-3.06 1.548-5.364 1.548-3.648 0-6.132-1.44-7.452-4.32l3.78-2.232c.576 1.632 1.812 2.448 3.708 2.448.864 0 1.524-.168 1.98-.504.48-.336.72-.792.72-1.368 0-1.104-.708-1.656-2.124-1.656H298.2v-3.96h1.944c1.392 0 2.088-.552 2.088-1.656 0-.528-.204-.948-.612-1.26-.408-.312-.948-.468-1.62-.468-1.56 0-2.676.756-3.348 2.268l-3.744-2.16c1.368-2.76 3.708-4.14 7.02-4.14 2.064 0 3.696.528 4.896 1.584 1.224 1.032 1.836 2.292 1.836 3.78 0 1.752-.66 3.072-1.98 3.96zm38.959 9.18h-5.22l-5.508-8.064V122h-4.536v-8.064L322.867 122h-5.184l6.48-9.108-6.12-8.892h5.184l5.148 7.812V104h4.536v7.812l5.148-7.812h5.22l-6.156 8.892 6.516 9.108zm16.454-2.232c-1.848 1.824-4.104 2.736-6.768 2.736-2.664 0-4.92-.912-6.768-2.736-1.824-1.848-2.736-4.104-2.736-6.768 0-2.664.912-4.908 2.736-6.732 1.848-1.848 4.104-2.772 6.768-2.772 2.664 0 4.92.924 6.768 2.772 1.848 1.824 2.772 4.068 2.772 6.732 0 2.664-.924 4.92-2.772 6.768zm-10.26-3.204c.936.936 2.1 1.404 3.492 1.404s2.556-.468 3.492-1.404c.936-.936 1.404-2.124 1.404-3.564s-.468-2.628-1.404-3.564c-.936-.936-2.1-1.404-3.492-1.404s-2.556.468-3.492 1.404c-.912.936-1.368 2.124-1.368 3.564s.456 2.628 1.368 3.564zM382.584 104v18h-4.644v-13.644h-7.164V122h-4.644v-18h16.452zm15.991 0h4.968l-6.552 18c-1.824 5.064-4.992 7.464-9.504 7.2v-4.32c1.224.024 2.184-.204 2.88-.684.72-.48 1.296-1.284 1.728-2.412L384.823 104h4.932l4.824 12.096L398.575 104z" fill="#fff"/></svg>