<svg width="1455" height="222" viewBox="0 0 1455 222" fill="none" xmlns="http://www.w3.org/2000/svg"><path d="M24.2 15.5h11.55L24.64 41.57c-1.8333 4.29-4.2533 7.48-7.26 9.57-2.97 2.09-6.8567 3.0433-11.66 2.86V43.77c3.33667.2567 5.8667-.385 7.59-1.925L.55 15.5H12.1l6.655 14.63L24.2 15.5zm33.9414 24.475c2.6767 1.21 4.015 3.2083 4.015 5.995 0 2.4933-.8433 4.455-2.53 5.885-1.65 1.43-4.1066 2.145-7.37 2.145h-15.95V26.5h15.125c3.2634 0 5.72.715 7.37 2.145 1.6867 1.3933 2.53 3.3367 2.53 5.83 0 2.42-1.0633 4.2533-3.19 5.5zm-8.58-6.38h-3.355v3.41h3.355c1.2467 0 1.87-.55 1.87-1.65 0-1.1733-.6233-1.76-1.87-1.76zm.495 13.31c1.2467 0 1.87-.5867 1.87-1.76 0-1.1-.6233-1.65-1.87-1.65h-3.85v3.41h3.85zM79.7229 33.65c3.3367 0 5.9584.9167 7.865 2.75 1.9434 1.7967 2.915 4.2717 2.915 7.425 0 3.1533-.9716 5.6467-2.915 7.48C85.6813 53.1017 83.0596 54 79.7229 54h-14.52V26.5h10.175v7.15h4.345zm12.43-7.15h10.1751V54H92.1529V26.5zm-13.695 19.25c1.43 0 2.145-.6417 2.145-1.925s-.715-1.925-2.145-1.925h-3.08v3.85h3.08zm41.4631-2.475l-4.95 18.425h-8.25l1.65-18.425h11.55zm28.635 11.495c-4.217 0-7.718-1.375-10.505-4.125-2.787-2.7867-4.18-6.2517-4.18-10.395s1.393-7.59 4.18-10.34c2.787-2.7867 6.288-4.18 10.505-4.18 2.713 0 5.188.66 7.425 1.98 2.273 1.2833 4.015 3.025 5.225 5.225l-8.58 4.895c-.917-1.54-2.273-2.31-4.07-2.31-1.283 0-2.365.4583-3.245 1.375-.843.88-1.265 1.9983-1.265 3.355s.422 2.4933 1.265 3.41c.88.88 1.962 1.32 3.245 1.32 1.907 0 3.263-.7883 4.07-2.365l8.58 4.95c-1.21 2.2367-2.952 3.9967-5.225 5.28-2.237 1.2833-4.712 1.925-7.425 1.925zm33.371-28.27h10.175V54h-10.175v-2.475c-1.76 2.1633-4.217 3.245-7.37 3.245-3.704 0-6.729-1.375-9.075-4.125-2.347-2.75-3.52-6.215-3.52-10.395s1.173-7.645 3.52-10.395c2.346-2.75 5.371-4.125 9.075-4.125 3.153 0 5.61 1.0817 7.37 3.245V26.5zm-8.47 17.435c.916.99 2.108 1.485 3.575 1.485 1.466 0 2.64-.495 3.52-1.485.916-.99 1.375-2.2183 1.375-3.685s-.459-2.695-1.375-3.685c-.88-.99-2.054-1.485-3.52-1.485-1.467 0-2.659.495-3.575 1.485-.88.99-1.32 2.2183-1.32 3.685s.44 2.695 1.32 3.685zm27.194-20.13v-8.25h19.25v8.25h-19.25zm15.18 2.695h8.195V54h-9.9V42.175L204.721 54h-8.195V26.5h9.9v11.825l9.405-11.825zm35.974 0v9.68h-7.48V54h-10.23V36.18h-7.59V26.5h25.3zm40.421 0V54h-10.175V36.18h-6.6V54h-10.175V26.5h26.95zm17.895 28.27c-4.107 0-7.608-1.3933-10.505-4.18-2.86-2.7867-4.29-6.2333-4.29-10.34s1.43-7.5533 4.29-10.34c2.86-2.7867 6.362-4.18 10.505-4.18 4.143 0 7.645 1.3933 10.505 4.18 2.86 2.7867 4.29 6.2333 4.29 10.34s-1.43 7.5533-4.29 10.34c-2.86 2.7867-6.362 4.18-10.505 4.18zm-3.355-11c.88.88 1.998 1.32 3.355 1.32s2.457-.44 3.3-1.32c.88-.9167 1.32-2.09 1.32-3.52 0-1.43-.44-2.585-1.32-3.465-.843-.9167-1.943-1.375-3.3-1.375-1.357 0-2.475.4583-3.355 1.375-.843.88-1.265 2.035-1.265 3.465 0 1.43.422 2.6033 1.265 3.52zM356.168 54h-11.275l-6.6-11v11h-10.175V26.5h10.175v10.67l5.775-10.67h11.55l-8.36 13.75 8.91 13.75zm19.011-27.5h10.175V54h-10.175v-2.475c-1.76 2.1633-4.217 3.245-7.37 3.245-3.704 0-6.729-1.375-9.075-4.125-2.347-2.75-3.52-6.215-3.52-10.395s1.173-7.645 3.52-10.395c2.346-2.75 5.371-4.125 9.075-4.125 3.153 0 5.61 1.0817 7.37 3.245V26.5zm-8.47 17.435c.916.99 2.108 1.485 3.575 1.485 1.466 0 2.64-.495 3.52-1.485.916-.99 1.375-2.2183 1.375-3.685s-.459-2.695-1.375-3.685c-.88-.99-2.054-1.485-3.52-1.485-1.467 0-2.659.495-3.575 1.485-.88.99-1.32 2.2183-1.32 3.685s.44 2.695 1.32 3.685zM415.914 26.5h10.175V54h-10.175v-7.15c-1.687.4033-3.337.605-4.95.605-3.337 0-6.05-.9167-8.14-2.75-2.09-1.87-3.135-4.455-3.135-7.755V26.5h10.175v8.25c0 2.2367 1.192 3.355 3.575 3.355.88 0 1.705-.11 2.475-.33V26.5zm37.952 0v9.68h-7.48V54h-10.23V36.18h-7.59V26.5h25.3zm15.508 28.27c-4.107 0-7.608-1.3933-10.505-4.18-2.86-2.7867-4.29-6.2333-4.29-10.34s1.43-7.5533 4.29-10.34c2.86-2.7867 6.362-4.18 10.505-4.18 4.143 0 7.645 1.3933 10.505 4.18 2.86 2.7867 4.29 6.2333 4.29 10.34s-1.43 7.5533-4.29 10.34c-2.86 2.7867-6.362 4.18-10.505 4.18zm-3.355-11c.88.88 1.998 1.32 3.355 1.32s2.457-.44 3.3-1.32c.88-.9167 1.32-2.09 1.32-3.52 0-1.43-.44-2.585-1.32-3.465-.843-.9167-1.943-1.375-3.3-1.375-1.357 0-2.475.4583-3.355 1.375-.843.88-1.265 2.035-1.265 3.465 0 1.43.422 2.6033 1.265 3.52zm45.838 11c-4.217 0-7.719-1.375-10.505-4.125-2.787-2.7867-4.18-6.2517-4.18-10.395s1.393-7.59 4.18-10.34c2.786-2.7867 6.288-4.18 10.505-4.18 2.713 0 5.188.66 7.425 1.98 2.273 1.2833 4.015 3.025 5.225 5.225l-8.58 4.895c-.917-1.54-2.274-2.31-4.07-2.31-1.284 0-2.365.4583-3.245 1.375-.844.88-1.265 1.9983-1.265 3.355s.421 2.4933 1.265 3.41c.88.88 1.961 1.32 3.245 1.32 1.906 0 3.263-.7883 4.07-2.365l8.58 4.95c-1.21 2.2367-2.952 3.9967-5.225 5.28-2.237 1.2833-4.712 1.925-7.425 1.925zm42.633-10.45h3.575v17.05h-9.625V54h-13.2v7.37h-9.625V44.32h3.08c1.32-2.1633 1.98-5.225 1.98-9.185V26.5h23.815v17.82zm-15.4 0h5.5v-8.8h-4.015c-.036 3.4833-.531 6.4167-1.485 8.8zm30.242-.605c.88 1.8333 2.75 2.75 5.61 2.75 1.686 0 3.245-.5867 4.675-1.76l6.655 5.61c-2.75 2.97-6.637 4.455-11.66 4.455-4.694 0-8.47-1.3567-11.33-4.07-2.824-2.75-4.235-6.1967-4.235-10.34 0-4.18 1.375-7.6633 4.125-10.45 2.786-2.7867 6.288-4.18 10.505-4.18 4.18 0 7.608 1.375 10.285 4.125 2.713 2.7133 4.07 6.1417 4.07 10.285 0 1.21-.147 2.4017-.44 3.575h-18.26zm-.165-6.545h9.24c-.624-2.2-2.109-3.3-4.455-3.3-2.384 0-3.979 1.1-4.785 3.3zm48.67-10.67V54h-10.175V36.18h-4.95v6.435c0 4.4733-1.118 7.6267-3.355 9.46-2.236 1.7967-5.83 2.4383-10.78 1.925v-9.35c1.357.3667 2.347.22 2.97-.44.66-.6967.99-1.9617.99-3.795V26.5h25.3zm23.05 0h10.175V54h-10.175v-2.475c-1.76 2.1633-4.217 3.245-7.37 3.245-3.704 0-6.729-1.375-9.075-4.125-2.347-2.75-3.52-6.215-3.52-10.395s1.173-7.645 3.52-10.395c2.346-2.75 5.371-4.125 9.075-4.125 3.153 0 5.61 1.0817 7.37 3.245V26.5zm-8.47 17.435c.916.99 2.108 1.485 3.575 1.485 1.466 0 2.64-.495 3.52-1.485.916-.99 1.375-2.2183 1.375-3.685s-.459-2.695-1.375-3.685c-.88-.99-2.054-1.485-3.52-1.485-1.467 0-2.659.495-3.575 1.485-.88.99-1.32 2.2183-1.32 3.685s.44 2.695 1.32 3.685zM672.261 26.5h10.175V54h-10.175v-8.91h-6.6V54h-10.175V26.5h10.175v8.91h6.6V26.5zm48.978 0v9.68h-7.48V54h-10.23V36.18h-7.59V26.5h25.3zm15.508 28.27c-4.107 0-7.608-1.3933-10.505-4.18-2.86-2.7867-4.29-6.2333-4.29-10.34s1.43-7.5533 4.29-10.34c2.86-2.7867 6.362-4.18 10.505-4.18 4.143 0 7.645 1.3933 10.505 4.18 2.86 2.7867 4.29 6.2333 4.29 10.34s-1.43 7.5533-4.29 10.34c-2.86 2.7867-6.362 4.18-10.505 4.18zm-3.355-11c.88.88 1.998 1.32 3.355 1.32s2.457-.44 3.3-1.32c.88-.9167 1.32-2.09 1.32-3.52 0-1.43-.44-2.585-1.32-3.465-.843-.9167-1.943-1.375-3.3-1.375-1.357 0-2.475.4583-3.355 1.375-.843.88-1.265 2.035-1.265 3.465 0 1.43.422 2.6033 1.265 3.52zm48.962-17.27V54h-10.175V36.18h-4.95v6.435c0 4.4733-1.118 7.6267-3.355 9.46-2.237 1.7967-5.83 2.4383-10.78 1.925v-9.35c1.357.3667 2.347.22 2.97-.44.66-.6967.99-1.9617.99-3.795V26.5h25.3zm18.922 7.15c3.336 0 5.958.9167 7.865 2.75 1.943 1.7967 2.915 4.2717 2.915 7.425 0 3.1533-.972 5.6467-2.915 7.48-1.907 1.7967-4.529 2.695-7.865 2.695h-14.52V26.5h10.175v7.15h4.345zm-1.265 12.1c1.43 0 2.145-.6417 2.145-1.925s-.715-1.925-2.145-1.925h-3.08v3.85h3.08zM842.843 54h-11.275l-6.6-11v11h-10.175V26.5h10.175v10.67l5.775-10.67h11.55l-8.36 13.75 8.91 13.75zm13.84.77c-4.106 0-7.608-1.3933-10.505-4.18-2.86-2.7867-4.29-6.2333-4.29-10.34s1.43-7.5533 4.29-10.34c2.86-2.7867 6.362-4.18 10.505-4.18 4.144 0 7.645 1.3933 10.505 4.18 2.86 2.7867 4.29 6.2333 4.29 10.34s-1.43 7.5533-4.29 10.34c-2.86 2.7867-6.361 4.18-10.505 4.18zm-3.355-11c.88.88 1.999 1.32 3.355 1.32 1.357 0 2.457-.44 3.3-1.32.88-.9167 1.32-2.09 1.32-3.52 0-1.43-.44-2.585-1.32-3.465-.843-.9167-1.943-1.375-3.3-1.375-1.356 0-2.475.4583-3.355 1.375-.843.88-1.265 2.035-1.265 3.465 0 1.43.422 2.6033 1.265 3.52zm59.038.55h3.575v17.05h-9.625V54h-13.2v7.37h-9.625V44.32h3.08c1.32-2.1633 1.98-5.225 1.98-9.185V26.5h23.815v17.82zm-15.4 0h5.5v-8.8h-4.015c-.036 3.4833-.531 6.4167-1.485 8.8zm49.851-17.82V54h-10.175V36.18h-4.95v6.435c0 4.4733-1.118 7.6267-3.355 9.46-2.237 1.7967-5.83 2.4383-10.78 1.925v-9.35c1.357.3667 2.347.22 2.97-.44.66-.6967.99-1.9617.99-3.795V26.5h25.3zm29.757 0V54h-10.175v-7.7h-.715l-4.84 7.7h-11.55l6.435-9.35c-2.97-1.87-4.455-4.5283-4.455-7.975 0-3.1533.953-5.6283 2.86-7.425 1.943-1.8333 4.583-2.75 7.92-2.75h14.52zm-13.255 8.25c-1.43 0-2.145.6417-2.145 1.925s.715 1.925 2.145 1.925h3.08v-3.85h-3.08zM33.99 96.5V124h-9.9v-12.1l-5.5 8.525h-.99l-5.5-8.525V124H2.2V96.5h9.9l5.995 9.35 5.995-9.35h9.9zm17.8888 28.27c-4.1067 0-7.6084-1.393-10.505-4.18-2.86-2.787-4.29-6.233-4.29-10.34s1.43-7.553 4.29-10.34c2.86-2.7867 6.3616-4.18 10.505-4.18 4.1433 0 7.645 1.3933 10.505 4.18 2.86 2.787 4.29 6.233 4.29 10.34s-1.43 7.553-4.29 10.34c-2.86 2.787-6.3617 4.18-10.505 4.18zm-3.355-11c.88.88 1.9983 1.32 3.355 1.32 1.3566 0 2.4566-.44 3.3-1.32.88-.917 1.32-2.09 1.32-3.52 0-1.43-.44-2.585-1.32-3.465-.8434-.917-1.9434-1.375-3.3-1.375-1.3567 0-2.475.458-3.355 1.375-.8434.88-1.265 2.035-1.265 3.465 0 1.43.4216 2.603 1.265 3.52zm35.652 11.11c-4.6934 0-8.4334-1.393-11.22-4.18-2.7867-2.787-4.18-6.563-4.18-11.33 0-4.583.7883-8.287 2.365-11.11 1.6133-2.86 4.0883-5.0967 7.425-6.71 3.7033-1.7967 6.215-3.1533 7.535-4.07 1.32-.9167 2.2733-2.0533 2.86-3.41l8.195 4.675c-.5867 1.98-1.595 3.5383-3.025 4.675-1.3934 1.1-3.5567 2.255-6.49 3.465-2.6034 1.0633-4.4367 1.9433-5.5 2.64-1.0634.66-1.8517 1.503-2.365 2.53 1.76-1.43 3.9783-2.145 6.655-2.145 3.3 0 6.1416 1.118 8.525 3.355 2.42 2.2 3.63 5.115 3.63 8.745 0 3.74-1.3017 6.82-3.905 9.24-2.6034 2.42-6.105 3.63-10.505 3.63zm-.22-8.525c1.2833 0 2.3466-.385 3.19-1.155.8433-.807 1.265-1.815 1.265-3.025 0-1.247-.44-2.273-1.32-3.08-.88-.807-1.9617-1.21-3.245-1.21-1.21 0-2.2734.385-3.19 1.155-.88.733-1.32 1.723-1.32 2.97 0 1.283.44 2.328 1.32 3.135.88.807 1.98 1.21 3.3 1.21zM120.655 96.5h8.195V124h-9.9v-11.825L109.545 124h-8.195V96.5h9.9v11.825l9.405-11.825zm40.21 0V124H150.69v-17.82h-4.95v6.435c0 4.473-1.119 7.627-3.355 9.46-2.237 1.797-5.83 2.438-10.78 1.925v-9.35c1.356.367 2.346.22 2.97-.44.66-.697.99-1.962.99-3.795V96.5h25.3zm18.921 7.15c3.337 0 5.959.917 7.865 2.75 1.944 1.797 2.915 4.272 2.915 7.425 0 3.153-.971 5.647-2.915 7.48-1.906 1.797-4.528 2.695-7.865 2.695h-14.52V96.5h10.175v7.15h4.345zm-1.265 12.1c1.43 0 2.145-.642 2.145-1.925s-.715-1.925-2.145-1.925h-3.08v3.85h3.08zm31.558-19.25h10.175V124h-10.175v-8.91h-6.6V124h-10.175V96.5h10.175v8.91h6.6V96.5zm28.069 28.27c-4.106 0-7.608-1.393-10.505-4.18-2.86-2.787-4.29-6.233-4.29-10.34s1.43-7.553 4.29-10.34c2.86-2.7867 6.362-4.18 10.505-4.18 4.144 0 7.645 1.3933 10.505 4.18 2.86 2.787 4.29 6.233 4.29 10.34s-1.43 7.553-4.29 10.34c-2.86 2.787-6.361 4.18-10.505 4.18zm-3.355-11c.88.88 1.999 1.32 3.355 1.32 1.357 0 2.457-.44 3.3-1.32.88-.917 1.32-2.09 1.32-3.52 0-1.43-.44-2.585-1.32-3.465-.843-.917-1.943-1.375-3.3-1.375-1.356 0-2.475.458-3.355 1.375-.843.88-1.265 2.035-1.265 3.465 0 1.43.422 2.603 1.265 3.52zm25.477-19.965v-8.25h19.25v8.25h-19.25zm15.18 2.695h8.195V124h-9.9v-11.825L264.34 124h-8.195V96.5h9.9v11.825L275.45 96.5zm45.445 13.475c2.677 1.21 4.015 3.208 4.015 5.995 0 2.493-.843 4.455-2.53 5.885-1.65 1.43-4.106 2.145-7.37 2.145h-15.95V96.5h15.125c3.264 0 5.72.715 7.37 2.145 1.687 1.393 2.53 3.337 2.53 5.83 0 2.42-1.063 4.253-3.19 5.5zm-8.58-6.38h-3.355v3.41h3.355c1.247 0 1.87-.55 1.87-1.65 0-1.173-.623-1.76-1.87-1.76zm.495 13.31c1.247 0 1.87-.587 1.87-1.76 0-1.1-.623-1.65-1.87-1.65h-3.85v3.41h3.85zm24.222-3.19c.88 1.833 2.75 2.75 5.61 2.75 1.687 0 3.245-.587 4.675-1.76l6.655 5.61c-2.75 2.97-6.637 4.455-11.66 4.455-4.693 0-8.47-1.357-11.33-4.07-2.823-2.75-4.235-6.197-4.235-10.34 0-4.18 1.375-7.663 4.125-10.45 2.787-2.7867 6.288-4.18 10.505-4.18 4.18 0 7.608 1.375 10.285 4.125 2.713 2.713 4.07 6.142 4.07 10.285 0 1.21-.147 2.402-.44 3.575h-18.26zm-.165-6.545h9.24c-.623-2.2-2.108-3.3-4.455-3.3-2.383 0-3.978 1.1-4.785 3.3zm39.411-11.44c3.704 0 6.729 1.375 9.075 4.125 2.347 2.75 3.52 6.215 3.52 10.395s-1.173 7.645-3.52 10.395c-2.346 2.75-5.371 4.125-9.075 4.125-3.153 0-5.61-1.082-7.37-3.245V135h-10.175V96.5h10.175v2.475c1.76-2.1633 4.217-3.245 7.37-3.245zm-6.05 18.205c.917.99 2.109 1.485 3.575 1.485 1.467 0 2.64-.495 3.52-1.485.917-.99 1.375-2.218 1.375-3.685s-.458-2.695-1.375-3.685c-.88-.99-2.053-1.485-3.52-1.485-1.466 0-2.658.495-3.575 1.485-.88.99-1.32 2.218-1.32 3.685s.44 2.695 1.32 3.685zm35.335 10.835c-4.217 0-7.719-1.375-10.505-4.125-2.787-2.787-4.18-6.252-4.18-10.395s1.393-7.59 4.18-10.34c2.786-2.7867 6.288-4.18 10.505-4.18 2.713 0 5.188.66 7.425 1.98 2.273 1.2833 4.015 3.025 5.225 5.225l-8.58 4.895c-.917-1.54-2.274-2.31-4.07-2.31-1.284 0-2.365.458-3.245 1.375-.844.88-1.265 1.998-1.265 3.355s.421 2.493 1.265 3.41c.88.88 1.961 1.32 3.245 1.32 1.906 0 3.263-.788 4.07-2.365l8.58 4.95c-1.21 2.237-2.952 3.997-5.225 5.28-2.237 1.283-4.712 1.925-7.425 1.925zm34.189-28.27h8.195V124h-9.9v-11.825L428.642 124h-8.195V96.5h9.9v11.825l9.405-11.825zm31.904 0h8.195V124h-9.9v-11.825L460.546 124h-8.195V96.5h9.9v11.825l9.405-11.825zm25.8 16.775l-4.95 18.425h-8.25l1.65-18.425h11.55zM529.39 96.5h10.175V124H529.39v-8.91h-6.6V124h-10.175V96.5h10.175v8.91h6.6V96.5zm28.07 28.27c-4.107 0-7.609-1.393-10.505-4.18-2.86-2.787-4.29-6.233-4.29-10.34s1.43-7.553 4.29-10.34c2.86-2.7867 6.361-4.18 10.505-4.18 4.143 0 7.645 1.3933 10.505 4.18 2.86 2.787 4.29 6.233 4.29 10.34s-1.43 7.553-4.29 10.34c-2.86 2.787-6.362 4.18-10.505 4.18zm-3.355-11c.88.88 1.998 1.32 3.355 1.32 1.356 0 2.456-.44 3.3-1.32.88-.917 1.32-2.09 1.32-3.52 0-1.43-.44-2.585-1.32-3.465-.844-.917-1.944-1.375-3.3-1.375-1.357 0-2.475.458-3.355 1.375-.844.88-1.265 2.035-1.265 3.465 0 1.43.421 2.603 1.265 3.52zm54.198-3.795c2.676 1.21 4.015 3.208 4.015 5.995 0 2.493-.844 4.455-2.53 5.885-1.65 1.43-4.107 2.145-7.37 2.145h-15.95V96.5h15.125c3.263 0 5.72.715 7.37 2.145 1.686 1.393 2.53 3.337 2.53 5.83 0 2.42-1.064 4.253-3.19 5.5zm-8.58-6.38h-3.355v3.41h3.355c1.246 0 1.87-.55 1.87-1.65 0-1.173-.624-1.76-1.87-1.76zm.495 13.31c1.246 0 1.87-.587 1.87-1.76 0-1.1-.624-1.65-1.87-1.65h-3.85v3.41h3.85zm29.666-13.255c3.337 0 5.958.917 7.865 2.75 1.943 1.797 2.915 4.272 2.915 7.425 0 3.153-.972 5.647-2.915 7.48-1.907 1.797-4.528 2.695-7.865 2.695h-14.52V96.5h10.175v7.15h4.345zm12.43-7.15h10.175V124h-10.175V96.5zm-13.695 19.25c1.43 0 2.145-.642 2.145-1.925s-.715-1.925-2.145-1.925h-3.08v3.85h3.08zm71.064-19.25V124h-9.9v-12.1l-5.5 8.525h-.99l-5.5-8.525V124h-9.9V96.5h9.9l5.995 9.35 5.995-9.35h9.9zm17.889 28.27c-4.107 0-7.608-1.393-10.505-4.18-2.86-2.787-4.29-6.233-4.29-10.34s1.43-7.553 4.29-10.34c2.86-2.7867 6.362-4.18 10.505-4.18 4.143 0 7.645 1.3933 10.505 4.18 2.86 2.787 4.29 6.233 4.29 10.34s-1.43 7.553-4.29 10.34c-2.86 2.787-6.362 4.18-10.505 4.18zm-3.355-11c.88.88 1.998 1.32 3.355 1.32s2.457-.44 3.3-1.32c.88-.917 1.32-2.09 1.32-3.52 0-1.43-.44-2.585-1.32-3.465-.843-.917-1.943-1.375-3.3-1.375-1.357 0-2.475.458-3.355 1.375-.843.88-1.265 2.035-1.265 3.465 0 1.43.422 2.603 1.265 3.52zM774.562 124h-11.11l-5.5-10.56V124h-10.175v-10.56l-5.5 10.56h-11.11l7.92-13.75-7.37-13.75h11.11l4.95 10.285V96.5h10.175v10.285l4.95-10.285h11.11l-7.37 13.75 7.92 13.75zm9.076-10.285c.88 1.833 2.75 2.75 5.61 2.75 1.687 0 3.245-.587 4.675-1.76l6.655 5.61c-2.75 2.97-6.636 4.455-11.66 4.455-4.693 0-8.47-1.357-11.33-4.07-2.823-2.75-4.235-6.197-4.235-10.34 0-4.18 1.375-7.663 4.125-10.45 2.787-2.7867 6.289-4.18 10.505-4.18 4.18 0 7.609 1.375 10.285 4.125 2.714 2.713 4.07 6.142 4.07 10.285 0 1.21-.146 2.402-.44 3.575h-18.26zm-.165-6.545h9.24c-.623-2.2-2.108-3.3-4.455-3.3-2.383 0-3.978 1.1-4.785 3.3zm44.705-10.67v9.68h-7.48V124h-10.23v-17.82h-7.59V96.5h25.3zm10.997 17.215c.88 1.833 2.75 2.75 5.61 2.75 1.687 0 3.245-.587 4.675-1.76l6.655 5.61c-2.75 2.97-6.636 4.455-11.66 4.455-4.693 0-8.47-1.357-11.33-4.07-2.823-2.75-4.235-6.197-4.235-10.34 0-4.18 1.375-7.663 4.125-10.45 2.787-2.7867 6.289-4.18 10.505-4.18 4.18 0 7.609 1.375 10.285 4.125 2.714 2.713 4.07 6.142 4.07 10.285 0 1.21-.146 2.402-.44 3.575h-18.26zm-.165-6.545h9.24c-.623-2.2-2.108-3.3-4.455-3.3-2.383 0-3.978 1.1-4.785 3.3zM29.15 166.5V194H18.975v-17.82h-6.6V194H2.2v-27.5h26.95zm17.8948 28.27c-4.1067 0-7.6084-1.393-10.505-4.18-2.86-2.787-4.29-6.233-4.29-10.34s1.43-7.553 4.29-10.34c2.86-2.787 6.3616-4.18 10.505-4.18 4.1433 0 7.645 1.393 10.505 4.18 2.86 2.787 4.29 6.233 4.29 10.34s-1.43 7.553-4.29 10.34c-2.86 2.787-6.3617 4.18-10.505 4.18zm-3.355-11c.88.88 1.9983 1.32 3.355 1.32 1.3566 0 2.4566-.44 3.3-1.32.88-.917 1.32-2.09 1.32-3.52 0-1.43-.44-2.585-1.32-3.465-.8434-.917-1.9434-1.375-3.3-1.375-1.3567 0-2.475.458-3.355 1.375-.8434.88-1.265 2.035-1.265 3.465 0 1.43.4216 2.603 1.265 3.52zm48.302-17.27V194h-10.175v-17.82h-6.6V194h-10.175v-27.5h26.95zm21.9622-.77c3.703 0 6.728 1.375 9.075 4.125 2.347 2.75 3.52 6.215 3.52 10.395s-1.173 7.645-3.52 10.395-5.372 4.125-9.075 4.125c-3.153 0-5.61-1.082-7.37-3.245V205H96.409v-38.5h10.175v2.475c1.76-2.163 4.217-3.245 7.37-3.245zm-6.05 18.205c.917.99 2.108 1.485 3.575 1.485s2.64-.495 3.52-1.485c.917-.99 1.375-2.218 1.375-3.685s-.458-2.695-1.375-3.685c-.88-.99-2.053-1.485-3.52-1.485s-2.658.495-3.575 1.485c-.88.99-1.32 2.218-1.32 3.685s.44 2.695 1.32 3.685zm35.444 10.835c-4.106 0-7.608-1.393-10.505-4.18-2.86-2.787-4.29-6.233-4.29-10.34s1.43-7.553 4.29-10.34c2.86-2.787 6.362-4.18 10.505-4.18 4.144 0 7.645 1.393 10.505 4.18 2.86 2.787 4.29 6.233 4.29 10.34s-1.43 7.553-4.29 10.34c-2.86 2.787-6.361 4.18-10.505 4.18zm-3.355-11c.88.88 1.999 1.32 3.355 1.32 1.357 0 2.457-.44 3.3-1.32.88-.917 1.32-2.09 1.32-3.52 0-1.43-.44-2.585-1.32-3.465-.843-.917-1.943-1.375-3.3-1.375-1.356 0-2.475.458-3.355 1.375-.843.88-1.265 2.035-1.265 3.465 0 1.43.422 2.603 1.265 3.52zm35.653 11.11c-4.694 0-8.434-1.393-11.22-4.18-2.787-2.787-4.18-6.563-4.18-11.33 0-4.583.788-8.287 2.365-11.11 1.613-2.86 4.088-5.097 7.425-6.71 3.703-1.797 6.215-3.153 7.535-4.07 1.32-.917 2.273-2.053 2.86-3.41l8.195 4.675c-.587 1.98-1.595 3.538-3.025 4.675-1.394 1.1-3.557 2.255-6.49 3.465-2.604 1.063-4.437 1.943-5.5 2.64-1.064.66-1.852 1.503-2.365 2.53 1.76-1.43 3.978-2.145 6.655-2.145 3.3 0 6.141 1.118 8.525 3.355 2.42 2.2 3.63 5.115 3.63 8.745 0 3.74-1.302 6.82-3.905 9.24-2.604 2.42-6.105 3.63-10.505 3.63zm-.22-8.525c1.283 0 2.346-.385 3.19-1.155.843-.807 1.265-1.815 1.265-3.025 0-1.247-.44-2.273-1.32-3.08-.88-.807-1.962-1.21-3.245-1.21-1.21 0-2.274.385-3.19 1.155-.88.733-1.32 1.723-1.32 2.97 0 1.283.44 2.328 1.32 3.135.88.807 1.98 1.21 3.3 1.21zm30.979 8.415c-4.107 0-7.608-1.393-10.505-4.18-2.86-2.787-4.29-6.233-4.29-10.34s1.43-7.553 4.29-10.34c2.86-2.787 6.362-4.18 10.505-4.18 4.143 0 7.645 1.393 10.505 4.18 2.86 2.787 4.29 6.233 4.29 10.34s-1.43 7.553-4.29 10.34c-2.86 2.787-6.362 4.18-10.505 4.18zm-3.355-11c.88.88 1.998 1.32 3.355 1.32s2.457-.44 3.3-1.32c.88-.917 1.32-2.09 1.32-3.52 0-1.43-.44-2.585-1.32-3.465-.843-.917-1.943-1.375-3.3-1.375-1.357 0-2.475.458-3.355 1.375-.843.88-1.265 2.035-1.265 3.465 0 1.43.422 2.603 1.265 3.52zm43.187-3.795c2.677 1.21 4.015 3.208 4.015 5.995 0 2.493-.843 4.455-2.53 5.885-1.65 1.43-4.107 2.145-7.37 2.145h-15.95v-27.5h15.125c3.263 0 5.72.715 7.37 2.145 1.687 1.393 2.53 3.337 2.53 5.83 0 2.42-1.063 4.253-3.19 5.5zm-8.58-6.38h-3.355v3.41h3.355c1.247 0 1.87-.55 1.87-1.65 0-1.173-.623-1.76-1.87-1.76zm.495 13.31c1.247 0 1.87-.587 1.87-1.76 0-1.1-.623-1.65-1.87-1.65h-3.85v3.41h3.85zm33.902-20.405h10.175V194h-10.175v-2.475c-1.76 2.163-4.217 3.245-7.37 3.245-3.704 0-6.729-1.375-9.075-4.125-2.347-2.75-3.52-6.215-3.52-10.395s1.173-7.645 3.52-10.395c2.346-2.75 5.371-4.125 9.075-4.125 3.153 0 5.61 1.082 7.37 3.245V166.5zm-8.47 17.435c.916.99 2.108 1.485 3.575 1.485 1.466 0 2.64-.495 3.52-1.485.916-.99 1.375-2.218 1.375-3.685s-.459-2.695-1.375-3.685c-.88-.99-2.054-1.485-3.52-1.485-1.467 0-2.659.495-3.575 1.485-.88.99-1.32 2.218-1.32 3.685s.44 2.695 1.32 3.685zm46.444-17.435v9.68h-7.48V194h-10.23v-17.82h-7.59v-9.68h25.3zm16.98 7.15c3.337 0 5.958.917 7.865 2.75 1.943 1.797 2.915 4.272 2.915 7.425 0 3.153-.972 5.647-2.915 7.48-1.907 1.797-4.528 2.695-7.865 2.695h-14.52v-27.5h10.175v7.15h4.345zm-1.265 12.1c1.43 0 2.145-.642 2.145-1.925s-.715-1.925-2.145-1.925h-3.08v3.85h3.08zm42.568-19.25h10.175V194h-10.175v-8.91h-6.6V194h-10.175v-27.5h10.175v8.91h6.6v-8.91zm33.24 0h10.175V194h-10.175v-2.475c-1.76 2.163-4.217 3.245-7.37 3.245-3.704 0-6.729-1.375-9.075-4.125-2.347-2.75-3.52-6.215-3.52-10.395s1.173-7.645 3.52-10.395c2.346-2.75 5.371-4.125 9.075-4.125 3.153 0 5.61 1.082 7.37 3.245V166.5zm-8.47 17.435c.916.99 2.108 1.485 3.575 1.485 1.466 0 2.64-.495 3.52-1.485.916-.99 1.375-2.218 1.375-3.685s-.459-2.695-1.375-3.685c-.88-.99-2.054-1.485-3.52-1.485-1.467 0-2.659.495-3.575 1.485-.88.99-1.32 2.218-1.32 3.685s.44 2.695 1.32 3.685zm50.855-17.435h10.175V194h-10.175v-8.91h-6.6V194h-10.175v-27.5h10.175v8.91h6.6v-8.91zm23.56 17.215c.88 1.833 2.75 2.75 5.61 2.75 1.686 0 3.245-.587 4.675-1.76l6.655 5.61c-2.75 2.97-6.637 4.455-11.66 4.455-4.694 0-8.47-1.357-11.33-4.07-2.824-2.75-4.235-6.197-4.235-10.34 0-4.18 1.375-7.663 4.125-10.45 2.786-2.787 6.288-4.18 10.505-4.18 4.18 0 7.608 1.375 10.285 4.125 2.713 2.713 4.07 6.142 4.07 10.285 0 1.21-.147 2.402-.44 3.575h-18.26zm-.165-6.545h9.24c-.624-2.2-2.109-3.3-4.455-3.3-2.384 0-3.979 1.1-4.785 3.3zm31.048 6.545c.88 1.833 2.75 2.75 5.61 2.75 1.687 0 3.245-.587 4.675-1.76l6.655 5.61c-2.75 2.97-6.636 4.455-11.66 4.455-4.693 0-8.47-1.357-11.33-4.07-2.823-2.75-4.235-6.197-4.235-10.34 0-4.18 1.375-7.663 4.125-10.45 2.787-2.787 6.289-4.18 10.505-4.18 4.18 0 7.609 1.375 10.285 4.125 2.714 2.713 4.07 6.142 4.07 10.285 0 1.21-.146 2.402-.44 3.575h-18.26zm-.165-6.545h9.24c-.623-2.2-2.108-3.3-4.455-3.3-2.383 0-3.978 1.1-4.785 3.3zm54.713 2.805c2.676 1.21 4.015 3.208 4.015 5.995 0 2.493-.844 4.455-2.53 5.885-1.65 1.43-4.107 2.145-7.37 2.145h-15.95v-27.5h15.125c3.263 0 5.72.715 7.37 2.145 1.686 1.393 2.53 3.337 2.53 5.83 0 2.42-1.064 4.253-3.19 5.5zm-8.58-6.38h-3.355v3.41h3.355c1.246 0 1.87-.55 1.87-1.65 0-1.173-.624-1.76-1.87-1.76zm.495 13.31c1.246 0 1.87-.587 1.87-1.76 0-1.1-.624-1.65-1.87-1.65h-3.85v3.41h3.85zm33.186-6.985c2.823 1.357 4.235 3.557 4.235 6.6 0 2.457-1.1 4.473-3.3 6.05-2.163 1.54-5.023 2.31-8.58 2.31-2.933 0-5.427-.495-7.48-1.485-2.017-1.027-3.63-2.75-4.84-5.17l7.645-4.455c.88 1.98 2.292 2.97 4.235 2.97.513 0 .99-.128 1.43-.385.44-.257.66-.623.66-1.1 0-.99-.623-1.485-1.87-1.485h-2.75v-7.37h2.75c.367 0 .678-.147.935-.44.293-.293.44-.623.44-.99 0-1.027-.715-1.54-2.145-1.54-1.687 0-2.823.935-3.41 2.805l-7.645-4.07c1.393-2.31 3.043-3.96 4.95-4.95 1.907-.99 4.308-1.485 7.205-1.485 3.153 0 5.757.788 7.81 2.365 2.09 1.577 3.135 3.52 3.135 5.83 0 2.713-1.137 4.712-3.41 5.995zm27.608-13.42v9.68h-10.175V194h-10.175v-27.5h20.35zm28.691 0V194h-10.175v-17.82h-4.95v6.435c0 4.473-1.119 7.627-3.355 9.46-2.237 1.797-5.83 2.438-10.78 1.925v-9.35c1.356.367 2.346.22 2.97-.44.66-.697.99-1.962.99-3.795V166.5h25.3zm29.756 0V194h-10.175v-7.7h-.715l-4.84 7.7h-11.55l6.435-9.35c-2.97-1.87-4.455-4.528-4.455-7.975 0-3.153.954-5.628 2.86-7.425 1.944-1.833 4.584-2.75 7.92-2.75h14.52zm-13.255 8.25c-1.43 0-2.145.642-2.145 1.925s.715 1.925 2.145 1.925h3.08v-3.85h-3.08zm34.431-8.25h10.175V194h-10.175v-8.91h-6.6V194h-10.175v-27.5h10.175v8.91h6.6v-8.91zm32.192 0h11.55l-9.13 26.675c-1.43 4.217-3.703 7.278-6.82 9.185-3.08 1.943-6.765 2.823-11.055 2.64v-9.625c1.87 0 3.3-.147 4.29-.44.99-.257 1.779-.752 2.365-1.485l-11-26.95h11.55l4.895 14.685 3.355-14.685zm37.68 0v9.68h-7.48V194h-10.23v-17.82h-7.59v-9.68h25.3zm16.98 7.15c3.336 0 5.958.917 7.865 2.75 1.943 1.797 2.915 4.272 2.915 7.425 0 3.153-.972 5.647-2.915 7.48-1.907 1.797-4.529 2.695-7.865 2.695h-14.52v-27.5h10.175v7.15h4.345zm-1.265 12.1c1.43 0 2.145-.642 2.145-1.925s-.715-1.925-2.145-1.925h-3.08v3.85h3.08zm39.267 9.02c-4.216 0-7.718-1.375-10.505-4.125-2.786-2.787-4.18-6.252-4.18-10.395s1.394-7.59 4.18-10.34c2.787-2.787 6.289-4.18 10.505-4.18 2.714 0 5.189.66 7.425 1.98 2.274 1.283 4.015 3.025 5.225 5.225l-8.58 4.895c-.916-1.54-2.273-2.31-4.07-2.31-1.283 0-2.365.458-3.245 1.375-.843.88-1.265 1.998-1.265 3.355s.422 2.493 1.265 3.41c.88.88 1.962 1.32 3.245 1.32 1.907 0 3.264-.788 4.07-2.365l8.58 4.95c-1.21 2.237-2.951 3.997-5.225 5.28-2.236 1.283-4.711 1.925-7.425 1.925zm57.233-39.27V194h-11v-27.83h-8.25V194h-11v-38.5h30.25zm38.301 38.5h-12.21l-9.57-16.5V194h-11v-38.5h11v15.4l9.02-15.4h12.21l-11.44 18.7 11.99 19.8z" fill="#fff"/></svg>