<svg width="390" height="90" viewBox="0 0 390 90" fill="none" xmlns="http://www.w3.org/2000/svg"><path d="M42.84 19.6V70H29.952V32.056H16.848V70H3.96V19.6h38.88zm29.6201 13.392c4.8 0 8.808 1.824 12.024 5.472 3.264 3.6 4.896 8.112 4.896 13.536 0 5.424-1.632 9.96-4.896 13.608-3.216 3.6-7.224 5.4-12.024 5.4-4.368 0-7.776-1.44-10.224-4.32V84.4h-11.952V34h11.952v3.312c2.448-2.88 5.856-4.32 10.224-4.32zm-8.136 24.696c1.392 1.44 3.216 2.16 5.472 2.16 2.256 0 4.08-.72 5.472-2.16 1.392-1.44 2.088-3.336 2.088-5.688s-.696-4.248-2.088-5.688c-1.392-1.44-3.216-2.16-5.472-2.16-2.256 0-4.08.72-5.472 2.16-1.392 1.44-2.088 3.336-2.088 5.688s.696 4.248 2.088 5.688zm47.7529 13.32c-5.328 0-9.864-1.824-13.608-5.472-3.744-3.696-5.616-8.208-5.616-13.536 0-5.328 1.872-9.816 5.616-13.464 3.744-3.696 8.28-5.544 13.608-5.544 5.376 0 9.912 1.848 13.608 5.544 3.744 3.648 5.616 8.136 5.616 13.464 0 5.328-1.872 9.84-5.616 13.536-3.696 3.648-8.232 5.472-13.608 5.472zm0-11.52c2.112 0 3.84-.696 5.184-2.088 1.392-1.392 2.088-3.192 2.088-5.4s-.696-4.008-2.088-5.4c-1.344-1.392-3.072-2.088-5.184-2.088-2.064 0-3.792.696-5.184 2.088-1.344 1.392-2.016 3.192-2.016 5.4s.672 4.008 2.016 5.4c1.392 1.392 3.12 2.088 5.184 2.088zM165.241 34v11.448h-10.296V70h-11.952V45.448h-10.44V34h32.688zm13.543 22.392c1.2 2.928 3.888 4.392 8.064 4.392 2.592 0 4.776-.84 6.552-2.52l8.64 6.048c-3.552 4.464-8.712 6.696-15.48 6.696-6.096 0-10.992-1.776-14.688-5.328-3.648-3.6-5.472-8.136-5.472-13.608 0-5.424 1.8-9.96 5.4-13.608 3.6-3.648 8.184-5.472 13.752-5.472 5.376 0 9.816 1.8 13.32 5.4 3.504 3.6 5.256 8.112 5.256 13.536 0 1.584-.168 3.072-.504 4.464h-24.84zm-.144-8.28h13.824c-.96-3.36-3.216-5.04-6.768-5.04-3.696 0-6.048 1.68-7.056 5.04zm47.904 22.896c-5.472 0-10.032-1.824-13.68-5.472-3.648-3.648-5.472-8.16-5.472-13.536 0-5.376 1.824-9.888 5.472-13.536 3.648-3.648 8.208-5.472 13.68-5.472 3.552 0 6.768.84 9.648 2.52 2.928 1.68 5.184 3.936 6.768 6.768l-10.224 5.904c-1.296-2.352-3.384-3.528-6.264-3.528-2.016 0-3.696.696-5.04 2.088-1.344 1.344-2.016 3.096-2.016 5.256s.672 3.936 2.016 5.328c1.344 1.344 3.024 2.016 5.04 2.016 2.976 0 5.064-1.2 6.264-3.6l10.224 5.904c-1.584 2.88-3.84 5.16-6.768 6.84-2.88 1.68-6.096 2.52-9.648 2.52zM276.756 34v11.448H266.46V70h-11.952V45.448h-10.44V34h32.688zm29.645 0h9.216v36h-11.664V53.152L289.985 70h-9.216V34h11.664v16.848L306.401 34zm45.941 0v11.448h-10.296V70h-11.952V45.448h-10.44V34h32.688zm21.868 10.152c4.32 0 7.752 1.176 10.296 3.528 2.544 2.304 3.816 5.424 3.816 9.36 0 3.984-1.272 7.152-3.816 9.504C382.01 68.848 378.578 70 374.21 70h-17.856V34h11.952v10.152h5.904zm-.72 15.84c.96 0 1.728-.264 2.304-.792.576-.528.864-1.248.864-2.16 0-.864-.288-1.56-.864-2.088-.576-.528-1.344-.792-2.304-.792h-5.184v5.832h5.184z" fill="#3385FF"/></svg>