<svg width="283" height="37" viewBox="0 0 283 37" fill="none" xmlns="http://www.w3.org/2000/svg"><path d="M22.67 8l-2.88 16.38h2.25l-1.53 8.64h-4.8L16.4 29H5.9l-.69 4.02H.41l1.53-8.64h2.13c1.38-1.58 2.34-3.9 2.88-6.96L8.6 8h14.07zM9.32 24.38h5.67l2.1-11.88h-4.47l-.87 4.98c-.54 3-1.35 5.3-2.43 6.9zm21.3129 5.04c-1.76 0-3.23-.43-4.41-1.29-1.16-.88-1.94-1.95-2.34-3.21-.38-1.28-.43-2.62-.15-4.02.42-2.06 1.43-3.79 3.03-5.19 1.6-1.42 3.59-2.13 5.97-2.13 2.4 0 4.21.87 5.43 2.61 1.22 1.72 1.64 3.65 1.26 5.79-.36 2.02-1.37 3.77-3.03 5.25-1.66 1.46-3.58 2.19-5.76 2.19zm-1.92-5.34c.5.64 1.24.96 2.22.96.98 0 1.85-.32 2.61-.96.76-.66 1.23-1.52 1.41-2.58.2-1.06.03-1.91-.51-2.55-.52-.66-1.27-.99-2.25-.99s-1.84.33-2.58.99c-.72.64-1.18 1.49-1.38 2.55-.18 1.06-.02 1.92.48 2.58zm19.4953 5.34c-2.42 0-4.27-.77-5.55-2.31-1.28-1.54-1.72-3.49-1.32-5.85.22-1.3.47-2.38.75-3.24.28-.88.69-1.72 1.23-2.52.54-.82 1.23-1.54 2.07-2.16.84-.64 1.91-1.25 3.21-1.83.28-.12.79-.35 1.53-.69.76-.34 1.23-.55 1.41-.63.18-.08.5-.25.96-.51.48-.26.8-.47.96-.63.18-.18.4-.41.66-.69.26-.28.5-.6.72-.96l3.42 2.13c-.5 1.18-1.25 2.12-2.25 2.82-.98.68-2.39 1.35-4.23 2.01-1.32.46-2.3.92-2.94 1.38-.62.44-1.1.95-1.44 1.53 1.2-.94 2.59-1.41 4.17-1.41.7 0 1.39.16 2.07.48.68.32 1.28.77 1.8 1.35.54.56.93 1.28 1.17 2.16.26.88.3 1.83.12 2.85-.34 2.04-1.28 3.67-2.82 4.89-1.52 1.22-3.42 1.83-5.7 1.83zm-1.8-4.92c.54.58 1.27.87 2.19.87.92 0 1.72-.28 2.4-.84.7-.56 1.13-1.27 1.29-2.13.16-.86-.02-1.58-.54-2.16-.52-.58-1.25-.87-2.19-.87-.84 0-1.63.27-2.37.81-.72.52-1.16 1.22-1.32 2.1-.16.9.02 1.64.54 2.22zm22.7222-10.92c2.14 0 3.76.83 4.86 2.49 1.1 1.64 1.48 3.55 1.14 5.73-.3 2.04-1.19 3.82-2.67 5.34-1.46 1.52-3.3 2.28-5.52 2.28-2 0-3.47-.71-4.41-2.13l-1.35 7.71h-4.5l3.69-21h4.5l-.21 1.26c1.22-1.12 2.71-1.68 4.47-1.68zm.06 10.59c.76-.66 1.24-1.55 1.44-2.67.2-1.12.03-2.01-.51-2.67-.52-.66-1.3-.99-2.34-.99-1.02 0-1.92.32-2.7.96-.78.64-1.28 1.49-1.5 2.55l-.06.27c-.14 1.08.06 1.94.6 2.58.54.64 1.33.96 2.37.96s1.94-.33 2.7-.99zm14.8214 5.25c-1.76 0-3.23-.43-4.41-1.29-1.16-.88-1.94-1.95-2.34-3.21-.38-1.28-.43-2.62-.15-4.02.42-2.06 1.43-3.79 3.03-5.19 1.6-1.42 3.59-2.13 5.97-2.13 2.4 0 4.21.87 5.43 2.61 1.22 1.72 1.64 3.65 1.26 5.79-.36 2.02-1.37 3.77-3.03 5.25-1.66 1.46-3.58 2.19-5.76 2.19zm-1.92-5.34c.5.64 1.24.96 2.22.96.98 0 1.85-.32 2.61-.96.76-.66 1.23-1.52 1.41-2.58.2-1.06.03-1.91-.51-2.55-.52-.66-1.27-.99-2.25-.99s-1.84.33-2.58.99c-.72.64-1.18 1.49-1.38 2.55-.18 1.06-.02 1.92.48 2.58zM118.357 14l-2.64 15h-4.5l1.89-10.8h-5.1l-1.89 10.8h-4.5l2.64-15h14.1zm8.252 15.42c-1.76 0-3.23-.43-4.41-1.29-1.16-.88-1.94-1.95-2.34-3.21-.38-1.28-.43-2.62-.15-4.02.42-2.06 1.43-3.79 3.03-5.19 1.6-1.42 3.59-2.13 5.97-2.13 2.4 0 4.21.87 5.43 2.61 1.22 1.72 1.64 3.65 1.26 5.79-.36 2.02-1.37 3.77-3.03 5.25-1.66 1.46-3.58 2.19-5.76 2.19zm-1.92-5.34c.5.64 1.24.96 2.22.96.98 0 1.85-.32 2.61-.96.76-.66 1.23-1.52 1.41-2.58.2-1.06.03-1.91-.51-2.55-.52-.66-1.27-.99-2.25-.99s-1.84.33-2.58.99c-.72.64-1.18 1.49-1.38 2.55-.18 1.06-.02 1.92.48 2.58zM159.154 14l-6.27 7.62 3.78 7.38h-4.53l-3.39-6.72-1.17 6.72h-4.38l1.17-6.63-5.43 6.63h-4.77l6.48-7.95-3.48-7.05h4.41l3.15 6.36 1.11-6.36h4.38l-1.14 6.48 5.16-6.48h4.92zm11.774 0h4.5l-2.64 15h-4.5l.18-1.02c-1.14.96-2.64 1.44-4.5 1.44-2.3 0-3.97-.83-5.01-2.49-1.04-1.68-1.35-3.61-.93-5.79.38-2.06 1.32-3.83 2.82-5.31 1.52-1.5 3.39-2.25 5.61-2.25 1.88 0 3.28.67 4.2 2.01l.27-1.59zm-7.89 10.17c.54.66 1.33.99 2.37.99s1.95-.33 2.73-.99c.78-.66 1.27-1.54 1.47-2.64v-.03c.2-1.12.02-2.01-.54-2.67-.54-.66-1.33-.99-2.37-.99s-1.95.33-2.73.99c-.76.66-1.24 1.55-1.44 2.67-.2 1.12-.03 2.01.51 2.67zM191.78 14l-2.64 15h-4.5l1.89-10.68h-3.27l-.78 4.47c-.42 2.44-1.27 4.15-2.55 5.13-1.26.98-2.98 1.34-5.16 1.08l.72-4.2c1.38.32 2.23-.45 2.55-2.31l1.5-8.49h12.24zm8.247 15.42c-1.76 0-3.23-.43-4.41-1.29-1.16-.88-1.94-1.95-2.34-3.21-.38-1.28-.43-2.62-.15-4.02.42-2.06 1.43-3.79 3.03-5.19 1.6-1.42 3.59-2.13 5.97-2.13 2.4 0 4.21.87 5.43 2.61 1.22 1.72 1.64 3.65 1.26 5.79-.36 2.02-1.37 3.77-3.03 5.25-1.66 1.46-3.58 2.19-5.76 2.19zm-1.92-5.34c.5.64 1.24.96 2.22.96.98 0 1.85-.32 2.61-.96.76-.66 1.23-1.52 1.41-2.58.2-1.06.03-1.91-.51-2.55-.52-.66-1.27-.99-2.25-.99s-1.84.33-2.58.99c-.72.64-1.18 1.49-1.38 2.55-.18 1.06-.02 1.92.48 2.58zm26.486-5.55c-.24 1.34-.89 2.32-1.95 2.94 1.18.84 1.65 2 1.41 3.48-.24 1.28-.85 2.28-1.83 3-.96.7-2.29 1.05-3.99 1.05h-8.1l2.64-15h7.5c1.48 0 2.62.44 3.42 1.32.82.88 1.12 1.95.9 3.21zm-5.43-.93h-2.82l-.36 2.1h2.79c.88 0 1.38-.34 1.5-1.02.14-.72-.23-1.08-1.11-1.08zm.63 6.57c.06-.34-.02-.6-.24-.78-.2-.18-.5-.27-.9-.27h-3.3l-.36 2.16h3.27c.9 0 1.41-.37 1.53-1.11zM239.102 14h4.5l-2.64 15h-4.5l.18-1.02c-1.14.96-2.64 1.44-4.5 1.44-2.3 0-3.97-.83-5.01-2.49-1.04-1.68-1.35-3.61-.93-5.79.38-2.06 1.32-3.83 2.82-5.31 1.52-1.5 3.39-2.25 5.61-2.25 1.88 0 3.28.67 4.2 2.01l.27-1.59zm-7.89 10.17c.54.66 1.33.99 2.37.99s1.95-.33 2.73-.99c.78-.66 1.27-1.54 1.47-2.64v-.03c.2-1.12.02-2.01-.54-2.67-.54-.66-1.33-.99-2.37-.99s-1.95.33-2.73.99c-.76.66-1.24 1.55-1.44 2.67-.2 1.12-.03 2.01.51 2.67zM259.054 14l-.75 4.32h-4.47L251.944 29h-4.5l1.89-10.68h-4.53l.75-4.32h13.5zm8.181 4.5c1.66 0 2.96.53 3.9 1.59s1.27 2.38.99 3.96c-.6 3.3-2.85 4.95-6.75 4.95h-7.02l2.64-15h4.5l-.78 4.5h2.52zm.57 5.25c.06-.4-.02-.72-.24-.96-.22-.26-.55-.39-.99-.39h-2.55l-.48 2.7h2.55c.44 0 .81-.12 1.11-.36.32-.26.52-.59.6-.99zm7.767-2.25l.42-7.5 1.05-6h5.4l-1.05 6-2.22 7.5h-3.6zm.39 7.92c-.78 0-1.4-.29-1.86-.87-.46-.58-.62-1.26-.48-2.04s.52-1.44 1.14-1.98c.64-.54 1.38-.81 2.22-.81.78 0 1.4.29 1.86.87.46.58.62 1.26.48 2.04-.14.8-.52 1.47-1.14 2.01-.62.52-1.36.78-2.22.78z" fill="#fff"/></svg>