<svg width="289" height="63" viewBox="0 0 289 63" fill="none" xmlns="http://www.w3.org/2000/svg"><rect width="289" height="63" rx="20" fill="#fff" fill-opacity=".9"/><path d="M124.6 37.18h2.55v9.84h-6V43H107.5V22h6.3v15.18h4.5V22h6.3v15.18zm8.702.21c.48 1 1.5 1.5 3.06 1.5.92 0 1.77-.32 2.55-.96l3.63 3.06c-1.5 1.62-3.62 2.43-6.36 2.43-2.56 0-4.62-.74-6.18-2.22-1.54-1.5-2.31-3.38-2.31-5.64 0-2.28.75-4.18 2.25-5.7 1.52-1.52 3.43-2.28 5.73-2.28 2.28 0 4.15.75 5.61 2.25 1.48 1.48 2.22 3.35 2.22 5.61 0 .66-.08 1.31-.24 1.95h-9.96zm-.09-3.57h5.04c-.34-1.2-1.15-1.8-2.43-1.8-1.3 0-2.17.6-2.61 1.8zM154.289 28h5.55v15h-5.55v-4.86h-3.6V43h-5.55V28h5.55v4.86h3.6V28zm15.88 3.9c1.82 0 3.25.5 4.29 1.5 1.06.98 1.59 2.33 1.59 4.05 0 1.72-.53 3.08-1.59 4.08-1.04.98-2.47 1.47-4.29 1.47h-7.92V28h5.55v3.9h2.37zm6.78-3.9h5.55v15h-5.55V28zm-7.47 10.5c.78 0 1.17-.35 1.17-1.05 0-.7-.39-1.05-1.17-1.05h-1.68v2.1h1.68z" fill="#3385FF"/></svg>