<svg width="289" height="63" viewBox="0 0 289 63" fill="none" xmlns="http://www.w3.org/2000/svg"><rect width="289" height="63" rx="20" fill="#fff" fill-opacity=".9"/><path d="M83 21v21h-6V26.82h-4.5V42h-6V21H83zm10.1217 21.42c-2.24 0-4.15-.76-5.73-2.28-1.56-1.52-2.34-3.4-2.34-5.64 0-2.24.78-4.12 2.34-5.64 1.56-1.52 3.47-2.28 5.73-2.28 2.26 0 4.17.76 5.73 2.28 1.5603 1.52 2.3403 3.4 2.3403 5.64 0 2.24-.78 4.12-2.3403 5.64-1.56 1.52-3.47 2.28-5.73 2.28zm-1.83-6c.48.48 1.09.72 1.83.72s1.34-.24 1.8-.72c.48-.5.72-1.14.72-1.92s-.24-1.41-.72-1.89c-.46-.5-1.06-.75-1.8-.75s-1.35.25-1.83.75c-.46.48-.69 1.11-.69 1.89 0 .78.23 1.42.69 1.92zm21.2163-9.84c2.02 0 3.67.75 4.95 2.25 1.28 1.5 1.92 3.39 1.92 5.67s-.64 4.17-1.92 5.67c-1.28 1.5-2.93 2.25-4.95 2.25-1.72 0-3.06-.59-4.02-1.77V48h-5.55V27h5.55v1.35c.96-1.18 2.3-1.77 4.02-1.77zm-3.3 9.93c.5.54 1.15.81 1.95.81s1.44-.27 1.92-.81c.5-.54.75-1.21.75-2.01 0-.8-.25-1.47-.75-2.01-.48-.54-1.12-.81-1.92-.81-.8 0-1.45.27-1.95.81-.48.54-.72 1.21-.72 2.01 0 .8.24 1.47.72 2.01zM133.589 27v5.28h-4.08V42h-5.58v-9.72h-4.14V27h13.8zm21.209 7.5c0 2.02-.65 3.73-1.95 5.13-1.28 1.4-3.2 2.29-5.76 2.67V48h-5.4v-5.7c-2.56-.38-4.49-1.27-5.79-2.67-1.28-1.4-1.92-3.11-1.92-5.13 0-2 .64-3.69 1.92-5.07 1.3-1.4 3.23-2.29 5.79-2.67V21h5.4v5.76c2.56.38 4.48 1.27 5.76 2.67 1.3 1.38 1.95 3.07 1.95 5.07zm-13.11-2.58c-1.46.4-2.19 1.26-2.19 2.58s.73 2.18 2.19 2.58v-5.16zm5.4 5.16c1.46-.4 2.189-1.26 2.189-2.58s-.729-2.18-2.189-2.58v5.16zm16.874 5.34c-2.24 0-4.15-.76-5.73-2.28-1.56-1.52-2.34-3.4-2.34-5.64 0-2.24.78-4.12 2.34-5.64 1.56-1.52 3.47-2.28 5.73-2.28 2.26 0 4.17.76 5.73 2.28 1.56 1.52 2.34 3.4 2.34 5.64 0 2.24-.78 4.12-2.34 5.64-1.56 1.52-3.47 2.28-5.73 2.28zm-1.83-6c.48.48 1.09.72 1.83.72s1.34-.24 1.8-.72c.48-.5.72-1.14.72-1.92s-.24-1.41-.72-1.89c-.46-.5-1.06-.75-1.8-.75s-1.35.25-1.83.75c-.46.48-.69 1.11-.69 1.89 0 .78.23 1.42.69 1.92zM188.838 27v15h-5.55v-9.72h-2.7v3.51c0 2.44-.61 4.16-1.83 5.16-1.22.98-3.18 1.33-5.88 1.05v-5.1c.74.2 1.28.12 1.62-.24.36-.38.54-1.07.54-2.07V27h13.8zm12.931 0h4.47v15h-5.4v-6.45l-5.13 6.45h-4.47V27h5.4v6.45l5.13-6.45zm14.224 15.42c-2.24 0-4.15-.76-5.73-2.28-1.56-1.52-2.34-3.4-2.34-5.64 0-2.24.78-4.12 2.34-5.64 1.56-1.52 3.47-2.28 5.73-2.28 2.26 0 4.17.76 5.73 2.28 1.56 1.52 2.34 3.4 2.34 5.64 0 2.24-.78 4.12-2.34 5.64-1.56 1.52-3.47 2.28-5.73 2.28zm-1.83-6c.48.48 1.09.72 1.83.72s1.34-.24 1.8-.72c.48-.5.72-1.14.72-1.92s-.24-1.41-.72-1.89c-.46-.5-1.06-.75-1.8-.75s-1.35.25-1.83.75c-.46.48-.69 1.11-.69 1.89 0 .78.23 1.42.69 1.92z" fill="#3385FF"/></svg>