<svg width="289" height="63" viewBox="0 0 289 63" fill="none" xmlns="http://www.w3.org/2000/svg"><rect width="289" height="63" rx="20" fill="#fff" fill-opacity=".9"/><path d="M95.38 43h-6.66l-5.22-9v9h-6V22h6v8.4l4.92-8.4h6.66l-6.24 10.2L95.38 43zm6.955.42c-2.24 0-4.1504-.76-5.7304-2.28-1.56-1.52-2.34-3.4-2.34-5.64 0-2.24.78-4.12 2.34-5.64 1.56-1.52 3.4704-2.28 5.7304-2.28 2.26 0 4.17.76 5.73 2.28 1.56 1.52 2.34 3.4 2.34 5.64 0 2.24-.78 4.12-2.34 5.64-1.56 1.52-3.47 2.28-5.73 2.28zm-1.83-6c.48.48 1.09.72 1.83.72s1.34-.24 1.8-.72c.48-.5.72-1.14.72-1.92s-.24-1.41-.72-1.89c-.46-.5-1.06-.75-1.8-.75s-1.35.25-1.83.75c-.46.48-.6904 1.11-.6904 1.89 0 .78.2304 1.42.6904 1.92zM121.301 28h5.55v15h-5.55v-4.86h-3.6V43h-5.55V28h5.55v4.86h3.6V28zm20.71 0v5.28h-4.08V43h-5.58v-9.72h-4.14V28h13.8zm11.278 0h5.55v15h-5.55v-1.35c-.96 1.18-2.3 1.77-4.02 1.77-2.02 0-3.67-.75-4.95-2.25-1.28-1.5-1.92-3.39-1.92-5.67s.64-4.17 1.92-5.67c1.28-1.5 2.93-2.25 4.95-2.25 1.72 0 3.06.59 4.02 1.77V28zm-4.62 9.51c.5.54 1.15.81 1.95.81s1.44-.27 1.92-.81c.5-.54.75-1.21.75-2.01 0-.8-.25-1.47-.75-2.01-.48-.54-1.12-.81-1.92-.81-.8 0-1.45.27-1.95.81-.48.54-.72 1.21-.72 2.01 0 .8.24 1.47.72 2.01zM176.553 43h-6.15l-3.6-6v6h-5.55V28h5.55v5.82l3.15-5.82h6.3l-4.56 7.5 4.86 7.5zm13.944-15v5.28h-4.08V43h-5.58v-9.72h-4.14V28h13.8zm9.262 3.9c1.82 0 3.25.5 4.29 1.5 1.06.98 1.59 2.33 1.59 4.05 0 1.72-.53 3.08-1.59 4.08-1.04.98-2.47 1.47-4.29 1.47h-7.92V28h5.55v3.9h2.37zm6.78-3.9h5.55v15h-5.55V28zm-7.47 10.5c.78 0 1.17-.35 1.17-1.05 0-.7-.39-1.05-1.17-1.05h-1.68v2.1h1.68z" fill="#3385FF"/></svg>