<svg width="333" height="194" viewBox="0 0 333 194" fill="none" xmlns="http://www.w3.org/2000/svg"><rect width="332" height="194" rx="40" fill="url(#paint0_linear)"/><path d="M0 127.143h332.287v26.728c0 22.092-17.909 40-40 40H40c-22.0914 0-40-17.908-40-40v-26.728z" fill="url(#paint1_linear)"/><path d="M125 151v21h-6v-15.18h-4.5V172h-6v-21H125zm12.282 5.58c2.02 0 3.67.75 4.95 2.25 1.28 1.5 1.92 3.39 1.92 5.67s-.64 4.17-1.92 5.67c-1.28 1.5-2.93 2.25-4.95 2.25-1.72 0-3.06-.59-4.02-1.77V178h-5.55v-21h5.55v1.35c.96-1.18 2.3-1.77 4.02-1.77zm-3.3 9.93c.5.54 1.15.81 1.95.81s1.44-.27 1.92-.81c.5-.54.75-1.21.75-2.01 0-.8-.25-1.47-.75-2.01-.48-.54-1.12-.81-1.92-.81-.8 0-1.45.27-1.95.81-.48.54-.72 1.21-.72 2.01 0 .8.24 1.47.72 2.01zm22.453-9.51h4.47v15h-5.4v-6.45l-5.13 6.45h-4.47v-15h5.4v6.45l5.13-6.45zm16.022 0h5.55v15h-5.55v-4.86h-3.6V172h-5.55v-15h5.55v4.86h3.6V157zm21.79 0v15h-5.55v-4.2h-.39l-2.64 4.2h-6.3l3.51-5.1c-1.62-1.02-2.43-2.47-2.43-4.35 0-1.72.52-3.07 1.56-4.05 1.06-1 2.5-1.5 4.32-1.5h7.92zm-7.23 4.5c-.78 0-1.17.35-1.17 1.05 0 .7.39 1.05 1.17 1.05h1.68v-2.1h-1.68zm22.38-4.5v5.28h-4.08V172h-5.58v-9.72h-4.14V157h13.8zm9.262 3.9c1.82 0 3.25.5 4.29 1.5 1.06.98 1.59 2.33 1.59 4.05 0 1.72-.53 3.08-1.59 4.08-1.04.98-2.47 1.47-4.29 1.47h-7.92v-15h5.55v3.9h2.37zm-.69 6.6c.78 0 1.17-.35 1.17-1.05 0-.7-.39-1.05-1.17-1.05h-1.68v2.1h1.68z" fill="#fff"/><path d="M44.96 26.4V39h-.666V27.372l-4.896 8.01h-.162l-4.896-8.01V39h-.666V26.4h.846l4.806 7.884 4.806-7.884h.828zm6.6506 7.164c.816 0 1.512.252 2.088.756.576.492.864 1.14.864 1.944s-.288 1.464-.864 1.98c-.576.504-1.272.756-2.088.756h-3.474v-9h.648v3.564h2.826zM56.0566 30h.648v9h-.648v-9zm-4.446 8.406c.66 0 1.212-.198 1.656-.594.444-.408.666-.924.666-1.548 0-.612-.222-1.116-.666-1.512-.444-.396-.996-.594-1.656-.594h-2.826v4.248h2.826zM71.5331 30h.576v9h-.63v-7.92l-6.12 7.92h-.576v-9h.648v7.92l6.102-7.92zm7.6183 9.198c-1.332 0-2.448-.45-3.348-1.35-.9-.9-1.35-2.016-1.35-3.348 0-1.332.45-2.448 1.35-3.348.9-.9 2.016-1.35 3.348-1.35.876 0 1.668.204 2.376.612.708.408 1.23.954 1.566 1.638l-.522.306c-.288-.588-.738-1.056-1.35-1.404-.612-.36-1.302-.54-2.07-.54-1.152 0-2.118.396-2.898 1.188-.78.78-1.17 1.746-1.17 2.898 0 1.152.39 2.124 1.17 2.916.78.78 1.746 1.17 2.898 1.17.768 0 1.452-.174 2.052-.522.612-.36 1.074-.834 1.386-1.422l.522.306c-.348.684-.876 1.23-1.584 1.638-.708.408-1.5.612-2.376.612zM92.693 30v9h-.63v-8.406h-6.048V39h-.648v-9h7.326zm7.0424 9.198c-1.308 0-2.418-.45-3.33-1.35-.912-.912-1.368-2.028-1.368-3.348 0-1.32.456-2.43 1.368-3.33.912-.912 2.022-1.368 3.33-1.368 1.3196 0 2.4356.456 3.3476 1.368.912.9 1.368 2.01 1.368 3.33 0 1.32-.456 2.436-1.368 3.348-.912.9-2.028 1.35-3.3476 1.35zm-2.898-1.782c.792.78 1.758 1.17 2.898 1.17 1.1396 0 2.1056-.39 2.8976-1.17.792-.792 1.188-1.764 1.188-2.916s-.396-2.118-1.188-2.898c-.792-.792-1.758-1.188-2.8976-1.188-1.14 0-2.106.396-2.898 1.188-.78.78-1.17 1.746-1.17 2.898 0 1.152.39 2.124 1.17 2.916zM113.715 30v9h-.648v-8.406h-4.968v4.698c0 2.628-.948 3.864-2.844 3.708v-.594c.744.06 1.296-.15 1.656-.63.36-.492.54-1.32.54-2.484V30h6.264zm6.468 3.564c.816 0 1.512.252 2.088.756.576.492.864 1.14.864 1.944s-.288 1.464-.864 1.98c-.576.504-1.272.756-2.088.756h-3.474v-9h.648v3.564h2.826zm0 4.842c.66 0 1.212-.198 1.656-.594.444-.408.666-.924.666-1.548 0-.612-.222-1.116-.666-1.512-.444-.396-.996-.594-1.656-.594h-2.826v4.248h2.826zm8.942-4.068c.588.156 1.038.444 1.35.864.324.408.486.888.486 1.44 0 .708-.288 1.314-.864 1.818-.564.492-1.356.738-2.376.738-1.824 0-2.97-.702-3.438-2.106l.522-.306c.372 1.2 1.344 1.8 2.916 1.8.804 0 1.44-.18 1.908-.54.468-.36.702-.834.702-1.422 0-.576-.204-1.038-.612-1.386-.408-.36-.954-.54-1.638-.54h-1.152v-.594h.828c.66 0 1.176-.168 1.548-.504.384-.336.576-.78.576-1.332 0-.54-.216-.984-.648-1.332-.432-.348-.99-.522-1.674-.522-.636 0-1.182.138-1.638.414-.444.276-.762.654-.954 1.134l-.522-.306c.24-.564.624-1.014 1.152-1.35.528-.336 1.182-.504 1.962-.504.9 0 1.62.24 2.16.72.54.468.81 1.038.81 1.71 0 .468-.12.894-.36 1.278-.24.372-.588.648-1.044.828zM139.507 30h.648l-3.906 9.828c-.36.888-.852 1.584-1.476 2.088-.624.516-1.302.744-2.034.684v-.594c.6.06 1.152-.12 1.656-.54.516-.42.93-1.014 1.242-1.782l.18-.396-4.23-9.288h.648l3.888 8.514L139.507 30zm6.034-.198c1.32 0 2.388.468 3.204 1.404.828.936 1.242 2.046 1.242 3.33 0 .144-.006.246-.018.306h-8.37c.072 1.116.486 2.022 1.242 2.718.756.684 1.686 1.026 2.79 1.026.756 0 1.422-.156 1.998-.468.588-.324 1.026-.75 1.314-1.278l.558.324c-.36.624-.882 1.122-1.566 1.494-.672.36-1.44.54-2.304.54-1.368 0-2.49-.438-3.366-1.314-.876-.888-1.314-2.016-1.314-3.384 0-1.332.432-2.448 1.296-3.348.864-.9 1.962-1.35 3.294-1.35zm0 .612c-1.104 0-2.028.36-2.772 1.08-.732.708-1.128 1.626-1.188 2.754h7.758c-.084-1.164-.486-2.094-1.206-2.79-.708-.696-1.572-1.044-2.592-1.044zM160.873 30v9h-.63v-8.118l-3.6 5.562h-.126l-3.582-5.526V39h-.648v-9h.792l3.51 5.382 3.51-5.382h.774zm14.594 9h-.864l-5.004-4.482V39h-.648v-9h.648v4.14l4.824-4.14h.864l-5.022 4.32 5.202 4.68zm8.355-9h.648l-3.906 9.828c-.36.888-.852 1.584-1.476 2.088-.624.516-1.302.744-2.034.684v-.594c.6.06 1.152-.12 1.656-.54.516-.42.93-1.014 1.242-1.782l.18-.396-4.23-9.288h.648l3.888 8.514L183.822 30zm8.959 9h-.864l-5.004-4.482V39h-.648v-9h.648v4.14l4.824-4.14h.864l-5.022 4.32 5.202 4.68zm8.725-9h.576v9h-.63v-7.92l-6.12 7.92h-.576v-9h.648v7.92l6.102-7.92zm15.362 0h.63v9h-.63v-4.194h-6.048V39h-.648v-9h.648v4.194h6.048V30zm11.758 0h.63v9h-.63v-2.412c-.36.792-.906 1.428-1.638 1.908-.732.468-1.554.702-2.466.702-1.296 0-2.4-.45-3.312-1.35-.912-.912-1.368-2.028-1.368-3.348 0-1.32.456-2.43 1.368-3.33.912-.912 2.016-1.368 3.312-1.368.912 0 1.734.24 2.466.72.732.468 1.278 1.098 1.638 1.89V30zm-6.984 7.416c.792.78 1.758 1.17 2.898 1.17 1.14 0 2.106-.39 2.898-1.17.792-.792 1.188-1.764 1.188-2.916s-.396-2.118-1.188-2.898c-.792-.792-1.758-1.188-2.898-1.188-1.14 0-2.106.396-2.898 1.188-.78.78-1.17 1.746-1.17 2.898 0 1.152.39 2.124 1.17 2.916zm21.088-3.078c.552.156.972.432 1.26.828.3.396.45.864.45 1.404 0 .708-.234 1.29-.702 1.746-.468.456-1.146.684-2.034.684h-4.356v-9h4.032c.84 0 1.482.216 1.926.648.456.432.684.99.684 1.674 0 .972-.42 1.644-1.26 2.016zm-1.35-3.744h-3.384v3.51h3.384c.624 0 1.11-.156 1.458-.468.348-.312.522-.744.522-1.296 0-.54-.174-.966-.522-1.278-.348-.312-.834-.468-1.458-.468zm.324 7.812c.66 0 1.17-.162 1.53-.486.372-.336.558-.798.558-1.386 0-.576-.186-1.026-.558-1.35-.36-.324-.87-.486-1.53-.486h-3.708v3.708h3.708zm8.922.792c-1.332 0-2.448-.45-3.348-1.35-.9-.9-1.35-2.016-1.35-3.348 0-1.332.45-2.448 1.35-3.348.9-.9 2.016-1.35 3.348-1.35.876 0 1.668.204 2.376.612.708.408 1.23.954 1.566 1.638l-.522.306c-.288-.588-.738-1.056-1.35-1.404-.612-.36-1.302-.54-2.07-.54-1.152 0-2.118.396-2.898 1.188-.78.78-1.17 1.746-1.17 2.898 0 1.152.39 2.124 1.17 2.916.78.78 1.746 1.17 2.898 1.17.768 0 1.452-.174 2.052-.522.612-.36 1.074-.834 1.386-1.422l.522.306c-.348.684-.876 1.23-1.584 1.638-.708.408-1.5.612-2.376.612zm10.07-9.396c1.32 0 2.388.468 3.204 1.404.828.936 1.242 2.046 1.242 3.33 0 .144-.006.246-.018.306h-8.37c.072 1.116.486 2.022 1.242 2.718.756.684 1.686 1.026 2.79 1.026.756 0 1.422-.156 1.998-.468.588-.324 1.026-.75 1.314-1.278l.558.324c-.36.624-.882 1.122-1.566 1.494-.672.36-1.44.54-2.304.54-1.368 0-2.49-.438-3.366-1.314-.876-.888-1.314-2.016-1.314-3.384 0-1.332.432-2.448 1.296-3.348.864-.9 1.962-1.35 3.294-1.35zm0 .612c-1.104 0-2.028.36-2.772 1.08-.732.708-1.128 1.626-1.188 2.754h7.758c-.084-1.164-.486-2.094-1.206-2.79-.708-.696-1.572-1.044-2.592-1.044zM274.182 39h-.774l-3.276-4.14-3.276 4.14h-.774l3.672-4.626L266.28 30h.756l3.096 3.888L273.21 30h.774l-3.474 4.374L274.182 39zM37.544 60.198c-1.332 0-2.448-.45-3.348-1.35-.9-.9-1.35-2.016-1.35-3.348 0-1.332.45-2.448 1.35-3.348.9-.9 2.016-1.35 3.348-1.35.876 0 1.668.204 2.376.612.708.408 1.23.954 1.566 1.638l-.522.306c-.288-.588-.738-1.056-1.35-1.404-.612-.36-1.302-.54-2.07-.54-1.152 0-2.118.396-2.898 1.188-.78.78-1.17 1.746-1.17 2.898 0 1.152.39 2.124 1.17 2.916.78.78 1.746 1.17 2.898 1.17.768 0 1.452-.174 2.052-.522.612-.36 1.074-.834 1.386-1.422l.522.306c-.348.684-.876 1.23-1.584 1.638-.708.408-1.5.612-2.376.612zm11.5976-4.86c.552.156.972.432 1.26.828.3.396.45.864.45 1.404 0 .708-.234 1.29-.702 1.746-.468.456-1.146.684-2.034.684h-4.356v-9h4.032c.84 0 1.482.216 1.926.648.456.432.684.99.684 1.674 0 .972-.42 1.644-1.26 2.016zm-1.35-3.744h-3.384v3.51h3.384c.624 0 1.11-.156 1.458-.468.348-.312.522-.744.522-1.296 0-.54-.174-.966-.522-1.278-.348-.312-.834-.468-1.458-.468zm.324 7.812c.66 0 1.17-.162 1.53-.486.372-.336.558-.798.558-1.386 0-.576-.186-1.026-.558-1.35-.36-.324-.87-.486-1.53-.486h-3.708v3.708h3.708zm8.9225.792c-1.308 0-2.418-.45-3.33-1.35-.912-.912-1.368-2.028-1.368-3.348 0-1.32.456-2.43 1.368-3.33.912-.912 2.022-1.368 3.33-1.368 1.32 0 2.436.456 3.348 1.368.912.9 1.368 2.01 1.368 3.33 0 1.32-.456 2.436-1.368 3.348-.912.9-2.028 1.35-3.348 1.35zm-2.898-1.782c.792.78 1.758 1.17 2.898 1.17 1.14 0 2.106-.39 2.898-1.17.792-.792 1.188-1.764 1.188-2.916s-.396-2.118-1.188-2.898c-.792-.792-1.758-1.188-2.898-1.188-1.14 0-2.106.396-2.898 1.188-.78.78-1.17 1.746-1.17 2.898 0 1.152.39 2.124 1.17 2.916zM70.8475 51h.576v9h-.63v-7.92l-6.12 7.92h-.576v-9h.648v7.92l6.102-7.92zm10.6604 9h-.774l-3.276-4.14-3.276 4.14h-.774l3.672-4.626L73.6059 51h.756l3.096 3.888L80.5359 51h.774l-3.474 4.374L81.5079 60zm11.1084.198c-1.332 0-2.448-.45-3.348-1.35-.9-.9-1.35-2.016-1.35-3.348 0-1.332.45-2.448 1.35-3.348.9-.9 2.016-1.35 3.348-1.35.876 0 1.668.204 2.376.612.708.408 1.23.954 1.566 1.638l-.522.306c-.288-.588-.738-1.056-1.35-1.404-.612-.36-1.302-.54-2.07-.54-1.152 0-2.118.396-2.898 1.188-.78.78-1.17 1.746-1.17 2.898 0 1.152.39 2.124 1.17 2.916.78.78 1.746 1.17 2.898 1.17.768 0 1.452-.174 2.052-.522.612-.36 1.074-.834 1.386-1.422l.522.306c-.348.684-.876 1.23-1.584 1.638-.708.408-1.5.612-2.376.612zM106.88 51h.63v9h-.63v-2.412c-.36.792-.906 1.428-1.638 1.908-.732.468-1.554.702-2.466.702-1.296 0-2.4-.45-3.312-1.35-.912-.912-1.368-2.028-1.368-3.348 0-1.32.456-2.43 1.368-3.33.912-.912 2.016-1.368 3.312-1.368.912 0 1.734.24 2.466.72.732.468 1.278 1.098 1.638 1.89V51zm-6.984 7.416c.792.78 1.758 1.17 2.898 1.17 1.14 0 2.106-.39 2.898-1.17.792-.792 1.188-1.764 1.188-2.916s-.396-2.118-1.188-2.898c-.792-.792-1.758-1.188-2.898-1.188-1.14 0-2.106.396-2.898 1.188-.78.78-1.17 1.746-1.17 2.898 0 1.152.39 2.124 1.17 2.916zm12.066-9.108v-.54h4.446v.54h-4.446zM117.254 51h.576v9h-.63v-7.92L111.08 60h-.576v-9h.648v7.92l6.102-7.92zm9.688 0v.594h-3.33V60h-.648v-8.406h-3.33V51h7.308zm9.592 0h.63v9h-.63v-2.412c-.36.792-.906 1.428-1.638 1.908-.732.468-1.554.702-2.466.702-1.296 0-2.4-.45-3.312-1.35-.912-.912-1.368-2.028-1.368-3.348 0-1.32.456-2.43 1.368-3.33.912-.912 2.016-1.368 3.312-1.368.912 0 1.734.24 2.466.72.732.468 1.278 1.098 1.638 1.89V51zm-6.984 7.416c.792.78 1.758 1.17 2.898 1.17 1.14 0 2.106-.39 2.898-1.17.792-.792 1.188-1.764 1.188-2.916s-.396-2.118-1.188-2.898c-.792-.792-1.758-1.188-2.898-1.188-1.14 0-2.106.396-2.898 1.188-.78.78-1.17 1.746-1.17 2.898 0 1.152.39 2.124 1.17 2.916zM147.25 60h-.774l-3.276-4.14-3.276 4.14h-.774l3.672-4.626L139.348 51h.756l3.096 3.888L146.278 51h.774l-3.474 4.374L147.25 60zm3.041-.936l-.864 3.456h-.576l.648-3.456h.792zm13.126-3.726c.552.156.972.432 1.26.828.3.396.45.864.45 1.404 0 .708-.234 1.29-.702 1.746-.468.456-1.146.684-2.034.684h-4.356v-9h4.032c.84 0 1.482.216 1.926.648.456.432.684.99.684 1.674 0 .972-.42 1.644-1.26 2.016zm-1.35-3.744h-3.384v3.51h3.384c.624 0 1.11-.156 1.458-.468.348-.312.522-.744.522-1.296 0-.54-.174-.966-.522-1.278-.348-.312-.834-.468-1.458-.468zm.324 7.812c.66 0 1.17-.162 1.53-.486.372-.336.558-.798.558-1.386 0-.576-.186-1.026-.558-1.35-.36-.324-.87-.486-1.53-.486h-3.708v3.708h3.708zM173.78 60h-.864l-5.004-4.482V60h-.648v-9h.648v4.14l4.824-4.14h.864l-5.022 4.32L173.78 60zm9.246-9v9h-.648v-8.406h-4.968v4.698c0 2.628-.948 3.864-2.844 3.708v-.594c.744.06 1.296-.15 1.656-.63.36-.492.54-1.32.54-2.484V51h6.264zm10.463-.198c1.32 0 2.436.456 3.348 1.368.912.9 1.368 2.01 1.368 3.33 0 1.32-.456 2.436-1.368 3.348-.912.9-2.028 1.35-3.348 1.35-1.248 0-2.322-.42-3.222-1.26-.888-.84-1.368-1.884-1.44-3.132h-2.16V60h-.648v-9h.648v4.194h2.16c.072-1.248.552-2.292 1.44-3.132.9-.84 1.974-1.26 3.222-1.26zm-2.898 7.614c.792.78 1.758 1.17 2.898 1.17 1.14 0 2.106-.39 2.898-1.17.792-.792 1.188-1.764 1.188-2.916s-.396-2.118-1.188-2.898c-.792-.792-1.758-1.188-2.898-1.188-1.14 0-2.106.396-2.898 1.188-.78.78-1.17 1.746-1.17 2.898 0 1.152.39 2.124 1.17 2.916zM206.519 51h.63v9h-.63v-3.636c-.876.42-1.854.63-2.934.63-1.128 0-2.01-.258-2.646-.774-.624-.528-.936-1.266-.936-2.214V51h.648v3.006c0 .78.252 1.38.756 1.8.504.408 1.23.612 2.178.612 1.02 0 1.998-.216 2.934-.648V51zm11.754 0h.63v9h-.63v-2.412c-.36.792-.906 1.428-1.638 1.908-.732.468-1.554.702-2.466.702-1.296 0-2.4-.45-3.312-1.35-.912-.912-1.368-2.028-1.368-3.348 0-1.32.456-2.43 1.368-3.33.912-.912 2.016-1.368 3.312-1.368.912 0 1.734.24 2.466.72.732.468 1.278 1.098 1.638 1.89V51zm-6.984 7.416c.792.78 1.758 1.17 2.898 1.17 1.14 0 2.106-.39 2.898-1.17.792-.792 1.188-1.764 1.188-2.916s-.396-2.118-1.188-2.898c-.792-.792-1.758-1.188-2.898-1.188-1.14 0-2.106.396-2.898 1.188-.78.78-1.17 1.746-1.17 2.898 0 1.152.39 2.124 1.17 2.916zM227.908 51v9h-.648v-3.582h-2.34L222.058 60h-.81l2.916-3.6c-.756-.06-1.392-.33-1.908-.81-.516-.48-.774-1.098-.774-1.854 0-.804.288-1.458.864-1.962.576-.516 1.272-.774 2.088-.774h3.474zm-3.474 4.842h2.826v-4.248h-2.826c-.66 0-1.212.204-1.656.612-.444.396-.666.906-.666 1.53 0 .612.222 1.116.666 1.512.444.396.996.594 1.656.594zm14.71-5.04c1.368 0 2.472.45 3.312 1.35.84.888 1.26 2.004 1.26 3.348 0 1.344-.426 2.466-1.278 3.366-.84.888-1.944 1.332-3.312 1.332-.936 0-1.764-.204-2.484-.612-.708-.408-1.224-.96-1.548-1.656l.54-.306c.288.6.732 1.08 1.332 1.44.612.348 1.332.522 2.16.522 1.128 0 2.052-.354 2.772-1.062.72-.708 1.11-1.614 1.17-2.718h-4.806v-.612h4.806c-.06-1.104-.45-2.01-1.17-2.718-.708-.708-1.626-1.062-2.754-1.062-.804 0-1.512.18-2.124.54-.612.348-1.062.822-1.35 1.422l-.54-.324c.348-.696.876-1.242 1.584-1.638.708-.408 1.518-.612 2.43-.612zm12.673.198v.594h-3.33V60h-.648v-8.406h-3.33V51h7.308zm5.506 9.198c-1.308 0-2.418-.45-3.33-1.35-.912-.912-1.368-2.028-1.368-3.348 0-1.32.456-2.43 1.368-3.33.912-.912 2.022-1.368 3.33-1.368 1.32 0 2.436.456 3.348 1.368.912.9 1.368 2.01 1.368 3.33 0 1.32-.456 2.436-1.368 3.348-.912.9-2.028 1.35-3.348 1.35zm-2.898-1.782c.792.78 1.758 1.17 2.898 1.17 1.14 0 2.106-.39 2.898-1.17.792-.792 1.188-1.764 1.188-2.916s-.396-2.118-1.188-2.898c-.792-.792-1.758-1.188-2.898-1.188-1.14 0-2.106.396-2.898 1.188-.78.78-1.17 1.746-1.17 2.898 0 1.152.39 2.124 1.17 2.916zM270.151 51v.594h-3.33V60h-.648v-8.406h-3.33V51h7.308zm1.622 8.064l-.864 3.456h-.576l.648-3.456h.792zM40.82 72v9h-.63v-8.406h-6.048V81h-.648v-9h7.326zm7.0424 9.198c-1.308 0-2.418-.45-3.33-1.35-.912-.912-1.368-2.028-1.368-3.348 0-1.32.456-2.43 1.368-3.33.912-.912 2.022-1.368 3.33-1.368 1.32 0 2.436.456 3.348 1.368.912.9 1.368 2.01 1.368 3.33 0 1.32-.456 2.436-1.368 3.348-.912.9-2.028 1.35-3.348 1.35zm-2.898-1.782c.792.78 1.758 1.17 2.898 1.17 1.14 0 2.106-.39 2.898-1.17.792-.792 1.188-1.764 1.188-2.916s-.396-2.118-1.188-2.898c-.792-.792-1.758-1.188-2.898-1.188-1.14 0-2.106.396-2.898 1.188-.78.78-1.17 1.746-1.17 2.898 0 1.152.39 2.124 1.17 2.916zM60.6902 72v.594h-3.33V81h-.648v-8.406h-3.33V72h7.308zm5.5061 9.198c-1.308 0-2.418-.45-3.33-1.35-.912-.912-1.368-2.028-1.368-3.348 0-1.32.456-2.43 1.368-3.33.912-.912 2.022-1.368 3.33-1.368 1.32 0 2.436.456 3.348 1.368.912.9 1.368 2.01 1.368 3.33 0 1.32-.456 2.436-1.368 3.348-.912.9-2.028 1.35-3.348 1.35zm-2.898-1.782c.792.78 1.758 1.17 2.898 1.17 1.14 0 2.106-.39 2.898-1.17.792-.792 1.188-1.764 1.188-2.916s-.396-2.118-1.188-2.898c-.792-.792-1.758-1.188-2.898-1.188-1.14 0-2.106.396-2.898 1.188-.78.78-1.17 1.746-1.17 2.898 0 1.152.39 2.124 1.17 2.916zM81.8417 72v9h-.63v-8.118l-3.6 5.562h-.126l-3.582-5.526V81h-.648v-9h.792l3.51 5.382 3.51-5.382h.774zm9.7124 0h.648l-3.906 9.828c-.36.888-.852 1.584-1.476 2.088-.624.516-1.302.744-2.034.684v-.594c.6.06 1.152-.12 1.656-.54.516-.42.93-1.014 1.242-1.782l.18-.396-4.23-9.288h.648l3.888 8.514L91.5541 72zm13.6979 0h.63v9h-.63v-3.636c-.876.42-1.854.63-2.934.63-1.128 0-2.01-.258-2.6464-.774-.624-.528-.936-1.266-.936-2.214V72h.648v3.006c0 .78.252 1.38.7564 1.8.504.408 1.23.612 2.178.612 1.02 0 1.998-.216 2.934-.648V72zm9.737 0v.594h-3.33V81h-.648v-8.406h-3.33V72h7.308zm5.506 9.198c-1.308 0-2.418-.45-3.33-1.35-.912-.912-1.368-2.028-1.368-3.348 0-1.32.456-2.43 1.368-3.33.912-.912 2.022-1.368 3.33-1.368 1.32 0 2.436.456 3.348 1.368.912.9 1.368 2.01 1.368 3.33 0 1.32-.456 2.436-1.368 3.348-.912.9-2.028 1.35-3.348 1.35zm-2.898-1.782c.792.78 1.758 1.17 2.898 1.17 1.14 0 2.106-.39 2.898-1.17.792-.792 1.188-1.764 1.188-2.916s-.396-2.118-1.188-2.898c-.792-.792-1.758-1.188-2.898-1.188-1.14 0-2.106.396-2.898 1.188-.78.78-1.17 1.746-1.17 2.898 0 1.152.39 2.124 1.17 2.916zm18.907 1.782c-1.296 0-2.37-.42-3.222-1.26-.852-.852-1.278-1.968-1.278-3.348 0-1.476.21-2.622.63-3.438.432-.828 1.314-1.566 2.646-2.214.312-.156.69-.324 1.134-.504.456-.192.81-.348 1.062-.468.264-.12.534-.264.81-.432.276-.168.486-.354.63-.558.156-.216.258-.468.306-.756l.504.288c-.06.312-.174.594-.342.846-.168.24-.408.456-.72.648-.3.18-.582.336-.846.468-.264.12-.63.276-1.098.468-.468.192-.84.354-1.116.486-.948.456-1.638.954-2.07 1.494-.432.54-.702 1.278-.81 2.214.432-.756 1.002-1.326 1.71-1.71.72-.396 1.464-.594 2.232-.594 1.188 0 2.184.396 2.988 1.188.804.792 1.206 1.794 1.206 3.006 0 1.212-.408 2.214-1.224 3.006-.816.78-1.86 1.17-3.132 1.17zm0-.612c1.092 0 1.986-.33 2.682-.99.696-.672 1.044-1.53 1.044-2.574 0-1.044-.342-1.902-1.026-2.574-.672-.684-1.536-1.026-2.592-1.026-.96 0-1.824.312-2.592.936-.756.612-1.212 1.392-1.368 2.34 0 1.14.36 2.076 1.08 2.808.72.72 1.644 1.08 2.772 1.08zm10.461-8.784c1.32 0 2.388.468 3.204 1.404.828.936 1.242 2.046 1.242 3.33 0 .144-.006.246-.018.306h-8.37c.072 1.116.486 2.022 1.242 2.718.756.684 1.686 1.026 2.79 1.026.756 0 1.422-.156 1.998-.468.588-.324 1.026-.75 1.314-1.278l.558.324c-.36.624-.882 1.122-1.566 1.494-.672.36-1.44.54-2.304.54-1.368 0-2.49-.438-3.366-1.314-.876-.888-1.314-2.016-1.314-3.384 0-1.332.432-2.448 1.296-3.348.864-.9 1.962-1.35 3.294-1.35zm0 .612c-1.104 0-2.028.36-2.772 1.08-.732.708-1.128 1.626-1.188 2.754h7.758c-.084-1.164-.486-2.094-1.206-2.79-.708-.696-1.572-1.044-2.592-1.044zm10.584 3.924c.588.156 1.038.444 1.35.864.324.408.486.888.486 1.44 0 .708-.288 1.314-.864 1.818-.564.492-1.356.738-2.376.738-1.824 0-2.97-.702-3.438-2.106l.522-.306c.372 1.2 1.344 1.8 2.916 1.8.804 0 1.44-.18 1.908-.54.468-.36.702-.834.702-1.422 0-.576-.204-1.038-.612-1.386-.408-.36-.954-.54-1.638-.54h-1.152v-.594h.828c.66 0 1.176-.168 1.548-.504.384-.336.576-.78.576-1.332 0-.54-.216-.984-.648-1.332-.432-.348-.99-.522-1.674-.522-.636 0-1.182.138-1.638.414-.444.276-.762.654-.954 1.134l-.522-.306c.24-.564.624-1.014 1.152-1.35.528-.336 1.182-.504 1.962-.504.9 0 1.62.24 2.16.72.54.468.81 1.038.81 1.71 0 .468-.12.894-.36 1.278-.24.372-.588.648-1.044.828zM173.164 81h-.864l-5.004-4.482V81h-.648v-9h.648v4.14L172.12 72h.864l-5.022 4.32 5.202 4.68zm8.355-9h.648l-3.906 9.828c-.36.888-.852 1.584-1.476 2.088-.624.516-1.302.744-2.034.684v-.594c.6.06 1.152-.12 1.656-.54.516-.42.93-1.014 1.242-1.782l.18-.396-4.23-9.288h.648l3.888 8.514L181.519 72zm8.96 9h-.864l-5.004-4.482V81h-.648v-9h.648v4.14l4.824-4.14h.864l-5.022 4.32 5.202 4.68zm12.454-4.662c.552.156.972.432 1.26.828.3.396.45.864.45 1.404 0 .708-.234 1.29-.702 1.746-.468.456-1.146.684-2.034.684h-4.356v-9h4.032c.84 0 1.482.216 1.926.648.456.432.684.99.684 1.674 0 .972-.42 1.644-1.26 2.016zm-1.35-3.744h-3.384v3.51h3.384c.624 0 1.11-.156 1.458-.468.348-.312.522-.744.522-1.296 0-.54-.174-.966-.522-1.278-.348-.312-.834-.468-1.458-.468zm.324 7.812c.66 0 1.17-.162 1.53-.486.372-.336.558-.798.558-1.386 0-.576-.186-1.026-.558-1.35-.36-.324-.87-.486-1.53-.486h-3.708v3.708h3.708zm8.922.792c-1.308 0-2.418-.45-3.33-1.35-.912-.912-1.368-2.028-1.368-3.348 0-1.32.456-2.43 1.368-3.33.912-.912 2.022-1.368 3.33-1.368 1.32 0 2.436.456 3.348 1.368.912.9 1.368 2.01 1.368 3.33 0 1.32-.456 2.436-1.368 3.348-.912.9-2.028 1.35-3.348 1.35zm-2.898-1.782c.792.78 1.758 1.17 2.898 1.17 1.14 0 2.106-.39 2.898-1.17.792-.792 1.188-1.764 1.188-2.916s-.396-2.118-1.188-2.898c-.792-.792-1.758-1.188-2.898-1.188-1.14 0-2.106.396-2.898 1.188-.78.78-1.17 1.746-1.17 2.898 0 1.152.39 2.124 1.17 2.916zm14.008 1.782c-1.308 0-2.418-.45-3.33-1.35-.912-.912-1.368-2.028-1.368-3.348 0-1.32.456-2.43 1.368-3.33.912-.912 2.022-1.368 3.33-1.368 1.32 0 2.436.456 3.348 1.368.912.9 1.368 2.01 1.368 3.33 0 1.32-.456 2.436-1.368 3.348-.912.9-2.028 1.35-3.348 1.35zm-2.898-1.782c.792.78 1.758 1.17 2.898 1.17 1.14 0 2.106-.39 2.898-1.17.792-.792 1.188-1.764 1.188-2.916s-.396-2.118-1.188-2.898c-.792-.792-1.758-1.188-2.898-1.188-1.14 0-2.106.396-2.898 1.188-.78.78-1.17 1.746-1.17 2.898 0 1.152.39 2.124 1.17 2.916zm13.809 1.782c-1.296 0-2.37-.42-3.222-1.26-.852-.852-1.278-1.968-1.278-3.348 0-1.476.21-2.622.63-3.438.432-.828 1.314-1.566 2.646-2.214.312-.156.69-.324 1.134-.504.456-.192.81-.348 1.062-.468.264-.12.534-.264.81-.432.276-.168.486-.354.63-.558.156-.216.258-.468.306-.756l.504.288c-.06.312-.174.594-.342.846-.168.24-.408.456-.72.648-.3.18-.582.336-.846.468-.264.12-.63.276-1.098.468-.468.192-.84.354-1.116.486-.948.456-1.638.954-2.07 1.494-.432.54-.702 1.278-.81 2.214.432-.756 1.002-1.326 1.71-1.71.72-.396 1.464-.594 2.232-.594 1.188 0 2.184.396 2.988 1.188.804.792 1.206 1.794 1.206 3.006 0 1.212-.408 2.214-1.224 3.006-.816.78-1.86 1.17-3.132 1.17zm0-.612c1.092 0 1.986-.33 2.682-.99.696-.672 1.044-1.53 1.044-2.574 0-1.044-.342-1.902-1.026-2.574-.672-.684-1.536-1.026-2.592-1.026-.96 0-1.824.312-2.592.936-.756.612-1.212 1.392-1.368 2.34 0 1.14.36 2.076 1.08 2.808.72.72 1.644 1.08 2.772 1.08zm18.345-.18h1.26v3.006h-.63V81h-12.456v-9h.648v8.406h4.95V72h.63v8.406h4.968V72h.63v8.406zm7.005-8.604c1.32 0 2.388.468 3.204 1.404.828.936 1.242 2.046 1.242 3.33 0 .144-.006.246-.018.306h-8.37c.072 1.116.486 2.022 1.242 2.718.756.684 1.686 1.026 2.79 1.026.756 0 1.422-.156 1.998-.468.588-.324 1.026-.75 1.314-1.278l.558.324c-.36.624-.882 1.122-1.566 1.494-.672.36-1.44.54-2.304.54-1.368 0-2.49-.438-3.366-1.314-.876-.888-1.314-2.016-1.314-3.384 0-1.332.432-2.448 1.296-3.348.864-.9 1.962-1.35 3.294-1.35zm0 .612c-1.104 0-2.028.36-2.772 1.08-.732.708-1.128 1.626-1.188 2.754h7.758c-.084-1.164-.486-2.094-1.206-2.79-.708-.696-1.572-1.044-2.592-1.044zm17.225 3.924c.552.156.972.432 1.26.828.3.396.45.864.45 1.404 0 .708-.234 1.29-.702 1.746-.468.456-1.146.684-2.034.684h-4.356v-9h4.032c.84 0 1.482.216 1.926.648.456.432.684.99.684 1.674 0 .972-.42 1.644-1.26 2.016zm-1.35-3.744h-3.384v3.51h3.384c.624 0 1.11-.156 1.458-.468.348-.312.522-.744.522-1.296 0-.54-.174-.966-.522-1.278-.348-.312-.834-.468-1.458-.468zm.324 7.812c.66 0 1.17-.162 1.53-.486.372-.336.558-.798.558-1.386 0-.576-.186-1.026-.558-1.35-.36-.324-.87-.486-1.53-.486h-3.708v3.708h3.708zm8.814-8.604c1.32 0 2.388.468 3.204 1.404.828.936 1.242 2.046 1.242 3.33 0 .144-.006.246-.018.306h-8.37c.072 1.116.486 2.022 1.242 2.718.756.684 1.686 1.026 2.79 1.026.756 0 1.422-.156 1.998-.468.588-.324 1.026-.75 1.314-1.278l.558.324c-.36.624-.882 1.122-1.566 1.494-.672.36-1.44.54-2.304.54-1.368 0-2.49-.438-3.366-1.314-.876-.888-1.314-2.016-1.314-3.384 0-1.332.432-2.448 1.296-3.348.864-.9 1.962-1.35 3.294-1.35zm0 .612c-1.104 0-2.028.36-2.772 1.08-.732.708-1.128 1.626-1.188 2.754h7.758c-.084-1.164-.486-2.094-1.206-2.79-.708-.696-1.572-1.044-2.592-1.044zm10.796 8.784c-1.332 0-2.448-.45-3.348-1.35-.9-.9-1.35-2.016-1.35-3.348 0-1.332.45-2.448 1.35-3.348.9-.9 2.016-1.35 3.348-1.35.876 0 1.668.204 2.376.612.708.408 1.23.954 1.566 1.638l-.522.306c-.288-.588-.738-1.056-1.35-1.404-.612-.36-1.302-.54-2.07-.54-1.152 0-2.118.396-2.898 1.188-.78.78-1.17 1.746-1.17 2.898 0 1.152.39 2.124 1.17 2.916.78.78 1.746 1.17 2.898 1.17.768 0 1.452-.174 2.052-.522.612-.36 1.074-.834 1.386-1.422l.522.306c-.348.684-.876 1.23-1.584 1.638-.708.408-1.5.612-2.376.612zm9.689-5.634c.816 0 1.512.252 2.088.756.576.492.864 1.14.864 1.944s-.288 1.464-.864 1.98c-.576.504-1.272.756-2.088.756h-3.474v-9h.648v3.564h2.826zm0 4.842c.66 0 1.212-.198 1.656-.594.444-.408.666-.924.666-1.548 0-.612-.222-1.116-.666-1.512-.444-.396-.996-.594-1.656-.594h-2.826v4.248h2.826zM40.244 93h.576v9h-.63v-7.92L34.07 102h-.576v-9h.648v7.92L40.244 93zm10.2644 0h.63v9h-.63v-4.194h-6.048V102h-.648v-9h.648v4.194h6.048V93zm9.7423 0v.594h-3.33V102h-.648v-8.406h-3.33V93h7.308zm5.3982-.198c1.32 0 2.388.468 3.204 1.404.828.936 1.242 2.046 1.242 3.33 0 .144-.006.246-.018.306h-8.37c.072 1.116.486 2.022 1.242 2.718.756.684 1.686 1.026 2.79 1.026.756 0 1.422-.156 1.998-.468.588-.324 1.026-.75 1.314-1.278l.558.324c-.36.624-.882 1.122-1.566 1.494-.672.36-1.44.54-2.304.54-1.368 0-2.49-.438-3.366-1.314-.876-.888-1.314-2.016-1.314-3.384 0-1.332.432-2.448 1.296-3.348.864-.9 1.962-1.35 3.294-1.35zm0 .612c-1.104 0-2.028.36-2.772 1.08-.732.708-1.128 1.626-1.188 2.754h7.758c-.084-1.164-.486-2.094-1.206-2.79-.708-.696-1.572-1.044-2.592-1.044zm11.4975-.612c1.296 0 2.4.456 3.312 1.368.912.9 1.368 2.01 1.368 3.33 0 1.32-.456 2.436-1.368 3.348-.912.9-2.016 1.35-3.312 1.35-.924 0-1.746-.234-2.466-.702-.72-.468-1.266-1.098-1.638-1.89v5.994h-.648V93h.648v2.394c.372-.792.918-1.422 1.638-1.89.72-.468 1.542-.702 2.466-.702zm-2.934 7.614c.792.78 1.758 1.17 2.898 1.17 1.14 0 2.1-.39 2.88-1.17.792-.792 1.188-1.764 1.188-2.916s-.396-2.118-1.188-2.898c-.78-.792-1.74-1.188-2.88-1.188s-2.106.396-2.898 1.188c-.78.78-1.17 1.746-1.17 2.898 0 1.152.39 2.124 1.17 2.916zM90.8502 93h.63v9h-.63v-4.194h-6.048V102h-.648v-9h.648v4.194h6.048V93zm7.5643-.198c1.32 0 2.3885.468 3.2045 1.404.828.936 1.242 2.046 1.242 3.33 0 .144-.006.246-.018.306h-8.3705c.072 1.116.486 2.022 1.242 2.718.756.684 1.686 1.026 2.79 1.026.756 0 1.422-.156 1.9985-.468.588-.324 1.026-.75 1.314-1.278l.558.324c-.36.624-.882 1.122-1.566 1.494-.672.36-1.4405.54-2.3045.54-1.368 0-2.49-.438-3.366-1.314-.876-.888-1.314-2.016-1.314-3.384 0-1.332.432-2.448 1.296-3.348.864-.9 1.962-1.35 3.294-1.35zm0 .612c-1.104 0-2.028.36-2.772 1.08-.732.708-1.128 1.626-1.188 2.754h7.7585c-.084-1.164-.486-2.094-1.206-2.79-.708-.696-1.5725-1.044-2.5925-1.044zM110.928 93v.594h-3.33V102h-.648v-8.406h-3.33V93h7.308zm11.658-.198c1.296 0 2.4.456 3.312 1.368.912.9 1.368 2.01 1.368 3.33 0 1.32-.456 2.436-1.368 3.348-.912.9-2.016 1.35-3.312 1.35-.924 0-1.746-.234-2.466-.702-.72-.468-1.266-1.098-1.638-1.89v5.994h-.648V93h.648v2.394c.372-.792.918-1.422 1.638-1.89.72-.468 1.542-.702 2.466-.702zm-2.934 7.614c.792.78 1.758 1.17 2.898 1.17 1.14 0 2.1-.39 2.88-1.17.792-.792 1.188-1.764 1.188-2.916s-.396-2.118-1.188-2.898c-.78-.792-1.74-1.188-2.88-1.188s-2.106.396-2.898 1.188c-.78.78-1.17 1.746-1.17 2.898 0 1.152.39 2.124 1.17 2.916zM137.73 93h.63v9h-.63v-2.412c-.36.792-.906 1.428-1.638 1.908-.732.468-1.554.702-2.466.702-1.296 0-2.4-.45-3.312-1.35-.912-.912-1.368-2.028-1.368-3.348 0-1.32.456-2.43 1.368-3.33.912-.912 2.016-1.368 3.312-1.368.912 0 1.734.24 2.466.72.732.468 1.278 1.098 1.638 1.89V93zm-6.984 7.416c.792.78 1.758 1.17 2.898 1.17 1.14 0 2.106-.39 2.898-1.17.792-.792 1.188-1.764 1.188-2.916s-.396-2.118-1.188-2.898c-.792-.792-1.758-1.188-2.898-1.188-1.14 0-2.106.396-2.898 1.188-.78.78-1.17 1.746-1.17 2.898 0 1.152.39 2.124 1.17 2.916zm14.459 1.782c-1.296 0-2.37-.42-3.222-1.26-.852-.852-1.278-1.968-1.278-3.348 0-1.476.21-2.622.63-3.438.432-.828 1.314-1.566 2.646-2.214.312-.156.69-.324 1.134-.504.456-.192.81-.348 1.062-.468.264-.12.534-.264.81-.432.276-.168.486-.354.63-.558.156-.216.258-.468.306-.756l.504.288c-.06.312-.174.594-.342.846-.168.24-.408.456-.72.648-.3.18-.582.336-.846.468-.264.12-.63.276-1.098.468-.468.192-.84.354-1.116.486-.948.456-1.638.954-2.07 1.494-.432.54-.702 1.278-.81 2.214.432-.756 1.002-1.326 1.71-1.71.72-.396 1.464-.594 2.232-.594 1.188 0 2.184.396 2.988 1.188.804.792 1.206 1.794 1.206 3.006 0 1.212-.408 2.214-1.224 3.006-.816.78-1.86 1.17-3.132 1.17zm0-.612c1.092 0 1.986-.33 2.682-.99.696-.672 1.044-1.53 1.044-2.574 0-1.044-.342-1.902-1.026-2.574-.672-.684-1.536-1.026-2.592-1.026-.96 0-1.824.312-2.592.936-.756.612-1.212 1.392-1.368 2.34 0 1.14.36 2.076 1.08 2.808.72.72 1.644 1.08 2.772 1.08zm10.569.612c-1.308 0-2.418-.45-3.33-1.35-.912-.912-1.368-2.028-1.368-3.348 0-1.32.456-2.43 1.368-3.33.912-.912 2.022-1.368 3.33-1.368 1.32 0 2.436.456 3.348 1.368.912.9 1.368 2.01 1.368 3.33 0 1.32-.456 2.436-1.368 3.348-.912.9-2.028 1.35-3.348 1.35zm-2.898-1.782c.792.78 1.758 1.17 2.898 1.17 1.14 0 2.106-.39 2.898-1.17.792-.792 1.188-1.764 1.188-2.916s-.396-2.118-1.188-2.898c-.792-.792-1.758-1.188-2.898-1.188-1.14 0-2.106.396-2.898 1.188-.78.78-1.17 1.746-1.17 2.898 0 1.152.39 2.124 1.17 2.916zM168.602 93v.594h-3.33V102h-.648v-8.406h-3.33V93h7.308zm9.592 0h.63v9h-.63v-2.412c-.36.792-.906 1.428-1.638 1.908-.732.468-1.554.702-2.466.702-1.296 0-2.4-.45-3.312-1.35-.912-.912-1.368-2.028-1.368-3.348 0-1.32.456-2.43 1.368-3.33.912-.912 2.016-1.368 3.312-1.368.912 0 1.734.24 2.466.72.732.468 1.278 1.098 1.638 1.89V93zm-6.984 7.416c.792.78 1.758 1.17 2.898 1.17 1.14 0 2.106-.39 2.898-1.17.792-.792 1.188-1.764 1.188-2.916s-.396-2.118-1.188-2.898c-.792-.792-1.758-1.188-2.898-1.188-1.14 0-2.106.396-2.898 1.188-.78.78-1.17 1.746-1.17 2.898 0 1.152.39 2.124 1.17 2.916zM189.09 93v9h-.648v-8.406h-4.968v4.698c0 2.628-.948 3.864-2.844 3.708v-.594c.744.06 1.296-.15 1.656-.63.36-.492.54-1.32.54-2.484V93h6.264zm11.944 9.198c-1.296 0-2.37-.42-3.222-1.26-.852-.852-1.278-1.968-1.278-3.348 0-1.476.21-2.622.63-3.438.432-.828 1.314-1.566 2.646-2.214.312-.156.69-.324 1.134-.504.456-.192.81-.348 1.062-.468.264-.12.534-.264.81-.432.276-.168.486-.354.63-.558.156-.216.258-.468.306-.756l.504.288c-.06.312-.174.594-.342.846-.168.24-.408.456-.72.648-.3.18-.582.336-.846.468-.264.12-.63.276-1.098.468-.468.192-.84.354-1.116.486-.948.456-1.638.954-2.071 1.494-.431.54-.701 1.278-.809 2.214.432-.756 1.002-1.326 1.71-1.71.72-.396 1.464-.594 2.232-.594 1.188 0 2.184.396 2.988 1.188.804.792 1.206 1.794 1.206 3.006 0 1.212-.408 2.214-1.224 3.006-.816.78-1.86 1.17-3.132 1.17zm0-.612c1.092 0 1.986-.33 2.682-.99.696-.672 1.044-1.53 1.044-2.574 0-1.044-.342-1.902-1.026-2.574-.672-.684-1.536-1.026-2.592-1.026-.96 0-1.824.312-2.592.936-.756.612-1.212 1.392-1.368 2.34 0 1.14.36 2.076 1.08 2.808.72.72 1.644 1.08 2.772 1.08zm9.993-5.022c.816 0 1.512.252 2.088.756.576.492.864 1.14.864 1.944s-.288 1.464-.864 1.98c-.576.504-1.272.756-2.088.756h-3.474v-9h.648v3.564h2.826zM215.473 93h.648v9h-.648v-9zm-4.446 8.406c.66 0 1.212-.198 1.656-.594.444-.408.666-.924.666-1.548 0-.612-.222-1.116-.666-1.512-.444-.396-.996-.594-1.656-.594h-2.826v4.248h2.826zM230.355 93h.63v9h-.63v-3.636c-.876.42-1.854.63-2.934.63-1.128 0-2.01-.258-2.646-.774-.624-.528-.936-1.266-.936-2.214V93h.648v3.006c0 .78.252 1.38.756 1.8.504.408 1.23.612 2.178.612 1.02 0 1.998-.216 2.934-.648V93zm7.56-.198c1.32 0 2.388.468 3.204 1.404.828.936 1.242 2.046 1.242 3.33 0 .144-.006.246-.018.306h-8.37c.072 1.116.486 2.022 1.242 2.718.756.684 1.686 1.026 2.79 1.026.756 0 1.422-.156 1.998-.468.588-.324 1.026-.75 1.314-1.278l.558.324c-.36.624-.882 1.122-1.566 1.494-.672.36-1.44.54-2.304.54-1.368 0-2.49-.438-3.366-1.314-.876-.888-1.314-2.016-1.314-3.384 0-1.332.432-2.448 1.296-3.348.864-.9 1.962-1.35 3.294-1.35zm0 .612c-1.104 0-2.028.36-2.772 1.08-.732.708-1.128 1.626-1.188 2.754h7.758c-.084-1.164-.486-2.094-1.206-2.79-.708-.696-1.572-1.044-2.592-1.044zm11.497-.612c1.296 0 2.4.456 3.312 1.368.912.9 1.368 2.01 1.368 3.33 0 1.32-.456 2.436-1.368 3.348-.912.9-2.016 1.35-3.312 1.35-.924 0-1.746-.234-2.466-.702-.72-.468-1.266-1.098-1.638-1.89v5.994h-.648V93h.648v2.394c.372-.792.918-1.422 1.638-1.89.72-.468 1.542-.702 2.466-.702zm-2.934 7.614c.792.78 1.758 1.17 2.898 1.17 1.14 0 2.1-.39 2.88-1.17.792-.792 1.188-1.764 1.188-2.916s-.396-2.118-1.188-2.898c-.78-.792-1.74-1.188-2.88-1.188s-2.106.396-2.898 1.188c-.78.78-1.17 1.746-1.17 2.898 0 1.152.39 2.124 1.17 2.916zm13.884-7.614c1.32 0 2.388.468 3.204 1.404.828.936 1.242 2.046 1.242 3.33 0 .144-.006.246-.018.306h-8.37c.072 1.116.486 2.022 1.242 2.718.756.684 1.686 1.026 2.79 1.026.756 0 1.422-.156 1.998-.468.588-.324 1.026-.75 1.314-1.278l.558.324c-.36.624-.882 1.122-1.566 1.494-.672.36-1.44.54-2.304.54-1.368 0-2.49-.438-3.366-1.314-.876-.888-1.314-2.016-1.314-3.384 0-1.332.432-2.448 1.296-3.348.864-.9 1.962-1.35 3.294-1.35zm0 .612c-1.104 0-2.028.36-2.772 1.08-.732.708-1.128 1.626-1.188 2.754h7.758c-.084-1.164-.486-2.094-1.206-2.79-.708-.696-1.572-1.044-2.592-1.044zm10.584 3.924c.588.156 1.038.444 1.35.864.324.408.486.888.486 1.44 0 .708-.288 1.314-.864 1.818-.564.492-1.356.738-2.376.738-1.824 0-2.97-.702-3.438-2.106l.521-.306c.373 1.2 1.345 1.8 2.917 1.8.804 0 1.44-.18 1.908-.54.468-.36.702-.834.702-1.422 0-.576-.204-1.038-.612-1.386-.408-.36-.954-.54-1.638-.54h-1.152v-.594h.828c.66 0 1.176-.168 1.548-.504.384-.336.576-.78.576-1.332 0-.54-.216-.984-.648-1.332-.432-.348-.99-.522-1.674-.522-.636 0-1.182.138-1.638.414-.444.276-.762.654-.954 1.134l-.522-.306c.24-.564.624-1.014 1.152-1.35.528-.336 1.182-.504 1.962-.504.9 0 1.62.24 2.16.72.54.468.81 1.038.81 1.71 0 .468-.12.894-.36 1.278-.24.372-.588.648-1.044.828zM289.819 102h-.792l-4.284-4.5v4.5h-.63v-4.5l-4.284 4.5h-.792l4.464-4.68-4.284-4.32h.792l4.104 4.14V93h.63v4.14l4.104-4.14h.792l-4.302 4.32 4.482 4.68zm5.315.198c-1.308 0-2.418-.45-3.33-1.35-.912-.912-1.368-2.028-1.368-3.348 0-1.32.456-2.43 1.368-3.33.912-.912 2.022-1.368 3.33-1.368 1.32 0 2.436.456 3.348 1.368.912.9 1.368 2.01 1.368 3.33 0 1.32-.456 2.436-1.368 3.348-.912.9-2.028 1.35-3.348 1.35zm-2.898-1.782c.792.78 1.758 1.17 2.898 1.17 1.14 0 2.106-.39 2.898-1.17.792-.792 1.188-1.764 1.188-2.916s-.396-2.118-1.188-2.898c-.792-.792-1.758-1.188-2.898-1.188-1.14 0-2.106.396-2.898 1.188-.78.78-1.17 1.746-1.17 2.898 0 1.152.39 2.124 1.17 2.916zM309.519 93v9h-.63v-8.406h-6.048V102h-.648v-9h7.326zm9.725 0h.648l-3.906 9.828c-.36.888-.852 1.584-1.476 2.088-.624.516-1.302.744-2.034.684v-.594c.6.06 1.152-.12 1.656-.54.516-.42.93-1.014 1.242-1.782l.18-.396-4.23-9.288h.648l3.888 8.514L319.244 93z" fill="#000"/><defs><linearGradient id="paint0_linear" x1="332" y1=".000009" x2="208.031" y2="284.612" gradientUnits="userSpaceOnUse"><stop stop-color="#fff"/></linearGradient><linearGradient id="paint1_linear" x1="299.837" y1="127.144" x2="24.9241" y2="204.122" gradientUnits="userSpaceOnUse"><stop stop-color="#60D77A"/><stop offset="1" stop-color="#2FB94D"/></linearGradient></defs></svg>