<svg width="283" height="78" viewBox="0 0 283 78" fill="none" xmlns="http://www.w3.org/2000/svg"><path d="M31.008 47H20.352L12 32.6V47H2.4V13.4H12v13.44l7.872-13.44h10.656l-9.984 16.32L31.008 47zm11.1274.672c-3.584 0-6.64-1.216-9.168-3.648-2.496-2.432-3.744-5.44-3.744-9.024 0-3.584 1.248-6.592 3.744-9.024 2.496-2.432 5.552-3.648 9.168-3.648 3.616 0 6.672 1.216 9.168 3.648 2.496 2.432 3.744 5.44 3.744 9.024 0 3.584-1.248 6.592-3.744 9.024-2.496 2.432-5.552 3.648-9.168 3.648zm-2.928-9.6c.768.768 1.744 1.152 2.928 1.152s2.144-.384 2.88-1.152c.768-.8 1.152-1.824 1.152-3.072s-.384-2.256-1.152-3.024c-.736-.8-1.696-1.2-2.88-1.2s-2.16.4-2.928 1.2c-.736.768-1.104 1.776-1.104 3.024s.368 2.272 1.104 3.072zM72.4819 23h8.88v24h-8.88v-7.776h-5.76V47h-8.88V23h8.88v7.776h5.76V23zm33.1351 0v8.448h-6.5281V47h-8.928V31.448h-6.624V23h22.0801zm18.046 0h8.88v24h-8.88v-2.16c-1.536 1.888-3.68 2.832-6.432 2.832-3.232 0-5.872-1.2-7.92-3.6-2.048-2.4-3.072-5.424-3.072-9.072 0-3.648 1.024-6.672 3.072-9.072 2.048-2.4 4.688-3.6 7.92-3.6 2.752 0 4.896.944 6.432 2.832V23zm-7.392 15.216c.8.864 1.84 1.296 3.12 1.296s2.304-.432 3.072-1.296c.8-.864 1.2-1.936 1.2-3.216 0-1.28-.4-2.352-1.2-3.216-.768-.864-1.792-1.296-3.072-1.296s-2.32.432-3.12 1.296c-.768.864-1.152 1.936-1.152 3.216 0 1.28.384 2.352 1.152 3.216zM160.884 47h-9.84l-5.76-9.6V47h-8.88V23h8.88v9.312l5.04-9.312h10.08l-7.296 12 7.776 12zm22.311-24v8.448h-6.528V47h-8.928V31.448h-6.624V23h22.08zm14.819 6.24c2.912 0 5.2.8 6.864 2.4 1.696 1.568 2.544 3.728 2.544 6.48 0 2.752-.848 4.928-2.544 6.528-1.664 1.568-3.952 2.352-6.864 2.352h-12.672V23h8.88v6.24h3.792zM208.862 23h8.88v24h-8.88V23zM196.91 39.8c1.248 0 1.872-.56 1.872-1.68 0-1.12-.624-1.68-1.872-1.68h-2.688v3.36h2.688z" fill="#3385FF"/></svg>