<svg width="289" height="63" viewBox="0 0 289 63" fill="none" xmlns="http://www.w3.org/2000/svg"><rect width="289" height="63" rx="20" fill="#3385FF"/><path d="M40 31.17c1.8 1.02 2.7 2.57 2.7 4.65 0 1.92-.63 3.43-1.89 4.53-1.24 1.1-3.05 1.65-5.43 1.65H26.5V21h8.34c2.36 0 4.16.51 5.4 1.53 1.24 1.02 1.86 2.48 1.86 4.38 0 1.82-.7 3.24-2.1 4.26zm-5.52-5.01H32.5v2.82l2.31-.03c.86-.12 1.29-.58 1.29-1.38 0-.46-.16-.81-.48-1.05-.32-.24-.7-.36-1.14-.36zm.54 10.68c.48 0 .88-.14 1.2-.42.32-.28.48-.64.48-1.08 0-.84-.45-1.33-1.35-1.47l-2.85-.03v3h2.52zm14.587-.45c.48 1 1.5 1.5 3.06 1.5.92 0 1.77-.32 2.55-.96l3.63 3.06c-1.5 1.62-3.62 2.43-6.36 2.43-2.56 0-4.62-.74-6.18-2.22-1.54-1.5-2.31-3.38-2.31-5.64 0-2.28.75-4.18 2.25-5.7 1.52-1.52 3.43-2.28 5.73-2.28 2.28 0 4.15.75 5.61 2.25 1.48 1.48 2.22 3.35 2.22 5.61 0 .66-.08 1.31-.24 1.95h-9.96zm-.09-3.57h5.04c-.34-1.2-1.15-1.8-2.43-1.8-1.3 0-2.17.6-2.61 1.8zm21.4971-6.24c2.02 0 3.67.75 4.95 2.25 1.28 1.5 1.92 3.39 1.92 5.67s-.64 4.17-1.92 5.67c-1.28 1.5-2.93 2.25-4.95 2.25-1.72 0-3.06-.59-4.02-1.77V48h-5.55V27h5.55v1.35c.96-1.18 2.3-1.77 4.02-1.77zm-3.3 9.93c.5.54 1.15.81 1.95.81s1.44-.27 1.92-.81c.5-.54.75-1.21.75-2.01 0-.8-.25-1.47-.75-2.01-.48-.54-1.12-.81-1.92-.81-.8 0-1.45.27-1.95.81-.48.54-.72 1.21-.72 2.01 0 .8.24 1.47.72 2.01zM88.7875 27h5.55v15h-5.55v-4.86h-3.6V42h-5.55V27h5.55v4.86h3.6V27zm17.5595 0h6.3l-4.98 14.55c-.78 2.3-2.02 3.97-3.72 5.01-1.68 1.06-3.69 1.54-6.0301 1.44v-5.25c1.02 0 1.8-.08 2.3401-.24.54-.14.97-.41 1.29-.81L95.5469 27h6.3001l2.67 8.01 1.83-8.01zm20.552 0v5.28h-4.08V42h-5.58v-9.72h-4.14V27h13.8zm9.262 3.9c1.82 0 3.25.5 4.29 1.5 1.06.98 1.59 2.33 1.59 4.05 0 1.72-.53 3.08-1.59 4.08-1.04.98-2.47 1.47-4.29 1.47h-7.92V27h5.55v3.9h2.37zm-.69 6.6c.78 0 1.17-.35 1.17-1.05 0-.7-.39-1.05-1.17-1.05h-1.68v2.1h1.68zm15.267 4.92c-2.3 0-4.21-.75-5.73-2.25-1.52-1.52-2.28-3.41-2.28-5.67s.76-4.14 2.28-5.64c1.52-1.52 3.43-2.28 5.73-2.28 1.48 0 2.83.36 4.05 1.08 1.24.7 2.19 1.65 2.85 2.85l-4.68 2.67c-.5-.84-1.24-1.26-2.22-1.26-.7 0-1.29.25-1.77.75-.46.48-.69 1.09-.69 1.83s.23 1.36.69 1.86c.48.48 1.07.72 1.77.72 1.04 0 1.78-.43 2.22-1.29l4.68 2.7c-.66 1.22-1.61 2.18-2.85 2.88-1.22.7-2.57 1.05-4.05 1.05zM172.393 27v15h-5.55v-4.2h-.39l-2.64 4.2h-6.3l3.51-5.1c-1.62-1.02-2.43-2.47-2.43-4.35 0-1.72.52-3.07 1.56-4.05 1.06-1 2.5-1.5 4.32-1.5h7.92zm-7.23 4.5c-.78 0-1.17.35-1.17 1.05 0 .7.39 1.05 1.17 1.05h1.68v-2.1h-1.68zM189.95 27h5.55v15h-5.55v-4.86h-3.6V42h-5.55V27h5.55v4.86h3.6V27zm18.13 0h5.55v15h-5.55v-1.35c-.96 1.18-2.3 1.77-4.02 1.77-2.02 0-3.67-.75-4.95-2.25-1.28-1.5-1.92-3.39-1.92-5.67s.64-4.17 1.92-5.67c1.28-1.5 2.93-2.25 4.95-2.25 1.72 0 3.06.59 4.02 1.77V27zm-4.62 9.51c.5.54 1.15.81 1.95.81s1.44-.27 1.92-.81c.5-.54.75-1.21.75-2.01 0-.8-.25-1.47-.75-2.01-.48-.54-1.12-.81-1.92-.81-.8 0-1.45.27-1.95.81-.48.54-.72 1.21-.72 2.01 0 .8.24 1.47.72 2.01zm22.424-2.19c1.54.74 2.31 1.94 2.31 3.6 0 1.34-.6 2.44-1.8 3.3-1.18.84-2.74 1.26-4.68 1.26-1.6 0-2.96-.27-4.08-.81-1.1-.56-1.98-1.5-2.64-2.82l4.17-2.43c.48 1.08 1.25 1.62 2.31 1.62.28 0 .54-.07.78-.21.24-.14.36-.34.36-.6 0-.54-.34-.81-1.02-.81h-1.5V32.4h1.5c.2 0 .37-.08.51-.24.16-.16.24-.34.24-.54 0-.56-.39-.84-1.17-.84-.92 0-1.54.51-1.86 1.53l-4.17-2.22c.76-1.26 1.66-2.16 2.7-2.7 1.04-.54 2.35-.81 3.93-.81 1.72 0 3.14.43 4.26 1.29 1.14.86 1.71 1.92 1.71 3.18 0 1.48-.62 2.57-1.86 3.27zM240.073 27h5.55v15h-5.55v-1.35c-.96 1.18-2.3 1.77-4.02 1.77-2.02 0-3.67-.75-4.95-2.25-1.28-1.5-1.92-3.39-1.92-5.67s.64-4.17 1.92-5.67c1.28-1.5 2.93-2.25 4.95-2.25 1.72 0 3.06.59 4.02 1.77V27zm-4.62 9.51c.5.54 1.15.81 1.95.81s1.44-.27 1.92-.81c.5-.54.75-1.21.75-2.01 0-.8-.25-1.47-.75-2.01-.48-.54-1.12-.81-1.92-.81-.8 0-1.45.27-1.95.81-.48.54-.72 1.21-.72 2.01 0 .8.24 1.47.72 2.01zm27.133.21h1.95v9.3h-5.25V42h-7.2v4.02h-5.25v-9.3h1.68c.72-1.18 1.08-2.85 1.08-5.01V27h12.99v9.72zm-8.4 0h3v-4.8h-2.19c-.02 1.9-.29 3.5-.81 4.8z" fill="#fff"/></svg>