<svg width="273" height="68" viewBox="0 0 273 68" fill="none" xmlns="http://www.w3.org/2000/svg"><rect width="273" height="68" rx="34" fill="#000" fill-opacity=".1"/><rect x="11" y="8" width="51" height="51" rx="25.5" fill="#fff"/><path fill-rule="evenodd" clip-rule="evenodd" d="M36.1456 42.9246h1.9725s.5959-.0625.9001-.376c.28-.2879.271-.8285.271-.8285s-.0385-2.5306 1.1899-2.9033c1.2109-.3671 2.7659 2.4459 4.4141 3.5274 1.2463.8186 2.1934.6391 2.1934.6391l4.407-.0587s2.3054-.1357 1.2122-1.8688c-.0896-.1418-.6366-1.282-3.2766-3.6251-2.7633-2.4522-2.3932-2.0556.9354-6.2975 2.0272-2.5833 2.8376-4.1604 2.5845-4.8359-.2415-.6434-1.7324-.4734-1.7324-.4734l-4.962.0296s-.3678-.048-.6407.1079c-.2665.153-.4381.5093-.4381.5093s-.7853 1.9991-1.8328 3.6992c-2.2095 3.5874-3.0929 3.7767-3.454 3.554-.84-.5192-.6304-2.0856-.6304-3.1985 0-3.4764.5515-4.9259-1.0738-5.3011-.5394-.1247-.9363-.2069-2.3157-.2202-1.7705-.0176-3.2691.0051-4.1176.4026-.5644.2643-.9999.8533-.7347.8871.328.042 1.0707.1915 1.4645.7042.5085.6614.4906 2.1469.4906 2.1469s.2921 4.0924-.6823 4.6008c-.6689.3487-1.5864-.3632-3.5562-3.6178-1.0094-1.6671-1.7714-3.5098-1.7714-3.5098s-.1469-.3444-.409-.5286c-.3181-.2232-.7625-.2943-.7625-.2943l-4.7152.0296s-.7078.0188-.9677.3131c-.2311.2617-.0183.8032-.0183.8032s3.6915 8.2575 7.8713 12.4189c3.8326 3.8152 8.1849 3.5646 8.1849 3.5646z" fill="#3385FF"/><path d="M87.21 30l-.588-1.764h-3.906L82.128 30h-2.086l3.43-9.8h2.394L89.31 30h-2.1zm-3.878-3.57h2.688l-1.344-4.004-1.344 4.004zM96.2929 23v7h-1.806v-5.264h-1.932v2.338c0 2.1653-.9846 3.1407-2.954 2.926v-1.694c.3734.0933.658.0327.854-.182.196-.224.294-.6067.294-1.148V23h5.544zm3.1626 4.242c.2427.8773.9005 1.316 1.9745 1.316.69 0 1.213-.2333 1.568-.7l1.456.84c-.691.9987-1.708 1.498-3.052 1.498-1.158 0-2.0865-.35-2.7865-1.05-.7-.7-1.05-1.582-1.05-2.646 0-1.0547.3453-1.932 1.036-2.632.6907-.7093 1.5775-1.064 2.6605-1.064 1.026 0 1.871.3547 2.534 1.064.672.7093 1.008 1.5867 1.008 2.632 0 .2333-.024.4807-.07.742h-5.2785zm-.028-1.4h3.5705c-.103-.476-.318-.8307-.644-1.064-.318-.2333-.682-.35-1.092-.35-.486 0-.887.126-1.204.378-.3178.2427-.5278.588-.6305 1.036zM112.518 30h-2.1l-2.548-3.178V30h-1.806v-7h1.806v3.08l2.408-3.08h2.156l-2.814 3.458L112.518 30zm3.728.196c-1.055 0-1.937-.3547-2.646-1.064-.7-.7093-1.05-1.5867-1.05-2.632 0-1.0453.35-1.9227 1.05-2.632.709-.7093 1.591-1.064 2.646-1.064.681 0 1.302.1633 1.862.49s.985.7653 1.274 1.316l-1.554.91c-.14-.2893-.355-.518-.644-.686-.28-.168-.597-.252-.952-.252-.541 0-.989.182-1.344.546-.355.3547-.532.812-.532 1.372 0 .5507.177 1.008.532 1.372.355.3547.803.532 1.344.532.364 0 .686-.0793.966-.238.289-.168.504-.3967.644-.686l1.568.896c-.308.5507-.742.994-1.302 1.33-.56.3267-1.181.49-1.862.49zm5.536-2.954c.242.8773.9 1.316 1.974 1.316.69 0 1.213-.2333 1.568-.7l1.456.84c-.691.9987-1.708 1.498-3.052 1.498-1.158 0-2.086-.35-2.786-1.05-.7-.7-1.05-1.582-1.05-2.646 0-1.0547.345-1.932 1.036-2.632.69-.7093 1.577-1.064 2.66-1.064 1.026 0 1.871.3547 2.534 1.064.672.7093 1.008 1.5867 1.008 2.632 0 .2333-.024.4807-.07.742h-5.278zm-.028-1.4h3.57c-.103-.476-.318-.8307-.644-1.064-.318-.2333-.682-.35-1.092-.35-.486 0-.887.126-1.204.378-.318.2427-.528.588-.63 1.036zm7.812-3.738v-1.568h4.06v1.568h-4.06zm3.878.896h1.344v7h-1.764v-3.976L129.734 30h-1.344v-7h1.764v3.976l3.29-3.976zm12.505 1.918c.859.4947 1.288 1.2413 1.288 2.24 0 .8307-.294 1.512-.882 2.044-.588.532-1.311.798-2.17.798h-4.158v-9.8h3.864c.84 0 1.545.2613 2.114.784.579.5133.868 1.1713.868 1.974 0 .812-.308 1.4653-.924 1.96zm-2.058-2.912h-1.932v2.156h1.932c.299 0 .546-.1027.742-.308.206-.2053.308-.462.308-.77s-.098-.5647-.294-.77c-.196-.2053-.448-.308-.756-.308zm.294 6.188c.327 0 .598-.1073.812-.322.215-.224.322-.504.322-.84 0-.3267-.107-.5973-.322-.812-.214-.224-.485-.336-.812-.336h-2.226v2.31h2.226zM153.474 23h1.344v7h-1.764v-3.976L149.764 30h-1.344v-7h1.764v3.976l3.29-3.976zm7.59 0h1.806v7h-1.806v-2.66h-2.786V30h-1.806v-7h1.806v2.646h2.786V23zm9.425 6.132c-.718.7093-1.596 1.064-2.632 1.064s-1.913-.3547-2.632-1.064c-.709-.7187-1.064-1.596-1.064-2.632s.355-1.9087 1.064-2.618c.719-.7187 1.596-1.078 2.632-1.078s1.914.3593 2.632 1.078c.719.7093 1.078 1.582 1.078 2.618 0 1.036-.359 1.9133-1.078 2.632zm-3.99-1.246c.364.364.817.546 1.358.546.542 0 .994-.182 1.358-.546.364-.364.546-.826.546-1.386 0-.56-.182-1.022-.546-1.386-.364-.364-.816-.546-1.358-.546-.541 0-.994.182-1.358.546-.354.364-.532.826-.532 1.386 0 .56.178 1.022.532 1.386zM177.626 23v1.736h-2.982V30h-1.806v-7h4.788zm5.042-.196c.942 0 1.745.3593 2.408 1.078.672.7093 1.008 1.582 1.008 2.618 0 1.036-.336 1.9133-1.008 2.632-.663.7093-1.466 1.064-2.408 1.064-.98 0-1.736-.3407-2.268-1.022V32.8h-1.806V23h1.806v.826c.532-.6813 1.288-1.022 2.268-1.022zm-1.722 5.124c.364.364.826.546 1.386.546.56 0 1.022-.182 1.386-.546.373-.3733.56-.8493.56-1.428 0-.5787-.187-1.05-.56-1.414-.364-.3733-.826-.56-1.386-.56-.56 0-1.022.1867-1.386.56-.364.364-.546.8353-.546 1.414 0 .5787.182 1.0547.546 1.428zM192.677 23h1.806v7h-1.806v-.826c-.541.6813-1.302 1.022-2.282 1.022-.933 0-1.736-.3547-2.408-1.064-.662-.7187-.994-1.596-.994-2.632s.332-1.9087.994-2.618c.672-.7187 1.475-1.078 2.408-1.078.98 0 1.741.3407 2.282 1.022V23zm-3.332 4.928c.364.364.826.546 1.386.546.56 0 1.022-.182 1.386-.546.374-.3733.56-.8493.56-1.428 0-.5787-.186-1.05-.56-1.414-.364-.3733-.826-.56-1.386-.56-.56 0-1.022.1867-1.386.56-.364.364-.546.8353-.546 1.414 0 .5787.182 1.0547.546 1.428zm13.076.378h.924v3.57h-1.764V30h-4.34v1.876h-1.764v-3.57h.854c.401-.5973.602-1.4233.602-2.478V23h5.488v5.306zm-4.158 0h2.394v-3.682h-1.96v1.204c0 .9893-.145 1.8153-.434 2.478zm11.916.826c-.719.7093-1.596 1.064-2.632 1.064s-1.914-.3547-2.632-1.064c-.71-.7187-1.064-1.596-1.064-2.632s.354-1.9087 1.064-2.618c.718-.7187 1.596-1.078 2.632-1.078s1.913.3593 2.632 1.078c.718.7093 1.078 1.582 1.078 2.618 0 1.036-.36 1.9133-1.078 2.632zm-3.99-1.246c.364.364.816.546 1.358.546.541 0 .994-.182 1.358-.546.364-.364.546-.826.546-1.386 0-.56-.182-1.022-.546-1.386-.364-.364-.817-.546-1.358-.546-.542 0-.994.182-1.358.546-.355.364-.532.826-.532 1.386 0 .56.177 1.022.532 1.386zm11.378-1.47c.654.3173.98.8493.98 1.596 0 .588-.205 1.0687-.616 1.442-.401.364-.975.546-1.722.546h-3.682v-7h3.402c.738 0 1.307.182 1.708.546.411.364.616.84.616 1.428 0 .616-.228 1.0967-.686 1.442zm-1.806-1.932h-1.54v1.26h1.54c.514 0 .77-.21.77-.63 0-.42-.256-.63-.77-.63zm.238 3.99c.523 0 .784-.224.784-.672 0-.196-.07-.35-.21-.462-.14-.112-.331-.168-.574-.168h-1.778v1.302h1.778zM85.78 47.5h.74v1.84h-.54V48h-5.26v1.34h-.54V47.5h.56c.48-.54.72-1.3767.72-2.51V41h4.32v6.5zM81.99 45c0 1.08-.2067 1.9133-.62 2.5h3.88v-6h-3.26V45zm9.3743-2h.44v5h-.51v-4.13l-3.18 4.13h-.44v-5h.5v4.13l3.19-4.13zm4.3838 2.42c.3.1.5334.26.7.48.1667.22.25.4733.25.76 0 .4067-.16.75-.48 1.03-.32.28-.7733.42-1.36.42-1 0-1.65-.3933-1.95-1.18l.43-.25c.2134.6333.72.95 1.52.95.4134 0 .7367-.09.97-.27.24-.1867.36-.43.36-.73 0-.2733-.1-.4933-.3-.66-.2-.1733-.4666-.26-.8-.26h-.69v-.49h.5c.3267 0 .5834-.0833.77-.25.1867-.1667.28-.39.28-.67 0-.2667-.11-.4867-.33-.66-.2133-.18-.4966-.27-.85-.27-.68 0-1.13.27-1.35.81l-.42-.24c.14-.32.36-.5733.66-.76.3-.1933.67-.29 1.11-.29.5134 0 .92.1367 1.22.41.3067.2667.46.5933.46.98 0 .54-.2333.92-.7 1.14zM102.201 43h.51v5h-.51v-1.13c-.213.3867-.506.69-.88.91-.373.22-.796.33-1.27.33-.7131 0-1.3231-.25-1.8297-.75-.5067-.5067-.76-1.1267-.76-1.86 0-.7333.2533-1.35.76-1.85.5066-.5067 1.1166-.76 1.8297-.76.474 0 .897.11 1.27.33.374.22.667.5233.88.91V43zm-3.6197 4.01c.4133.4133.9166.62 1.5097.62.594 0 1.094-.2067 1.5-.62.407-.4133.61-.9167.61-1.51s-.203-1.0967-.61-1.51c-.406-.4133-.906-.62-1.5-.62-.5931 0-1.0964.2067-1.5097.62-.4067.4133-.61.9167-.61 1.51s.2033 1.0967.61 1.51zm6.4557-4.88v-.44h2.53v.44h-2.53zm2.9.87h.44v5h-.51v-4.13l-3.18 4.13h-.44v-5h.5v4.13l3.19-4.13zm5.603 0h.51v5h-.51v-2.26h-3.12V48h-.5v-5h.5v2.26h3.12V43zm4.304-.11c.734 0 1.327.26 1.78.78.46.52.69 1.1367.69 1.85 0 .0267-.003.0667-.01.12v.12h-4.53c.06.56.284 1.0133.67 1.36.394.34.877.51 1.45.51.4 0 .75-.0833 1.05-.25.3-.1667.527-.3867.68-.66l.44.26c-.206.3467-.5.6233-.88.83-.38.2-.813.3-1.3.3-.766 0-1.396-.2433-1.89-.73-.493-.4933-.74-1.12-.74-1.88 0-.7467.24-1.3667.72-1.86.487-.5 1.11-.75 1.87-.75zm0 .48c-.566 0-1.04.1767-1.42.53-.38.3533-.596.81-.65 1.37h4.02c-.053-.5933-.266-1.0567-.64-1.39-.366-.34-.803-.51-1.31-.51zm6.289-.48c.72 0 1.33.2533 1.83.76.507.5.76 1.1167.76 1.85 0 .7333-.253 1.3533-.76 1.86-.5.5-1.11.75-1.83.75-.473 0-.9-.1133-1.28-.34-.373-.2267-.663-.5367-.87-.93V50h-.5v-7h.5v1.16c.207-.3933.497-.7033.87-.93.38-.2267.807-.34 1.28-.34zm-1.54 4.12c.413.4133.917.62 1.51.62s1.093-.2067 1.5-.62c.413-.4133.62-.9167.62-1.51s-.207-1.0967-.62-1.51c-.407-.4133-.907-.62-1.5-.62s-1.097.2067-1.51.62c-.407.4133-.61.9167-.61 1.51s.203 1.0967.61 1.51z" fill="#3D3D3D"/></svg>