<svg width="273" height="68" viewBox="0 0 273 68" fill="none" xmlns="http://www.w3.org/2000/svg"><rect width="273" height="68" rx="34" fill="#000" fill-opacity=".1"/><rect x="11" y="8" width="51" height="51" rx="25.5" fill="#fff"/><path fill-rule="evenodd" clip-rule="evenodd" d="M36.1456 42.9246h1.9725s.5959-.0625.9001-.376c.28-.2879.271-.8285.271-.8285s-.0385-2.5306 1.1899-2.9033c1.2109-.3671 2.7659 2.4459 4.4141 3.5274 1.2463.8186 2.1934.6391 2.1934.6391l4.407-.0587s2.3054-.1357 1.2122-1.8688c-.0896-.1418-.6366-1.282-3.2766-3.6251-2.7633-2.4522-2.3932-2.0556.9354-6.2975 2.0272-2.5833 2.8376-4.1604 2.5845-4.8359-.2415-.6434-1.7324-.4734-1.7324-.4734l-4.962.0296s-.3678-.048-.6407.1079c-.2665.153-.4381.5093-.4381.5093s-.7853 1.9991-1.8328 3.6992c-2.2095 3.5874-3.0929 3.7767-3.454 3.554-.84-.5192-.6304-2.0856-.6304-3.1985 0-3.4764.5515-4.9259-1.0738-5.3011-.5394-.1247-.9363-.2069-2.3157-.2202-1.7705-.0176-3.2691.0051-4.1176.4026-.5644.2643-.9999.8533-.7347.8871.328.042 1.0707.1915 1.4645.7042.5085.6614.4906 2.1469.4906 2.1469s.2921 4.0924-.6823 4.6008c-.6689.3487-1.5864-.3632-3.5562-3.6178-1.0094-1.6671-1.7714-3.5098-1.7714-3.5098s-.1469-.3444-.409-.5286c-.3181-.2232-.7625-.2943-.7625-.2943l-4.7152.0296s-.7078.0188-.9677.3131c-.2311.2617-.0183.8032-.0183.8032s3.6915 8.2575 7.8713 12.4189c3.8326 3.8152 8.1849 3.5646 8.1849 3.5646z" fill="#3385FF"/><path d="M85.558 30.196c-1.4747 0-2.6927-.49-3.654-1.47s-1.442-2.1887-1.442-3.626c0-1.4467.4807-2.6553 1.442-3.626.9613-.98 2.1793-1.47 3.654-1.47.8867 0 1.7033.21 2.45.63.756.4107 1.344.9707 1.764 1.68l-1.666.966c-.2427-.4387-.588-.7793-1.036-1.022-.448-.252-.952-.378-1.512-.378-.952 0-1.722.2987-2.31.896-.5787.5973-.868 1.372-.868 2.324 0 .9427.2893 1.7127.868 2.31.588.5973 1.358.896 2.31.896.56 0 1.064-.1213 1.512-.364.4573-.252.8027-.5927 1.036-1.022l1.666.966c-.42.7093-1.0033 1.274-1.75 1.694-.7467.4107-1.568.616-2.464.616zM96.5002 23v1.736h-2.184V30h-1.806v-5.264h-2.212V23h6.202zm5.6378 0h1.932l-2.548 7c-.709 1.9693-1.9413 2.9027-3.696 2.8v-1.68c.476.0093.8494-.0793 1.12-.266.28-.1867.504-.4993.672-.938L96.79 23h1.918l1.876 4.704L102.138 23zm8.654 5.306h.924v3.57h-1.764V30h-4.34v1.876h-1.764v-3.57h.854c.401-.5973.602-1.4233.602-2.478V23h5.488v5.306zm-4.158 0h2.394v-3.682h-1.96v1.204c0 .9893-.145 1.8153-.434 2.478zM117.913 23h1.344v7h-1.764v-3.976L114.203 30h-1.344v-7h1.764v3.976l3.29-3.976zm8.613 0v7h-1.764v-2.184h-.63L122.522 30h-2.086l1.75-2.394c-.448-.1867-.807-.4807-1.078-.882-.261-.4107-.392-.8493-.392-1.316 0-.6533.233-1.218.7-1.694.467-.476 1.078-.714 1.834-.714h3.276zm-3.136 1.61c-.261 0-.481.0793-.658.238-.168.1493-.252.3547-.252.616 0 .252.084.4527.252.602.177.1493.397.224.658.224h1.372v-1.68h-1.372zM139.414 30h-2.226l-3.5-4.592V30h-1.932v-9.8h1.932v4.326l3.36-4.326h2.226l-3.626 4.76 3.766 5.04zm4.945-7.196c.943 0 1.745.3593 2.408 1.078.672.7093 1.008 1.582 1.008 2.618 0 1.036-.336 1.9133-1.008 2.632-.663.7093-1.465 1.064-2.408 1.064-.98 0-1.736-.3407-2.268-1.022V32.8h-1.806V23h1.806v.826c.532-.6813 1.288-1.022 2.268-1.022zm-1.722 5.124c.364.364.826.546 1.386.546.56 0 1.022-.182 1.386-.546.373-.3733.56-.8493.56-1.428 0-.5787-.187-1.05-.56-1.414-.364-.3733-.826-.56-1.386-.56-.56 0-1.022.1867-1.386.56-.364.364-.546.8353-.546 1.414 0 .5787.182 1.0547.546 1.428zm9.576-2.688c.793 0 1.432.2193 1.918.658.485.4293.728 1.0033.728 1.722 0 .7187-.243 1.2973-.728 1.736-.486.4293-1.125.644-1.918.644h-3.164v-7h1.806v2.24h1.358zm3.416-2.24h1.806v7h-1.806v-7zm-3.402 5.404c.252 0 .457-.07.616-.21.168-.1493.252-.3407.252-.574 0-.2333-.084-.4247-.252-.574-.159-.1493-.364-.224-.616-.224h-1.372v1.582h1.372zM166.364 23v7h-1.75v-4.088l-1.778 2.8h-.224l-1.792-2.828V30h-1.736v-7h1.778l1.862 2.94 1.862-2.94h1.778zm4.98 7.196c-1.055 0-1.937-.3547-2.646-1.064-.7-.7093-1.05-1.5867-1.05-2.632 0-1.0453.35-1.9227 1.05-2.632.709-.7093 1.591-1.064 2.646-1.064.681 0 1.302.1633 1.862.49s.984.7653 1.274 1.316l-1.554.91c-.14-.2893-.355-.518-.644-.686-.28-.168-.598-.252-.952-.252-.542 0-.99.182-1.344.546-.355.3547-.532.812-.532 1.372 0 .5507.177 1.008.532 1.372.354.3547.802.532 1.344.532.364 0 .686-.0793.966-.238.289-.168.504-.3967.644-.686l1.568.896c-.308.5507-.742.994-1.302 1.33-.56.3267-1.181.49-1.862.49zM181.971 30h-2.1l-2.548-3.178V30h-1.806v-7h1.806v3.08l2.408-3.08h2.156l-2.814 3.458L181.971 30zm5.956-7h1.344v7h-1.764v-3.976L184.217 30h-1.344v-7h1.764v3.976l3.29-3.976zm4.175-.896v-1.568h4.06v1.568h-4.06zm3.878.896h1.344v7h-1.764v-3.976L192.27 30h-1.344v-7h1.764v3.976L195.98 23zM82 41h.45v7h-.53v-6.42l-1.62.51-.13-.46L82 41zm9.5863 2v5h-.51v-4.24l-1.87 2.95h-.07l-1.88-2.97V48h-.5v-5h.59l1.82 2.87 1.82-2.87h.6zm5.5972 0v5h-.5v-4.51h-2.52v2.41c0 .8133-.15 1.3767-.45 1.69-.3.3133-.71.45-1.23.41v-.47c.4.0333.6967-.0733.89-.32.1933-.2467.29-.6833.29-1.31V43h3.52zm4.1855-.11c.72 0 1.33.2533 1.83.76.507.5.76 1.1167.76 1.85 0 .7333-.253 1.3533-.76 1.86-.5.5-1.11.75-1.83.75-.473 0-.9-.1133-1.28-.34-.3731-.2267-.6631-.5367-.8698-.93V50h-.5v-7h.5v1.16c.2067-.3933.4967-.7033.8698-.93.38-.2267.807-.34 1.28-.34zm-1.5398 4.12c.4138.4133.9168.62 1.5098.62.594 0 1.094-.2067 1.5-.62.414-.4133.62-.9167.62-1.51s-.206-1.0967-.62-1.51c-.406-.4133-.906-.62-1.5-.62-.593 0-1.096.2067-1.5098.62-.4066.4133-.61.9167-.61 1.51s.2034 1.0967.61 1.51zm9.2398.5h.7v1.83h-.51V48h-4.32v1.34h-.51v-1.83h.58c.367-.5.55-1.17.55-2.01V43h3.51v4.51zm-3.44 0h2.93v-4.02h-2.5v2.01c0 .82-.143 1.49-.43 2.01zm5.859.46c-.087.0867-.194.13-.32.13-.127 0-.234-.0433-.32-.13-.087-.0867-.13-.1933-.13-.32s.043-.2333.13-.32c.086-.0867.193-.13.32-.13.126 0 .233.0433.32.13.086.0867.13.1933.13.32s-.044.2333-.13.32zm8.305-4.97v5h-.51v-4.51h-3.12V48h-.5v-5h4.13zm3.833 5.11c-.733 0-1.356-.25-1.87-.75-.506-.5067-.76-1.1267-.76-1.86 0-.7333.254-1.35.76-1.85.514-.5067 1.137-.76 1.87-.76.727 0 1.344.2533 1.85.76.514.5.77 1.1167.77 1.85 0 .7333-.256 1.3533-.77 1.86-.506.5-1.123.75-1.85.75zm-1.51-1.1c.414.4133.917.62 1.51.62.594 0 1.094-.2067 1.5-.62.407-.4133.61-.9167.61-1.51s-.203-1.0967-.61-1.51c-.406-.4133-.906-.62-1.5-.62-.593 0-1.096.2067-1.51.62-.406.4133-.61.9167-.61 1.51s.204 1.0967.61 1.51zm9.238.5h.7v1.83h-.51V48h-4.32v1.34h-.51v-1.83h.58c.367-.5.55-1.17.55-2.01V43h3.51v4.51zm-3.44 0h2.93v-4.02h-2.5v2.01c0 .82-.143 1.49-.43 2.01zm9.369-4.51v5h-.51v-4.51h-3.12V48h-.5v-5h4.13zm5.234 0h.44v5h-.51v-4.13l-3.18 4.13h-.44v-5h.5v4.13l3.19-4.13zm4.273 5.11c-.753 0-1.38-.25-1.88-.75s-.75-1.12-.75-1.86.25-1.36.75-1.86 1.127-.75 1.88-.75c.487 0 .927.1167 1.32.35.394.2267.68.5367.86.93l-.41.24c-.146-.32-.38-.5733-.7-.76-.313-.1867-.67-.28-1.07-.28-.6 0-1.103.2067-1.51.62-.406.4067-.61.91-.61 1.51s.204 1.1067.61 1.52c.407.4067.91.61 1.51.61.4 0 .757-.0933 1.07-.28.32-.1867.564-.44.73-.76l.42.25c-.2.3867-.5.6967-.9.93-.393.2267-.833.34-1.32.34zm6.538-5.11h.51v5h-.51v-1.96c-.44.22-.946.33-1.52.33-.64 0-1.133-.1467-1.48-.44-.346-.3-.52-.7333-.52-1.3V43h.5v1.63c0 .84.494 1.26 1.48 1.26.547 0 1.06-.1067 1.54-.32V43zm5.741 0h.44v5h-.51v-4.13l-3.18 4.13h-.44v-5h.5v4.13l3.19-4.13zm5.814 5h-.68l-2.65-2.46V48h-.5v-5h.5v2.27l2.53-2.27h.7l-2.69 2.4 2.79 2.6zm2.796.11c-.733 0-1.357-.25-1.87-.75-.507-.5067-.76-1.1267-.76-1.86 0-.7333.253-1.35.76-1.85.513-.5067 1.137-.76 1.87-.76.727 0 1.343.2533 1.85.76.513.5.77 1.1167.77 1.85 0 .7333-.257 1.3533-.77 1.86-.507.5-1.123.75-1.85.75zm-1.51-1.1c.413.4133.917.62 1.51.62s1.093-.2067 1.5-.62c.407-.4133.61-.9167.61-1.51s-.203-1.0967-.61-1.51-.907-.62-1.5-.62-1.097.2067-1.51.62c-.407.4133-.61.9167-.61 1.51s.203 1.0967.61 1.51zm8.413-1.59c.587.1933.88.5933.88 1.2 0 .4-.133.73-.4.99-.26.26-.64.39-1.14.39h-2.42v-5h2.23c.474 0 .84.1233 1.1.37.26.2467.39.56.39.94 0 .5333-.213.9033-.64 1.11zm-.85-1.93h-1.73v1.73h1.73c.32 0 .564-.0767.73-.23.167-.1533.25-.37.25-.65 0-.2667-.086-.4733-.26-.62-.166-.1533-.406-.23-.72-.23zm.19 4.02c.334 0 .59-.08.77-.24.18-.16.27-.3833.27-.67 0-.28-.093-.4967-.28-.65-.18-.16-.433-.24-.76-.24h-1.92v1.8h1.92z" fill="#3D3D3D"/></svg>